<svg width="2256" height="2033" xmlns="http://www.w3.org/2000/svg" xmlns:xlink="http://www.w3.org/1999/xlink" xml:space="preserve" overflow="hidden"><g transform="translate(-1072 -221)"><path d="M1726.7 467.244 1769.84 467.244 1769.84 510.66 1726.7 510.66ZM1446.7 467.244 1489.84 467.244 1489.84 510.66 1446.7 510.66ZM1166.7 467.244 1209.84 467.244 1209.84 510.66 1166.7 510.66ZM2710.39 333C2708.59 332.959 2706.81 332.963 2705.06 333.01L2694.33 333.01C2687.19 332.826 2679.6 333.331 2671.56 334.523 2663.53 335.715 2657.45 338.695 2653.34 343.463 2650.91 347.057 2649.17 352.613 2648.11 360.13 2647.06 367.647 2646.42 375.362 2646.19 383.276 2645.96 391.19 2645.87 397.541 2645.91 402.327 2645.9 408.207 2645.99 414.396 2646.19 420.894 2646.38 427.393 2646.75 433.582 2647.29 439.461 2647.63 443.312 2648.19 447.026 2648.97 450.602 2649.76 454.177 2651.21 457.616 2653.34 460.917 2655.38 463.782 2658.11 465.959 2661.52 467.449 2664.94 468.939 2668.35 469.879 2671.77 470.269 2676.87 470.807 2682.01 471.174 2687.18 471.369 2692.35 471.564 2697.48 471.656 2702.58 471.644 2710.63 471.85 2718.74 471.369 2726.89 470.2 2735.05 469.031 2741.16 465.937 2745.22 460.917 2747.48 457.359 2749.14 452.126 2750.2 445.217 2751.27 438.308 2751.95 431.262 2752.25 424.078 2752.55 416.894 2752.68 411.111 2752.65 406.728 2752.65 400.333 2752.51 393.319 2752.23 385.686 2751.96 378.053 2751.55 371.038 2751 364.643 2750.65 361.021 2750.1 357.4 2749.35 353.778 2748.59 350.156 2747.21 346.81 2745.22 343.738 2741.24 338.838 2735.3 335.778 2727.41 334.557 2721.48 333.642 2715.81 333.123 2710.39 333ZM3049.37 293.994 3138.71 293.994 3138.71 510.66 3093.37 510.66 3093.37 335.21 3049.37 335.21ZM2689.5 291.749C2693.07 291.702 2696.7 291.717 2700.38 291.794 2709.53 291.653 2719.17 291.935 2729.3 292.639 2739.43 293.343 2749.09 295.314 2758.28 298.552 2767.46 301.789 2775.2 307.139 2781.5 314.6 2786.81 321.535 2790.63 330.234 2792.98 340.698 2795.33 351.161 2796.77 361.901 2797.32 372.916 2797.86 383.932 2798.08 393.736 2797.99 402.327 2798.07 413.267 2797.7 424.74 2796.85 436.745 2796.01 448.751 2794.19 460.017 2791.39 470.544 2790.02 475.674 2787.95 480.528 2785.18 485.108 2782.4 489.688 2778.88 493.718 2774.63 497.198 2764.56 504.582 2752.89 509.116 2739.61 510.799 2726.33 512.482 2712.52 513.169 2698.18 512.86 2689.03 513.001 2679.39 512.719 2669.26 512.015 2659.12 511.311 2649.47 509.34 2640.28 506.102 2631.1 502.865 2623.36 497.515 2617.06 490.054 2611.84 483.119 2608.05 474.42 2605.7 463.957 2603.35 453.493 2601.88 442.754 2601.3 431.738 2600.72 420.723 2600.48 410.919 2600.57 402.327 2600.49 391.284 2600.86 379.812 2601.71 367.909 2602.55 356.007 2604.37 344.741 2607.17 334.111 2608.67 328.981 2610.82 324.126 2613.62 319.546 2616.43 314.967 2619.96 310.937 2624.2 307.456 2634.09 300.072 2645.58 295.538 2658.67 293.855 2668.49 292.593 2678.77 291.891 2689.5 291.749ZM1767.65 291.501C1776 291.641 1784.62 292.253 1793.51 293.34 1805.36 294.788 1815.9 298.486 1825.13 304.434 1833.08 310.318 1838.12 317.44 1840.24 325.8 1842.36 334.16 1843.27 343.073 1842.99 352.539 1843.23 364.23 1841.37 374.683 1837.39 383.898 1833.41 393.112 1825.84 400.264 1814.69 405.353L1781.4 419.657C1775.46 422.001 1771.85 425.084 1770.56 428.906 1769.27 432.728 1768.75 438.906 1769.01 447.439L1727.52 447.439C1727.52 444.912 1727.52 441.783 1727.52 438.052 1727.52 434.322 1727.52 431.124 1727.52 428.459 1727.41 421.846 1728.67 415.611 1731.3 409.754 1733.93 403.898 1738.63 399.313 1745.38 396.001L1789.66 375.37C1794.48 373.072 1797.64 370.173 1799.16 366.671 1800.67 363.17 1801.36 358.826 1801.22 353.64 1801.18 349.542 1800.58 346.253 1799.43 343.772 1798.29 341.29 1796.86 339.445 1795.17 338.236 1791.91 335.72 1787.47 334.15 1781.85 333.525 1776.23 332.901 1768.28 332.637 1758.02 332.735 1746.97 332.579 1738.56 333.074 1732.78 334.222 1727 335.37 1723.08 338.107 1721.03 342.433 1718.97 346.76 1718.01 353.613 1718.14 362.992L1718.14 367.118 1676.1 367.118 1676.1 360.792C1675.69 349.325 1676.71 338.086 1679.15 327.074 1681.6 316.061 1687.91 307.233 1698.08 300.587 1703.44 297.62 1709.73 295.493 1716.97 294.206 1724.2 292.918 1731.56 292.135 1739.04 291.855 1746.52 291.575 1753.31 291.463 1759.4 291.519 1762.12 291.461 1764.87 291.454 1767.65 291.501ZM1487.65 291.501C1496 291.641 1504.62 292.253 1513.51 293.34 1525.36 294.788 1535.9 298.486 1545.13 304.434 1553.08 310.318 1558.12 317.44 1560.24 325.8 1562.36 334.16 1563.27 343.073 1562.99 352.539 1563.23 364.23 1561.37 374.683 1557.39 383.898 1553.41 393.112 1545.84 400.264 1534.69 405.353L1501.4 419.657C1495.46 422.001 1491.85 425.084 1490.56 428.906 1489.27 432.728 1488.75 438.906 1489.01 447.439L1447.52 447.439C1447.52 444.912 1447.52 441.783 1447.52 438.052 1447.52 434.322 1447.52 431.124 1447.52 428.459 1447.41 421.846 1448.67 415.611 1451.3 409.754 1453.93 403.898 1458.63 399.313 1465.38 396.001L1509.66 375.37C1514.48 373.072 1517.64 370.173 1519.16 366.671 1520.67 363.17 1521.36 358.826 1521.22 353.64 1521.18 349.542 1520.58 346.253 1519.43 343.772 1518.29 341.29 1516.86 339.445 1515.17 338.236 1511.91 335.72 1507.47 334.15 1501.85 333.525 1496.23 332.901 1488.28 332.637 1478.02 332.735 1466.97 332.579 1458.56 333.074 1452.78 334.222 1447 335.37 1443.08 338.107 1441.03 342.433 1438.97 346.76 1438.01 353.613 1438.14 362.992L1438.14 367.118 1396.1 367.118 1396.1 360.792C1395.69 349.325 1396.71 338.086 1399.15 327.074 1401.6 316.061 1407.91 307.233 1418.08 300.587 1423.44 297.62 1429.73 295.493 1436.97 294.206 1444.2 292.918 1451.56 292.135 1459.04 291.855 1466.52 291.575 1473.31 291.463 1479.4 291.519 1482.12 291.461 1484.87 291.454 1487.65 291.501ZM1207.65 291.501C1216 291.641 1224.62 292.253 1233.51 293.34 1245.36 294.788 1255.9 298.486 1265.13 304.434 1273.08 310.318 1278.12 317.44 1280.24 325.8 1282.36 334.16 1283.27 343.073 1282.99 352.539 1283.23 364.23 1281.37 374.683 1277.39 383.898 1273.41 393.112 1265.84 400.264 1254.69 405.353L1221.4 419.657C1215.46 422.001 1211.85 425.084 1210.56 428.906 1209.27 432.728 1208.75 438.906 1209.01 447.439L1167.52 447.439C1167.52 444.912 1167.52 441.783 1167.52 438.052 1167.52 434.322 1167.52 431.124 1167.52 428.459 1167.41 421.846 1168.67 415.611 1171.3 409.754 1173.93 403.898 1178.63 399.313 1185.38 396.001L1229.66 375.37C1234.48 373.072 1237.64 370.173 1239.16 366.671 1240.67 363.17 1241.36 358.826 1241.22 353.64 1241.18 349.542 1240.58 346.253 1239.43 343.772 1238.29 341.29 1236.86 339.445 1235.17 338.236 1231.91 335.72 1227.47 334.15 1221.85 333.525 1216.23 332.901 1208.28 332.637 1198.02 332.735 1186.97 332.579 1178.56 333.074 1172.78 334.222 1167 335.37 1163.08 338.107 1161.03 342.433 1158.97 346.76 1158.01 353.613 1158.14 362.992L1158.14 367.118 1116.1 367.118 1116.1 360.792C1115.69 349.325 1116.71 338.086 1119.15 327.074 1121.6 316.061 1127.91 307.233 1138.08 300.587 1143.44 297.62 1149.73 295.493 1156.97 294.206 1164.2 292.918 1171.56 292.135 1179.04 291.855 1186.52 291.575 1193.31 291.463 1199.4 291.519 1202.12 291.461 1204.87 291.454 1207.65 291.501Z" stroke="#FFFFFF" stroke-width="5" stroke-linejoin="round" stroke-miterlimit="10" fill="#0070C0" fill-rule="evenodd"/><text fill="#000000" fill-opacity="0" font-family="Arial,Arial_MSFontService,sans-serif" font-size="221.462" x="1116.01" y="485.249">? ? ?        0  1</text><path d="M1726.7 797.244 1769.84 797.244 1769.84 840.66 1726.7 840.66ZM1446.7 797.244 1489.84 797.244 1489.84 840.66 1446.7 840.66ZM1166.7 797.244 1209.84 797.244 1209.84 840.66 1166.7 840.66ZM1767.65 621.501C1776 621.641 1784.62 622.253 1793.51 623.34 1805.36 624.788 1815.9 628.486 1825.13 634.434 1833.08 640.318 1838.12 647.44 1840.24 655.8 1842.36 664.16 1843.27 673.073 1842.99 682.539 1843.23 694.23 1841.37 704.683 1837.39 713.898 1833.41 723.112 1825.84 730.264 1814.69 735.353L1781.4 749.657C1775.46 752.001 1771.85 755.084 1770.56 758.906 1769.27 762.728 1768.75 768.906 1769.01 777.439L1727.52 777.439C1727.52 774.912 1727.52 771.783 1727.52 768.052 1727.52 764.322 1727.52 761.124 1727.52 758.459 1727.41 751.846 1728.67 745.611 1731.3 739.754 1733.93 733.898 1738.63 729.313 1745.38 726.001L1789.66 705.37C1794.48 703.072 1797.64 700.173 1799.16 696.671 1800.67 693.17 1801.36 688.826 1801.22 683.64 1801.18 679.542 1800.58 676.253 1799.43 673.771 1798.29 671.29 1796.86 669.445 1795.17 668.236 1791.91 665.72 1787.47 664.15 1781.85 663.525 1776.23 662.901 1768.28 662.637 1758.02 662.735 1746.97 662.579 1738.56 663.074 1732.78 664.222 1727 665.37 1723.08 668.107 1721.03 672.433 1718.97 676.76 1718.01 683.613 1718.14 692.992L1718.14 697.118 1676.1 697.118 1676.1 690.792C1675.69 679.325 1676.71 668.086 1679.15 657.074 1681.6 646.061 1687.91 637.232 1698.08 630.587 1703.44 627.62 1709.73 625.493 1716.97 624.206 1724.2 622.918 1731.56 622.135 1739.04 621.855 1746.52 621.575 1753.31 621.463 1759.4 621.519 1762.12 621.46 1764.87 621.454 1767.65 621.501ZM1487.65 621.501C1496 621.641 1504.62 622.253 1513.51 623.34 1525.36 624.788 1535.9 628.486 1545.13 634.434 1553.08 640.318 1558.12 647.44 1560.24 655.8 1562.36 664.16 1563.27 673.073 1562.99 682.539 1563.23 694.23 1561.37 704.683 1557.39 713.898 1553.41 723.112 1545.84 730.264 1534.69 735.353L1501.4 749.657C1495.46 752.001 1491.85 755.084 1490.56 758.906 1489.27 762.728 1488.75 768.906 1489.01 777.439L1447.52 777.439C1447.52 774.912 1447.52 771.783 1447.52 768.052 1447.52 764.322 1447.52 761.124 1447.52 758.459 1447.41 751.846 1448.67 745.611 1451.3 739.754 1453.93 733.898 1458.63 729.313 1465.38 726.001L1509.66 705.37C1514.48 703.072 1517.64 700.173 1519.16 696.671 1520.67 693.17 1521.36 688.826 1521.22 683.64 1521.18 679.542 1520.58 676.253 1519.43 673.771 1518.29 671.29 1516.86 669.445 1515.17 668.236 1511.91 665.72 1507.47 664.15 1501.85 663.525 1496.23 662.901 1488.28 662.637 1478.02 662.735 1466.97 662.579 1458.56 663.074 1452.78 664.222 1447 665.37 1443.08 668.107 1441.03 672.433 1438.97 676.76 1438.01 683.613 1438.14 692.992L1438.14 697.118 1396.1 697.118 1396.1 690.792C1395.69 679.325 1396.71 668.086 1399.15 657.074 1401.6 646.061 1407.91 637.232 1418.08 630.587 1423.44 627.62 1429.73 625.493 1436.97 624.206 1444.2 622.918 1451.56 622.135 1459.04 621.855 1466.52 621.575 1473.31 621.463 1479.4 621.519 1482.12 621.46 1484.87 621.454 1487.65 621.501ZM1207.65 621.501C1216 621.641 1224.62 622.253 1233.51 623.34 1245.36 624.788 1255.9 628.486 1265.13 634.434 1273.08 640.318 1278.12 647.44 1280.24 655.8 1282.36 664.16 1283.27 673.073 1282.99 682.539 1283.23 694.23 1281.37 704.683 1277.39 713.898 1273.41 723.112 1265.84 730.264 1254.69 735.353L1221.4 749.657C1215.46 752.001 1211.85 755.084 1210.56 758.906 1209.27 762.728 1208.75 768.906 1209.01 777.439L1167.52 777.439C1167.52 774.912 1167.52 771.783 1167.52 768.052 1167.52 764.322 1167.52 761.124 1167.52 758.459 1167.41 751.846 1168.67 745.611 1171.3 739.754 1173.93 733.898 1178.63 729.313 1185.38 726.001L1229.66 705.37C1234.48 703.072 1237.64 700.173 1239.16 696.671 1240.67 693.17 1241.36 688.826 1241.22 683.64 1241.18 679.542 1240.58 676.253 1239.43 673.771 1238.29 671.29 1236.86 669.445 1235.17 668.236 1231.91 665.72 1227.47 664.15 1221.85 663.525 1216.23 662.901 1208.28 662.637 1198.02 662.735 1186.97 662.579 1178.56 663.074 1172.78 664.222 1167 665.37 1163.08 668.107 1161.03 672.433 1158.97 676.76 1158.01 683.613 1158.14 692.992L1158.14 697.118 1116.1 697.118 1116.1 690.792C1115.69 679.325 1116.71 668.086 1119.15 657.074 1121.6 646.061 1127.91 637.232 1138.08 630.587 1143.44 627.62 1149.73 625.493 1156.97 624.206 1164.2 622.918 1171.56 622.135 1179.04 621.855 1186.52 621.575 1193.31 621.463 1199.4 621.519 1202.12 621.46 1204.87 621.454 1207.65 621.501Z" stroke="#FFFFFF" stroke-width="5" stroke-linejoin="round" stroke-miterlimit="10" fill="#00B050" fill-rule="evenodd"/><text fill="#000000" fill-opacity="0" font-family="Arial,Arial_MSFontService,sans-serif" font-size="219.19" x="1116.01" y="813.261">? ? ?</text><path d="M2710.53 663C2708.72 662.959 2706.94 662.963 2705.19 663.01L2694.46 663.01C2687.32 662.826 2679.73 663.331 2671.7 664.523 2663.67 665.715 2657.59 668.695 2653.48 673.463 2651.05 677.057 2649.3 682.613 2648.25 690.13 2647.19 697.647 2646.55 705.362 2646.32 713.276 2646.09 721.19 2646 727.541 2646.05 732.327 2646.04 738.207 2646.13 744.396 2646.32 750.894 2646.52 757.393 2646.88 763.582 2647.42 769.461 2647.76 773.312 2648.32 777.026 2649.11 780.602 2649.89 784.177 2651.35 787.616 2653.48 790.917 2655.52 793.782 2658.24 795.959 2661.66 797.449 2665.07 798.939 2668.49 799.879 2671.91 800.269 2677.01 800.807 2682.14 801.174 2687.31 801.369 2692.48 801.564 2697.62 801.656 2702.72 801.644 2710.77 801.85 2718.87 801.369 2727.03 800.2 2735.18 799.031 2741.29 795.936 2745.35 790.917 2747.61 787.359 2749.27 782.126 2750.34 775.217 2751.4 768.308 2752.08 761.262 2752.39 754.078 2752.69 746.894 2752.82 741.111 2752.78 736.728 2752.78 730.333 2752.64 723.319 2752.37 715.686 2752.09 708.053 2751.68 701.038 2751.13 694.643 2750.79 691.021 2750.24 687.4 2749.48 683.778 2748.72 680.156 2747.35 676.81 2745.35 673.738 2741.38 668.838 2735.44 665.778 2727.54 664.557 2721.62 663.642 2715.95 663.123 2710.53 663ZM3049.51 623.994 3138.85 623.994 3138.85 840.66 3093.51 840.66 3093.51 665.21 3049.51 665.21ZM2689.63 621.749C2693.21 621.702 2696.84 621.717 2700.52 621.794 2709.66 621.653 2719.3 621.935 2729.44 622.639 2739.57 623.343 2749.23 625.314 2758.41 628.552 2767.6 631.789 2775.34 637.139 2781.64 644.6 2786.94 651.535 2790.77 660.234 2793.12 670.698 2795.46 681.161 2796.91 691.9 2797.45 702.916 2798 713.932 2798.22 723.735 2798.12 732.327 2798.21 743.267 2797.83 754.739 2796.99 766.745 2796.15 778.751 2794.33 790.017 2791.53 800.544 2790.16 805.674 2788.09 810.528 2785.31 815.108 2782.53 819.688 2779.02 823.718 2774.77 827.198 2764.7 834.582 2753.02 839.116 2739.75 840.799 2726.47 842.482 2712.66 843.169 2698.31 842.86 2689.17 843.001 2679.53 842.719 2669.39 842.015 2659.26 841.311 2649.6 839.34 2640.42 836.102 2631.23 832.865 2623.49 827.515 2617.19 820.054 2611.97 813.119 2608.19 804.42 2605.84 793.957 2603.49 783.493 2602.02 772.754 2601.44 761.738 2600.86 750.723 2600.62 740.919 2600.71 732.327 2600.62 721.284 2601 709.812 2601.84 697.909 2602.68 686.007 2604.5 674.741 2607.3 664.111 2608.8 658.981 2610.95 654.126 2613.76 649.546 2616.57 644.967 2620.09 640.937 2624.34 637.456 2634.23 630.072 2645.72 625.538 2658.81 623.855 2668.63 622.593 2678.9 621.891 2689.63 621.749Z" stroke="#FFFFFF" stroke-width="5" stroke-linejoin="round" stroke-miterlimit="10" fill="#00B050" fill-rule="evenodd"/><text fill="#000000" fill-opacity="0" font-family="Arial,Arial_MSFontService,sans-serif" font-size="221.209" x="2600.69" y="815.281">0  1</text><path d="M1726.7 1127.24 1769.84 1127.24 1769.84 1170.66 1726.7 1170.66ZM1446.7 1127.24 1489.84 1127.24 1489.84 1170.66 1446.7 1170.66ZM1166.7 1127.24 1209.84 1127.24 1209.84 1170.66 1166.7 1170.66ZM3117.39 993C3115.59 992.959 3113.81 992.962 3112.06 993.01L3101.33 993.01C3094.19 992.826 3086.6 993.331 3078.56 994.523 3070.53 995.715 3064.45 998.695 3060.34 1003.46 3057.91 1007.06 3056.17 1012.61 3055.11 1020.13 3054.06 1027.65 3053.42 1035.36 3053.19 1043.28 3052.96 1051.19 3052.87 1057.54 3052.91 1062.33 3052.9 1068.21 3052.99 1074.4 3053.19 1080.89 3053.38 1087.39 3053.75 1093.58 3054.29 1099.46 3054.63 1103.31 3055.19 1107.03 3055.97 1110.6 3056.76 1114.18 3058.21 1117.62 3060.34 1120.92 3062.38 1123.78 3065.11 1125.96 3068.52 1127.45 3071.94 1128.94 3075.35 1129.88 3078.77 1130.27 3083.87 1130.81 3089.01 1131.17 3094.18 1131.37 3099.35 1131.56 3104.48 1131.66 3109.58 1131.64 3117.63 1131.85 3125.74 1131.37 3133.89 1130.2 3142.05 1129.03 3148.16 1125.94 3152.22 1120.92 3154.48 1117.36 3156.14 1112.13 3157.2 1105.22 3158.27 1098.31 3158.95 1091.26 3159.25 1084.08 3159.55 1076.89 3159.68 1071.11 3159.65 1066.73 3159.65 1060.33 3159.51 1053.32 3159.23 1045.69 3158.96 1038.05 3158.55 1031.04 3158 1024.64 3157.65 1021.02 3157.1 1017.4 3156.35 1013.78 3155.59 1010.16 3154.21 1006.81 3152.22 1003.74 3148.24 998.838 3142.3 995.778 3134.41 994.557 3128.48 993.642 3122.81 993.123 3117.39 993ZM2642.37 953.994 2731.71 953.994 2731.71 1170.66 2686.37 1170.66 2686.37 995.21 2642.37 995.21ZM3096.5 951.749C3100.07 951.702 3103.7 951.717 3107.38 951.794 3116.53 951.653 3126.17 951.935 3136.3 952.639 3146.43 953.343 3156.09 955.314 3165.28 958.551 3174.46 961.789 3182.2 967.139 3188.5 974.6 3193.81 981.535 3197.63 990.234 3199.98 1000.7 3202.33 1011.16 3203.77 1021.9 3204.32 1032.92 3204.86 1043.93 3205.08 1053.74 3204.99 1062.33 3205.07 1073.27 3204.7 1084.74 3203.85 1096.74 3203.01 1108.75 3201.19 1120.02 3198.39 1130.54 3197.02 1135.67 3194.95 1140.53 3192.18 1145.11 3189.4 1149.69 3185.88 1153.72 3181.63 1157.2 3171.56 1164.58 3159.89 1169.12 3146.61 1170.8 3133.33 1172.48 3119.52 1173.17 3105.18 1172.86 3096.03 1173 3086.39 1172.72 3076.26 1172.02 3066.12 1171.31 3056.47 1169.34 3047.28 1166.1 3038.1 1162.86 3030.36 1157.52 3024.06 1150.05 3018.84 1143.12 3015.05 1134.42 3012.7 1123.96 3010.35 1113.49 3008.88 1102.75 3008.3 1091.74 3007.72 1080.72 3007.48 1070.92 3007.57 1062.33 3007.49 1051.28 3007.86 1039.81 3008.71 1027.91 3009.55 1016.01 3011.37 1004.74 3014.17 994.111 3015.67 988.981 3017.82 984.126 3020.62 979.546 3023.43 974.967 3026.96 970.937 3031.2 967.456 3041.09 960.072 3052.58 955.538 3065.67 953.855 3075.49 952.593 3085.77 951.891 3096.5 951.749ZM1767.65 951.501C1776 951.64 1784.62 952.253 1793.51 953.34 1805.36 954.788 1815.9 958.486 1825.13 964.433 1833.08 970.318 1838.12 977.44 1840.24 985.8 1842.36 994.16 1843.27 1003.07 1842.99 1012.54 1843.23 1024.23 1841.37 1034.68 1837.39 1043.9 1833.41 1053.11 1825.84 1060.26 1814.69 1065.35L1781.4 1079.66C1775.46 1082 1771.85 1085.08 1770.56 1088.91 1769.27 1092.73 1768.75 1098.91 1769.01 1107.44L1727.52 1107.44C1727.52 1104.91 1727.52 1101.78 1727.52 1098.05 1727.52 1094.32 1727.52 1091.12 1727.52 1088.46 1727.41 1081.85 1728.67 1075.61 1731.3 1069.75 1733.93 1063.9 1738.63 1059.31 1745.38 1056L1789.66 1035.37C1794.48 1033.07 1797.64 1030.17 1799.16 1026.67 1800.67 1023.17 1801.36 1018.83 1801.22 1013.64 1801.18 1009.54 1800.58 1006.25 1799.43 1003.77 1798.29 1001.29 1796.86 999.445 1795.17 998.236 1791.91 995.72 1787.47 994.15 1781.85 993.525 1776.23 992.901 1768.28 992.637 1758.02 992.735 1746.97 992.578 1738.56 993.074 1732.78 994.222 1727 995.37 1723.08 998.107 1721.03 1002.43 1718.97 1006.76 1718.01 1013.61 1718.14 1022.99L1718.14 1027.12 1676.1 1027.12 1676.1 1020.79C1675.69 1009.33 1676.71 998.086 1679.15 987.074 1681.6 976.061 1687.91 967.232 1698.08 960.587 1703.44 957.62 1709.73 955.493 1716.97 954.206 1724.2 952.918 1731.56 952.135 1739.04 951.855 1746.52 951.575 1753.31 951.463 1759.4 951.519 1762.12 951.46 1764.87 951.454 1767.65 951.501ZM1487.65 951.501C1496 951.64 1504.62 952.253 1513.51 953.34 1525.36 954.788 1535.9 958.486 1545.13 964.433 1553.08 970.318 1558.12 977.44 1560.24 985.8 1562.36 994.16 1563.27 1003.07 1562.99 1012.54 1563.23 1024.23 1561.37 1034.68 1557.39 1043.9 1553.41 1053.11 1545.84 1060.26 1534.69 1065.35L1501.4 1079.66C1495.46 1082 1491.85 1085.08 1490.56 1088.91 1489.27 1092.73 1488.75 1098.91 1489.01 1107.44L1447.52 1107.44C1447.52 1104.91 1447.52 1101.78 1447.52 1098.05 1447.52 1094.32 1447.52 1091.12 1447.52 1088.46 1447.41 1081.85 1448.67 1075.61 1451.3 1069.75 1453.93 1063.9 1458.63 1059.31 1465.38 1056L1509.66 1035.37C1514.48 1033.07 1517.64 1030.17 1519.16 1026.67 1520.67 1023.17 1521.36 1018.83 1521.22 1013.64 1521.18 1009.54 1520.58 1006.25 1519.43 1003.77 1518.29 1001.29 1516.86 999.445 1515.17 998.236 1511.91 995.72 1507.47 994.15 1501.85 993.525 1496.23 992.901 1488.28 992.637 1478.02 992.735 1466.97 992.578 1458.56 993.074 1452.78 994.222 1447 995.37 1443.08 998.107 1441.03 1002.43 1438.97 1006.76 1438.01 1013.61 1438.14 1022.99L1438.14 1027.12 1396.1 1027.12 1396.1 1020.79C1395.69 1009.33 1396.71 998.086 1399.15 987.074 1401.6 976.061 1407.91 967.232 1418.08 960.587 1423.44 957.62 1429.73 955.493 1436.97 954.206 1444.2 952.918 1451.56 952.135 1459.04 951.855 1466.52 951.575 1473.31 951.463 1479.4 951.519 1482.12 951.46 1484.87 951.454 1487.65 951.501ZM1207.65 951.501C1216 951.64 1224.62 952.253 1233.51 953.34 1245.36 954.788 1255.9 958.486 1265.13 964.433 1273.08 970.318 1278.12 977.44 1280.24 985.8 1282.36 994.16 1283.27 1003.07 1282.99 1012.54 1283.23 1024.23 1281.37 1034.68 1277.39 1043.9 1273.41 1053.11 1265.84 1060.26 1254.69 1065.35L1221.4 1079.66C1215.46 1082 1211.85 1085.08 1210.56 1088.91 1209.27 1092.73 1208.75 1098.91 1209.01 1107.44L1167.52 1107.44C1167.52 1104.91 1167.52 1101.78 1167.52 1098.05 1167.52 1094.32 1167.52 1091.12 1167.52 1088.46 1167.41 1081.85 1168.67 1075.61 1171.3 1069.75 1173.93 1063.9 1178.63 1059.31 1185.38 1056L1229.66 1035.37C1234.48 1033.07 1237.64 1030.17 1239.16 1026.67 1240.67 1023.17 1241.36 1018.83 1241.22 1013.64 1241.18 1009.54 1240.58 1006.25 1239.43 1003.77 1238.29 1001.29 1236.86 999.445 1235.17 998.236 1231.91 995.72 1227.47 994.15 1221.85 993.525 1216.23 992.901 1208.28 992.637 1198.02 992.735 1186.97 992.578 1178.56 993.074 1172.78 994.222 1167 995.37 1163.08 998.107 1161.03 1002.43 1158.97 1006.76 1158.01 1013.61 1158.14 1022.99L1158.14 1027.12 1116.1 1027.12 1116.1 1020.79C1115.69 1009.33 1116.71 998.086 1119.15 987.074 1121.6 976.061 1127.91 967.232 1138.08 960.587 1143.44 957.62 1149.73 955.493 1156.97 954.206 1164.2 952.918 1171.56 952.135 1179.04 951.855 1186.52 951.575 1193.31 951.463 1199.4 951.519 1202.12 951.46 1204.87 951.454 1207.65 951.501Z" stroke="#FFFFFF" stroke-width="5" stroke-linejoin="round" stroke-miterlimit="10" fill="#FFFF00" fill-rule="evenodd"/><text fill="#000000" fill-opacity="0" font-family="Arial,Arial_MSFontService,sans-serif" font-size="221.462" x="1116.01" y="1145.25">? ? ?        1  0</text><path d="M1726.7 1457.24 1769.84 1457.24 1769.84 1500.66 1726.7 1500.66ZM1446.7 1457.24 1489.84 1457.24 1489.84 1500.66 1446.7 1500.66ZM1166.7 1457.24 1209.84 1457.24 1209.84 1500.66 1166.7 1500.66ZM3117.39 1323C3115.59 1322.96 3113.81 1322.96 3112.06 1323.01L3101.33 1323.01C3094.19 1322.83 3086.6 1323.33 3078.56 1324.52 3070.53 1325.71 3064.45 1328.69 3060.34 1333.46 3057.91 1337.06 3056.17 1342.61 3055.11 1350.13 3054.06 1357.65 3053.42 1365.36 3053.19 1373.28 3052.96 1381.19 3052.87 1387.54 3052.91 1392.33 3052.9 1398.21 3052.99 1404.4 3053.19 1410.89 3053.38 1417.39 3053.75 1423.58 3054.29 1429.46 3054.63 1433.31 3055.19 1437.03 3055.97 1440.6 3056.76 1444.18 3058.21 1447.62 3060.34 1450.92 3062.38 1453.78 3065.11 1455.96 3068.52 1457.45 3071.94 1458.94 3075.35 1459.88 3078.77 1460.27 3083.87 1460.81 3089.01 1461.17 3094.18 1461.37 3099.35 1461.56 3104.48 1461.66 3109.58 1461.64 3117.63 1461.85 3125.74 1461.37 3133.89 1460.2 3142.05 1459.03 3148.16 1455.94 3152.22 1450.92 3154.48 1447.36 3156.14 1442.13 3157.2 1435.22 3158.27 1428.31 3158.95 1421.26 3159.25 1414.08 3159.55 1406.89 3159.68 1401.11 3159.65 1396.73 3159.65 1390.33 3159.51 1383.32 3159.23 1375.69 3158.96 1368.05 3158.55 1361.04 3158 1354.64 3157.65 1351.02 3157.1 1347.4 3156.35 1343.78 3155.59 1340.16 3154.21 1336.81 3152.22 1333.74 3148.24 1328.84 3142.3 1325.78 3134.41 1324.56 3128.48 1323.64 3122.81 1323.12 3117.39 1323ZM2700.65 1281.79C2718.48 1281.44 2734.72 1282.58 2749.36 1285.2 2764.01 1287.83 2775.72 1294.08 2784.49 1303.95 2793.26 1313.81 2797.76 1329.43 2797.99 1350.79 2798.14 1359.4 2797.21 1368.11 2795.21 1376.92 2793.2 1385.74 2789.18 1393.35 2783.15 1399.75 2777.96 1404.77 2771.44 1408.97 2763.6 1412.34 2755.76 1415.71 2748.08 1417.84 2740.54 1418.73L2672.87 1426.99C2669.88 1427.38 2666.37 1428.1 2662.35 1429.15 2658.33 1430.2 2655.23 1431.68 2653.06 1433.59 2651.01 1435.84 2649.48 1438.83 2648.49 1442.56 2647.5 1446.29 2647.01 1449.63 2647.01 1452.57L2647.01 1459.44 2796.61 1459.44 2796.61 1500.66 2601.95 1500.66 2601.95 1462.19C2601.73 1452 2602.51 1442.26 2604.28 1432.97 2606.06 1423.67 2610.13 1414.89 2616.51 1406.63 2621.34 1400.77 2627.28 1396.33 2634.34 1393.29 2641.4 1390.25 2648.65 1388.28 2656.09 1387.38L2726.51 1379.4C2735.93 1378.57 2742.75 1376.31 2746.97 1372.62 2751.2 1368.94 2753.27 1362.21 2753.2 1352.44 2753.32 1347.15 2752.52 1342.33 2750.79 1338 2749.06 1333.67 2745.64 1330.23 2740.54 1327.68 2737.44 1326.33 2733.25 1325.31 2727.98 1324.64 2722.71 1323.97 2717.36 1323.52 2711.93 1323.3 2706.51 1323.09 2702.01 1322.99 2698.45 1323.01 2684.45 1322.91 2674.01 1323.84 2667.15 1325.8 2660.28 1327.76 2655.75 1331.34 2653.56 1336.54 2651.38 1341.74 2650.29 1349.15 2650.31 1358.77L2605.79 1358.77C2605.56 1347.89 2606.37 1337.26 2608.2 1326.9 2610.03 1316.54 2615.09 1307.37 2623.38 1299.38 2629.69 1293.97 2637.35 1290.01 2646.34 1287.49 2655.33 1284.98 2664.62 1283.38 2674.2 1282.69 2683.77 1282 2692.59 1281.71 2700.65 1281.79ZM3096.5 1281.75C3100.07 1281.7 3103.7 1281.72 3107.38 1281.79 3116.53 1281.65 3126.17 1281.93 3136.3 1282.64 3146.43 1283.34 3156.09 1285.31 3165.28 1288.55 3174.46 1291.79 3182.2 1297.14 3188.5 1304.6 3193.81 1311.54 3197.63 1320.23 3199.98 1330.7 3202.33 1341.16 3203.77 1351.9 3204.32 1362.92 3204.86 1373.93 3205.08 1383.74 3204.99 1392.33 3205.07 1403.27 3204.7 1414.74 3203.85 1426.74 3203.01 1438.75 3201.19 1450.02 3198.39 1460.54 3197.02 1465.67 3194.95 1470.53 3192.18 1475.11 3189.4 1479.69 3185.88 1483.72 3181.63 1487.2 3171.56 1494.58 3159.89 1499.12 3146.61 1500.8 3133.33 1502.48 3119.52 1503.17 3105.18 1502.86 3096.03 1503 3086.39 1502.72 3076.26 1502.02 3066.12 1501.31 3056.47 1499.34 3047.28 1496.1 3038.1 1492.86 3030.36 1487.52 3024.06 1480.05 3018.84 1473.12 3015.05 1464.42 3012.7 1453.96 3010.35 1443.49 3008.88 1432.75 3008.3 1421.74 3007.72 1410.72 3007.48 1400.92 3007.57 1392.33 3007.49 1381.28 3007.86 1369.81 3008.71 1357.91 3009.55 1346.01 3011.37 1334.74 3014.17 1324.11 3015.67 1318.98 3017.82 1314.13 3020.62 1309.55 3023.43 1304.97 3026.96 1300.94 3031.2 1297.46 3041.09 1290.07 3052.58 1285.54 3065.67 1283.85 3075.49 1282.59 3085.77 1281.89 3096.5 1281.75ZM1767.65 1281.5C1776 1281.64 1784.62 1282.25 1793.51 1283.34 1805.36 1284.79 1815.9 1288.49 1825.13 1294.43 1833.08 1300.32 1838.12 1307.44 1840.24 1315.8 1842.36 1324.16 1843.27 1333.07 1842.99 1342.54 1843.23 1354.23 1841.37 1364.68 1837.39 1373.9 1833.41 1383.11 1825.84 1390.26 1814.69 1395.35L1781.4 1409.66C1775.46 1412 1771.85 1415.08 1770.56 1418.91 1769.27 1422.73 1768.75 1428.91 1769.01 1437.44L1727.52 1437.44C1727.52 1434.91 1727.52 1431.78 1727.52 1428.05 1727.52 1424.32 1727.52 1421.12 1727.52 1418.46 1727.41 1411.85 1728.67 1405.61 1731.3 1399.75 1733.93 1393.9 1738.63 1389.31 1745.38 1386L1789.66 1365.37C1794.48 1363.07 1797.64 1360.17 1799.16 1356.67 1800.67 1353.17 1801.36 1348.83 1801.22 1343.64 1801.18 1339.54 1800.58 1336.25 1799.43 1333.77 1798.29 1331.29 1796.86 1329.44 1795.17 1328.24 1791.91 1325.72 1787.47 1324.15 1781.85 1323.53 1776.23 1322.9 1768.28 1322.64 1758.02 1322.73 1746.97 1322.58 1738.56 1323.07 1732.78 1324.22 1727 1325.37 1723.08 1328.11 1721.03 1332.43 1718.97 1336.76 1718.01 1343.61 1718.14 1352.99L1718.14 1357.12 1676.1 1357.12 1676.1 1350.79C1675.69 1339.33 1676.71 1328.09 1679.15 1317.07 1681.6 1306.06 1687.91 1297.23 1698.08 1290.59 1703.44 1287.62 1709.73 1285.49 1716.97 1284.21 1724.2 1282.92 1731.56 1282.13 1739.04 1281.85 1746.52 1281.58 1753.31 1281.46 1759.4 1281.52 1762.12 1281.46 1764.87 1281.45 1767.65 1281.5ZM1487.65 1281.5C1496 1281.64 1504.62 1282.25 1513.51 1283.34 1525.36 1284.79 1535.9 1288.49 1545.13 1294.43 1553.08 1300.32 1558.12 1307.44 1560.24 1315.8 1562.36 1324.16 1563.27 1333.07 1562.99 1342.54 1563.23 1354.23 1561.37 1364.68 1557.39 1373.9 1553.41 1383.11 1545.84 1390.26 1534.69 1395.35L1501.4 1409.66C1495.46 1412 1491.85 1415.08 1490.56 1418.91 1489.27 1422.73 1488.75 1428.91 1489.01 1437.44L1447.52 1437.44C1447.52 1434.91 1447.52 1431.78 1447.52 1428.05 1447.52 1424.32 1447.52 1421.12 1447.52 1418.46 1447.41 1411.85 1448.67 1405.61 1451.3 1399.75 1453.93 1393.9 1458.63 1389.31 1465.38 1386L1509.66 1365.37C1514.48 1363.07 1517.64 1360.17 1519.16 1356.67 1520.67 1353.17 1521.36 1348.83 1521.22 1343.64 1521.18 1339.54 1520.58 1336.25 1519.43 1333.77 1518.29 1331.29 1516.86 1329.44 1515.17 1328.24 1511.91 1325.72 1507.47 1324.15 1501.85 1323.53 1496.23 1322.9 1488.28 1322.64 1478.02 1322.73 1466.97 1322.58 1458.56 1323.07 1452.78 1324.22 1447 1325.37 1443.08 1328.11 1441.03 1332.43 1438.97 1336.76 1438.01 1343.61 1438.14 1352.99L1438.14 1357.12 1396.1 1357.12 1396.1 1350.79C1395.69 1339.33 1396.71 1328.09 1399.15 1317.07 1401.6 1306.06 1407.91 1297.23 1418.08 1290.59 1423.44 1287.62 1429.73 1285.49 1436.97 1284.21 1444.2 1282.92 1451.56 1282.13 1459.04 1281.85 1466.52 1281.58 1473.31 1281.46 1479.4 1281.52 1482.12 1281.46 1484.87 1281.45 1487.65 1281.5ZM1207.65 1281.5C1216 1281.64 1224.62 1282.25 1233.51 1283.34 1245.36 1284.79 1255.9 1288.49 1265.13 1294.43 1273.08 1300.32 1278.12 1307.44 1280.24 1315.8 1282.36 1324.16 1283.27 1333.07 1282.99 1342.54 1283.23 1354.23 1281.37 1364.68 1277.39 1373.9 1273.41 1383.11 1265.84 1390.26 1254.69 1395.35L1221.4 1409.66C1215.46 1412 1211.85 1415.08 1210.56 1418.91 1209.27 1422.73 1208.75 1428.91 1209.01 1437.44L1167.52 1437.44C1167.52 1434.91 1167.52 1431.78 1167.52 1428.05 1167.52 1424.32 1167.52 1421.12 1167.52 1418.46 1167.41 1411.85 1168.67 1405.61 1171.3 1399.75 1173.93 1393.9 1178.63 1389.31 1185.38 1386L1229.66 1365.37C1234.48 1363.07 1237.64 1360.17 1239.16 1356.67 1240.67 1353.17 1241.36 1348.83 1241.22 1343.64 1241.18 1339.54 1240.58 1336.25 1239.43 1333.77 1238.29 1331.29 1236.86 1329.44 1235.17 1328.24 1231.91 1325.72 1227.47 1324.15 1221.85 1323.53 1216.23 1322.9 1208.28 1322.64 1198.02 1322.73 1186.97 1322.58 1178.56 1323.07 1172.78 1324.22 1167 1325.37 1163.08 1328.11 1161.03 1332.43 1158.97 1336.76 1158.01 1343.61 1158.14 1352.99L1158.14 1357.12 1116.1 1357.12 1116.1 1350.79C1115.69 1339.33 1116.71 1328.09 1119.15 1317.07 1121.6 1306.06 1127.91 1297.23 1138.08 1290.59 1143.44 1287.62 1149.73 1285.49 1156.97 1284.21 1164.2 1282.92 1171.56 1282.13 1179.04 1281.85 1186.52 1281.58 1193.31 1281.46 1199.4 1281.52 1202.12 1281.46 1204.87 1281.45 1207.65 1281.5Z" stroke="#FFFFFF" stroke-width="5" stroke-linejoin="round" stroke-miterlimit="10" fill="#7030A0" fill-rule="evenodd"/><text fill="#000000" fill-opacity="0" font-family="Arial,Arial_MSFontService,sans-serif" font-size="221.462" x="1116.01" y="1475.25">? ? ?        2  0</text><path d="M1726.7 1787.24 1769.84 1787.24 1769.84 1830.66 1726.7 1830.66ZM1446.7 1787.24 1489.84 1787.24 1489.84 1830.66 1446.7 1830.66ZM1166.7 1787.24 1209.84 1787.24 1209.84 1830.66 1166.7 1830.66ZM2642.37 1613.99 2731.71 1613.99 2731.71 1830.66 2686.37 1830.66 2686.37 1655.21 2642.37 1655.21ZM3107.65 1611.79C3125.48 1611.44 3141.72 1612.58 3156.36 1615.2 3171.01 1617.83 3182.72 1624.08 3191.49 1633.95 3200.26 1643.81 3204.76 1659.43 3204.99 1680.79 3205.14 1689.4 3204.21 1698.11 3202.21 1706.92 3200.2 1715.74 3196.18 1723.35 3190.15 1729.75 3184.96 1734.77 3178.44 1738.97 3170.6 1742.34 3162.76 1745.71 3155.08 1747.84 3147.54 1748.73L3079.87 1756.99C3076.88 1757.38 3073.37 1758.1 3069.35 1759.15 3065.33 1760.2 3062.23 1761.68 3060.06 1763.59 3058.01 1765.84 3056.48 1768.83 3055.49 1772.56 3054.5 1776.29 3054.01 1779.63 3054.01 1782.57L3054.01 1789.44 3203.61 1789.44 3203.61 1830.66 3008.95 1830.66 3008.95 1792.19C3008.73 1782 3009.51 1772.26 3011.28 1762.97 3013.06 1753.67 3017.13 1744.89 3023.51 1736.63 3028.34 1730.77 3034.28 1726.33 3041.34 1723.29 3048.4 1720.25 3055.65 1718.28 3063.09 1717.38L3133.51 1709.4C3142.93 1708.57 3149.75 1706.31 3153.97 1702.62 3158.2 1698.94 3160.27 1692.21 3160.2 1682.44 3160.32 1677.15 3159.52 1672.33 3157.79 1668 3156.06 1663.67 3152.64 1660.23 3147.54 1657.68 3144.44 1656.33 3140.25 1655.31 3134.98 1654.64 3129.71 1653.97 3124.36 1653.52 3118.93 1653.3 3113.51 1653.09 3109.01 1652.99 3105.45 1653.01 3091.45 1652.91 3081.01 1653.84 3074.15 1655.8 3067.28 1657.76 3062.75 1661.34 3060.56 1666.54 3058.38 1671.74 3057.29 1679.15 3057.31 1688.77L3012.79 1688.77C3012.56 1677.89 3013.37 1667.26 3015.2 1656.9 3017.03 1646.54 3022.09 1637.37 3030.38 1629.38 3036.69 1623.97 3044.35 1620.01 3053.34 1617.49 3062.33 1614.98 3071.62 1613.38 3081.2 1612.69 3090.77 1612 3099.59 1611.71 3107.65 1611.79ZM1767.65 1611.5C1776 1611.64 1784.62 1612.25 1793.51 1613.34 1805.36 1614.79 1815.9 1618.49 1825.13 1624.43 1833.08 1630.32 1838.12 1637.44 1840.24 1645.8 1842.36 1654.16 1843.27 1663.07 1842.99 1672.54 1843.23 1684.23 1841.37 1694.68 1837.39 1703.9 1833.41 1713.11 1825.84 1720.26 1814.69 1725.35L1781.4 1739.66C1775.46 1742 1771.85 1745.08 1770.56 1748.91 1769.27 1752.73 1768.75 1758.91 1769.01 1767.44L1727.52 1767.44C1727.52 1764.91 1727.52 1761.78 1727.52 1758.05 1727.52 1754.32 1727.52 1751.12 1727.52 1748.46 1727.41 1741.85 1728.67 1735.61 1731.3 1729.75 1733.93 1723.9 1738.63 1719.31 1745.38 1716L1789.66 1695.37C1794.48 1693.07 1797.64 1690.17 1799.16 1686.67 1800.67 1683.17 1801.36 1678.83 1801.22 1673.64 1801.18 1669.54 1800.58 1666.25 1799.43 1663.77 1798.29 1661.29 1796.86 1659.44 1795.17 1658.24 1791.91 1655.72 1787.47 1654.15 1781.85 1653.53 1776.23 1652.9 1768.28 1652.64 1758.02 1652.73 1746.97 1652.58 1738.56 1653.07 1732.78 1654.22 1727 1655.37 1723.08 1658.11 1721.03 1662.43 1718.97 1666.76 1718.01 1673.61 1718.14 1682.99L1718.14 1687.12 1676.1 1687.12 1676.1 1680.79C1675.69 1669.33 1676.71 1658.09 1679.15 1647.07 1681.6 1636.06 1687.91 1627.23 1698.08 1620.59 1703.44 1617.62 1709.73 1615.49 1716.97 1614.21 1724.2 1612.92 1731.56 1612.13 1739.04 1611.85 1746.52 1611.58 1753.31 1611.46 1759.4 1611.52 1762.12 1611.46 1764.87 1611.45 1767.65 1611.5ZM1487.65 1611.5C1496 1611.64 1504.62 1612.25 1513.51 1613.34 1525.36 1614.79 1535.9 1618.49 1545.13 1624.43 1553.08 1630.32 1558.12 1637.44 1560.24 1645.8 1562.36 1654.16 1563.27 1663.07 1562.99 1672.54 1563.23 1684.23 1561.37 1694.68 1557.39 1703.9 1553.41 1713.11 1545.84 1720.26 1534.69 1725.35L1501.4 1739.66C1495.46 1742 1491.85 1745.08 1490.56 1748.91 1489.27 1752.73 1488.75 1758.91 1489.01 1767.44L1447.52 1767.44C1447.52 1764.91 1447.52 1761.78 1447.52 1758.05 1447.52 1754.32 1447.52 1751.12 1447.52 1748.46 1447.41 1741.85 1448.67 1735.61 1451.3 1729.75 1453.93 1723.9 1458.63 1719.31 1465.38 1716L1509.66 1695.37C1514.48 1693.07 1517.64 1690.17 1519.16 1686.67 1520.67 1683.17 1521.36 1678.83 1521.22 1673.64 1521.18 1669.54 1520.58 1666.25 1519.43 1663.77 1518.29 1661.29 1516.86 1659.44 1515.17 1658.24 1511.91 1655.72 1507.47 1654.15 1501.85 1653.53 1496.23 1652.9 1488.28 1652.64 1478.02 1652.73 1466.97 1652.58 1458.56 1653.07 1452.78 1654.22 1447 1655.37 1443.08 1658.11 1441.03 1662.43 1438.97 1666.76 1438.01 1673.61 1438.14 1682.99L1438.14 1687.12 1396.1 1687.12 1396.1 1680.79C1395.69 1669.33 1396.71 1658.09 1399.15 1647.07 1401.6 1636.06 1407.91 1627.23 1418.08 1620.59 1423.44 1617.62 1429.73 1615.49 1436.97 1614.21 1444.2 1612.92 1451.56 1612.13 1459.04 1611.85 1466.52 1611.58 1473.31 1611.46 1479.4 1611.52 1482.12 1611.46 1484.87 1611.45 1487.65 1611.5ZM1207.65 1611.5C1216 1611.64 1224.62 1612.25 1233.51 1613.34 1245.36 1614.79 1255.9 1618.49 1265.13 1624.43 1273.08 1630.32 1278.12 1637.44 1280.24 1645.8 1282.36 1654.16 1283.27 1663.07 1282.99 1672.54 1283.23 1684.23 1281.37 1694.68 1277.39 1703.9 1273.41 1713.11 1265.84 1720.26 1254.69 1725.35L1221.4 1739.66C1215.46 1742 1211.85 1745.08 1210.56 1748.91 1209.27 1752.73 1208.75 1758.91 1209.01 1767.44L1167.52 1767.44C1167.52 1764.91 1167.52 1761.78 1167.52 1758.05 1167.52 1754.32 1167.52 1751.12 1167.52 1748.46 1167.41 1741.85 1168.67 1735.61 1171.3 1729.75 1173.93 1723.9 1178.63 1719.31 1185.38 1716L1229.66 1695.37C1234.48 1693.07 1237.64 1690.17 1239.16 1686.67 1240.67 1683.17 1241.36 1678.83 1241.22 1673.64 1241.18 1669.54 1240.58 1666.25 1239.43 1663.77 1238.29 1661.29 1236.86 1659.44 1235.17 1658.24 1231.91 1655.72 1227.47 1654.15 1221.85 1653.53 1216.23 1652.9 1208.28 1652.64 1198.02 1652.73 1186.97 1652.58 1178.56 1653.07 1172.78 1654.22 1167 1655.37 1163.08 1658.11 1161.03 1662.43 1158.97 1666.76 1158.01 1673.61 1158.14 1682.99L1158.14 1687.12 1116.1 1687.12 1116.1 1680.79C1115.69 1669.33 1116.71 1658.09 1119.15 1647.07 1121.6 1636.06 1127.91 1627.23 1138.08 1620.59 1143.44 1617.62 1149.73 1615.49 1156.97 1614.21 1164.2 1612.92 1171.56 1612.13 1179.04 1611.85 1186.52 1611.58 1193.31 1611.46 1199.4 1611.52 1202.12 1611.46 1204.87 1611.45 1207.65 1611.5Z" stroke="#FFFFFF" stroke-width="5" stroke-linejoin="round" stroke-miterlimit="10" fill="#C00000" fill-rule="evenodd"/><text fill="#000000" fill-opacity="0" font-family="Arial,Arial_MSFontService,sans-serif" font-size="219.19" x="1116.01" y="1803.26">? ? ?        1  2</text><path d="M1726.7 2117.24 1769.84 2117.24 1769.84 2160.66 1726.7 2160.66ZM1446.7 2117.24 1489.84 2117.24 1489.84 2160.66 1446.7 2160.66ZM1166.7 2117.24 1209.84 2117.24 1209.84 2160.66 1166.7 2160.66ZM3117.39 1983C3115.59 1982.96 3113.81 1982.96 3112.06 1983.01L3101.33 1983.01C3094.19 1982.83 3086.6 1983.33 3078.56 1984.52 3070.53 1985.71 3064.45 1988.69 3060.34 1993.46 3057.91 1997.06 3056.17 2002.61 3055.11 2010.13 3054.06 2017.65 3053.42 2025.36 3053.19 2033.28 3052.96 2041.19 3052.87 2047.54 3052.91 2052.33 3052.9 2058.21 3052.99 2064.4 3053.19 2070.89 3053.38 2077.39 3053.75 2083.58 3054.29 2089.46 3054.63 2093.31 3055.19 2097.03 3055.97 2100.6 3056.76 2104.18 3058.21 2107.62 3060.34 2110.92 3062.38 2113.78 3065.11 2115.96 3068.52 2117.45 3071.94 2118.94 3075.35 2119.88 3078.77 2120.27 3083.87 2120.81 3089.01 2121.17 3094.18 2121.37 3099.35 2121.56 3104.48 2121.66 3109.58 2121.64 3117.63 2121.85 3125.74 2121.37 3133.89 2120.2 3142.05 2119.03 3148.16 2115.94 3152.22 2110.92 3154.48 2107.36 3156.14 2102.13 3157.2 2095.22 3158.27 2088.31 3158.95 2081.26 3159.25 2074.08 3159.55 2066.89 3159.68 2061.11 3159.65 2056.73 3159.65 2050.33 3159.51 2043.32 3159.23 2035.69 3158.96 2028.05 3158.55 2021.04 3158 2014.64 3157.65 2011.02 3157.1 2007.4 3156.35 2003.78 3155.59 2000.16 3154.21 1996.81 3152.22 1993.74 3148.24 1988.84 3142.3 1985.78 3134.41 1984.56 3128.48 1983.64 3122.81 1983.12 3117.39 1983ZM2699 1941.79C2706.61 1941.71 2715.06 1941.91 2724.34 1942.37 2733.63 1942.84 2742.68 1944.07 2751.51 1946.07 2760.33 1948.06 2767.85 1951.31 2774.08 1955.81 2781.18 1961.49 2786.35 1968.54 2789.6 1976.97 2792.86 1985.4 2794.46 1994.11 2794.41 2003.1 2794.51 2013.08 2792.46 2022.08 2788.26 2030.09 2784.07 2038.11 2777.14 2043.87 2767.48 2047.38 2773.65 2049.75 2778.9 2052.77 2783.22 2056.45 2787.53 2060.12 2790.99 2065.07 2793.59 2071.29 2795.23 2075.57 2796.42 2080 2797.16 2084.56 2797.91 2089.13 2798.27 2093.69 2798.26 2098.25 2798.34 2107.1 2796.95 2115.75 2794.11 2124.21 2791.26 2132.67 2786.51 2139.88 2779.85 2145.82 2773.2 2151.31 2765.35 2155.27 2756.3 2157.69 2747.26 2160.11 2737.94 2161.61 2728.34 2162.17 2718.75 2162.73 2709.79 2162.96 2701.48 2162.86 2693.64 2162.87 2685.8 2162.64 2677.96 2162.17 2670.12 2161.7 2662.28 2160.92 2654.44 2159.84 2646.34 2158.82 2638.28 2156.6 2630.25 2153.17 2622.23 2149.75 2615.81 2144.64 2611.02 2137.86 2606.25 2130.13 2603.27 2121.53 2602.08 2112.08 2600.89 2102.62 2600.39 2093.34 2600.57 2084.22L2645.92 2084.22C2645.47 2095.07 2646.51 2103.18 2649.04 2108.53 2651.57 2113.88 2657.16 2117.39 2665.8 2119.08 2674.44 2120.76 2687.71 2121.52 2705.61 2121.37 2712.43 2121.53 2719.45 2121.18 2726.68 2120.31 2733.9 2119.44 2740.03 2117.09 2745.06 2113.26 2750.08 2109.42 2752.7 2103.14 2752.92 2094.4 2752.8 2083.42 2749.82 2076.15 2743.98 2072.59 2738.15 2069.04 2730.22 2067.41 2720.19 2067.71L2675.07 2067.71 2675.07 2031.44 2720.19 2031.44C2729 2031.75 2736.07 2030.45 2741.4 2027.52 2746.74 2024.6 2749.48 2018.2 2749.62 2008.33 2749.66 2004.04 2748.89 2000.23 2747.32 1996.87 2745.74 1993.52 2743.12 1990.73 2739.44 1988.51 2735.15 1986.14 2729.16 1984.69 2721.49 1984.18 2713.83 1983.66 2704.68 1983.46 2694.05 1983.56 2680.43 1983.55 2670.47 1984.67 2664.18 1986.92 2657.88 1989.18 2653.9 1992.62 2652.22 1997.26 2650.54 2001.9 2649.81 2007.79 2650.04 2014.93L2604.97 2014.93C2604.99 2006.73 2605.71 1998.57 2607.14 1990.44 2608.56 1982.32 2611.41 1974.71 2615.69 1967.62 2620.29 1960.46 2625.99 1955.14 2632.8 1951.69 2639.6 1948.23 2647.09 1945.94 2655.26 1944.82 2662.55 1943.73 2669.84 1942.95 2677.13 1942.48 2684.42 1942.01 2691.71 1941.78 2699 1941.79ZM3096.5 1941.75C3100.07 1941.7 3103.7 1941.72 3107.38 1941.79 3116.53 1941.65 3126.17 1941.93 3136.3 1942.64 3146.43 1943.34 3156.09 1945.31 3165.28 1948.55 3174.46 1951.79 3182.2 1957.14 3188.5 1964.6 3193.81 1971.53 3197.63 1980.23 3199.98 1990.7 3202.33 2001.16 3203.77 2011.9 3204.32 2022.92 3204.86 2033.93 3205.08 2043.74 3204.99 2052.33 3205.07 2063.27 3204.7 2074.74 3203.85 2086.74 3203.01 2098.75 3201.19 2110.02 3198.39 2120.54 3197.02 2125.67 3194.95 2130.53 3192.18 2135.11 3189.4 2139.69 3185.88 2143.72 3181.63 2147.2 3171.56 2154.58 3159.89 2159.12 3146.61 2160.8 3133.33 2162.48 3119.52 2163.17 3105.18 2162.86 3096.03 2163 3086.39 2162.72 3076.26 2162.01 3066.12 2161.31 3056.47 2159.34 3047.28 2156.1 3038.1 2152.86 3030.36 2147.51 3024.06 2140.05 3018.84 2133.12 3015.05 2124.42 3012.7 2113.96 3010.35 2103.49 3008.88 2092.75 3008.3 2081.74 3007.72 2070.72 3007.48 2060.92 3007.57 2052.33 3007.49 2041.28 3007.86 2029.81 3008.71 2017.91 3009.55 2006.01 3011.37 1994.74 3014.17 1984.11 3015.67 1978.98 3017.82 1974.13 3020.62 1969.55 3023.43 1964.97 3026.96 1960.94 3031.2 1957.46 3041.09 1950.07 3052.58 1945.54 3065.67 1943.85 3075.49 1942.59 3085.77 1941.89 3096.5 1941.75ZM1767.65 1941.5C1776 1941.64 1784.62 1942.25 1793.51 1943.34 1805.36 1944.79 1815.9 1948.49 1825.13 1954.43 1833.08 1960.32 1838.12 1967.44 1840.24 1975.8 1842.36 1984.16 1843.27 1993.07 1842.99 2002.54 1843.23 2014.23 1841.37 2024.68 1837.39 2033.9 1833.41 2043.11 1825.84 2050.26 1814.69 2055.35L1781.4 2069.66C1775.46 2072 1771.85 2075.08 1770.56 2078.91 1769.27 2082.73 1768.75 2088.91 1769.01 2097.44L1727.52 2097.44C1727.52 2094.91 1727.52 2091.78 1727.52 2088.05 1727.52 2084.32 1727.52 2081.12 1727.52 2078.46 1727.41 2071.85 1728.67 2065.61 1731.3 2059.75 1733.93 2053.9 1738.63 2049.31 1745.38 2046L1789.66 2025.37C1794.48 2023.07 1797.64 2020.17 1799.16 2016.67 1800.67 2013.17 1801.36 2008.83 1801.22 2003.64 1801.18 1999.54 1800.58 1996.25 1799.43 1993.77 1798.29 1991.29 1796.86 1989.44 1795.17 1988.24 1791.91 1985.72 1787.47 1984.15 1781.85 1983.53 1776.23 1982.9 1768.28 1982.64 1758.02 1982.73 1746.97 1982.58 1738.56 1983.07 1732.78 1984.22 1727 1985.37 1723.08 1988.11 1721.03 1992.43 1718.97 1996.76 1718.01 2003.61 1718.14 2012.99L1718.14 2017.12 1676.1 2017.12 1676.1 2010.79C1675.69 1999.32 1676.71 1988.09 1679.15 1977.07 1681.6 1966.06 1687.91 1957.23 1698.08 1950.59 1703.44 1947.62 1709.73 1945.49 1716.97 1944.21 1724.2 1942.92 1731.56 1942.13 1739.04 1941.85 1746.52 1941.57 1753.31 1941.46 1759.4 1941.52 1762.12 1941.46 1764.87 1941.45 1767.65 1941.5ZM1487.65 1941.5C1496 1941.64 1504.62 1942.25 1513.51 1943.34 1525.36 1944.79 1535.9 1948.49 1545.13 1954.43 1553.08 1960.32 1558.12 1967.44 1560.24 1975.8 1562.36 1984.16 1563.27 1993.07 1562.99 2002.54 1563.23 2014.23 1561.37 2024.68 1557.39 2033.9 1553.41 2043.11 1545.84 2050.26 1534.69 2055.35L1501.4 2069.66C1495.46 2072 1491.85 2075.08 1490.56 2078.91 1489.27 2082.73 1488.75 2088.91 1489.01 2097.44L1447.52 2097.44C1447.52 2094.91 1447.52 2091.78 1447.52 2088.05 1447.52 2084.32 1447.52 2081.12 1447.52 2078.46 1447.41 2071.85 1448.67 2065.61 1451.3 2059.75 1453.93 2053.9 1458.63 2049.31 1465.38 2046L1509.66 2025.37C1514.48 2023.07 1517.64 2020.17 1519.16 2016.67 1520.67 2013.17 1521.36 2008.83 1521.22 2003.64 1521.18 1999.54 1520.58 1996.25 1519.43 1993.77 1518.29 1991.29 1516.86 1989.44 1515.17 1988.24 1511.91 1985.72 1507.47 1984.15 1501.85 1983.53 1496.23 1982.9 1488.28 1982.64 1478.02 1982.73 1466.97 1982.58 1458.56 1983.07 1452.78 1984.22 1447 1985.37 1443.08 1988.11 1441.03 1992.43 1438.97 1996.76 1438.01 2003.61 1438.14 2012.99L1438.14 2017.12 1396.1 2017.12 1396.1 2010.79C1395.69 1999.32 1396.71 1988.09 1399.15 1977.07 1401.6 1966.06 1407.91 1957.23 1418.08 1950.59 1423.44 1947.62 1429.73 1945.49 1436.97 1944.21 1444.2 1942.92 1451.56 1942.13 1459.04 1941.85 1466.52 1941.57 1473.31 1941.46 1479.4 1941.52 1482.12 1941.46 1484.87 1941.45 1487.65 1941.5ZM1207.65 1941.5C1216 1941.64 1224.62 1942.25 1233.51 1943.34 1245.36 1944.79 1255.9 1948.49 1265.13 1954.43 1273.08 1960.32 1278.12 1967.44 1280.24 1975.8 1282.36 1984.16 1283.27 1993.07 1282.99 2002.54 1283.23 2014.23 1281.37 2024.68 1277.39 2033.9 1273.41 2043.11 1265.84 2050.26 1254.69 2055.35L1221.4 2069.66C1215.46 2072 1211.85 2075.08 1210.56 2078.91 1209.27 2082.73 1208.75 2088.91 1209.01 2097.44L1167.52 2097.44C1167.52 2094.91 1167.52 2091.78 1167.52 2088.05 1167.52 2084.32 1167.52 2081.12 1167.52 2078.46 1167.41 2071.85 1168.67 2065.61 1171.3 2059.75 1173.93 2053.9 1178.63 2049.31 1185.38 2046L1229.66 2025.37C1234.48 2023.07 1237.64 2020.17 1239.16 2016.67 1240.67 2013.17 1241.36 2008.83 1241.22 2003.64 1241.18 1999.54 1240.58 1996.25 1239.43 1993.77 1238.29 1991.29 1236.86 1989.44 1235.17 1988.24 1231.91 1985.72 1227.47 1984.15 1221.85 1983.53 1216.23 1982.9 1208.28 1982.64 1198.02 1982.73 1186.97 1982.58 1178.56 1983.07 1172.78 1984.22 1167 1985.37 1163.08 1988.11 1161.03 1992.43 1158.97 1996.76 1158.01 2003.61 1158.14 2012.99L1158.14 2017.12 1116.1 2017.12 1116.1 2010.79C1115.69 1999.32 1116.71 1988.09 1119.15 1977.07 1121.6 1966.06 1127.91 1957.23 1138.08 1950.59 1143.44 1947.62 1149.73 1945.49 1156.97 1944.21 1164.2 1942.92 1171.56 1942.13 1179.04 1941.85 1186.52 1941.57 1193.31 1941.46 1199.4 1941.52 1202.12 1941.46 1204.87 1941.45 1207.65 1941.5Z" stroke="#FFFFFF" stroke-width="5" stroke-linejoin="round" stroke-miterlimit="10" fill="#0D0D0D" fill-rule="evenodd"/><text fill="#000000" fill-opacity="0" font-family="Arial,Arial_MSFontService,sans-serif" font-size="221.462" x="1116.01" y="2135.25">? ? ?        3  0</text></g></svg>