<svg width="4400" height="1544" xmlns="http://www.w3.org/2000/svg" xmlns:xlink="http://www.w3.org/1999/xlink" xml:space="preserve" overflow="hidden"><g transform="translate(3 -363)"><path d="M1230.59 633.486C1223.37 633.552 1215.95 633.916 1208.32 634.578 1198.16 635.46 1188.76 637.93 1180.11 641.987 1172.14 646.162 1167.11 651.824 1165.04 658.973 1162.96 666.121 1162.07 673.9 1162.37 682.309 1162.39 695.79 1165.44 705.611 1171.52 711.774 1177.6 717.937 1186.6 721.815 1198.5 723.408 1210.41 725.001 1225.1 725.683 1242.59 725.454 1252.28 725.765 1263.13 725.143 1275.14 723.589 1287.15 722.035 1296.59 717.683 1303.46 710.535 1306.77 706.057 1308.83 700.597 1309.66 694.154 1310.49 687.711 1310.85 681.746 1310.72 676.261 1310.87 666.071 1308.96 657.923 1304.98 651.815 1301 645.708 1294.04 641.088 1284.11 637.955 1277.55 636.006 1269.92 634.763 1261.24 634.225 1252.55 633.687 1244.72 633.452 1237.75 633.519 1235.39 633.475 1233 633.464 1230.59 633.486ZM821.731 461.892 952.655 461.892 952.655 779.405 886.211 779.405 886.211 522.291 821.731 522.291ZM1250.24 458.667C1260.08 458.802 1270.46 459.344 1281.38 460.293 1295.94 461.558 1309.8 464.635 1322.97 469.524 1336.14 474.413 1346.95 482.203 1355.42 492.893 1362.06 502.163 1366.39 511.916 1368.4 522.154 1370.42 532.391 1371.32 543.06 1371.12 554.161L1305.48 554.161C1305.63 549.623 1305.33 545.085 1304.58 540.548 1303.82 536.01 1301.7 532.077 1298.23 528.75 1295.02 525.994 1291.66 523.943 1288.15 522.599 1284.64 521.254 1280.87 520.212 1276.86 519.473 1270.62 518.313 1263.25 517.607 1254.74 517.355 1246.23 517.103 1238.96 517.002 1232.92 517.052 1221.7 516.632 1210.07 517.674 1198.05 520.179 1186.02 522.683 1176.81 529.17 1170.43 539.64 1166.16 548.455 1163.51 558.552 1162.47 569.931 1161.43 581.31 1160.99 591.903 1161.16 601.71 1165.27 597.692 1169.34 594.253 1173.35 591.392 1177.37 588.532 1182.04 586.2 1187.36 584.396 1197.78 580.856 1209.4 578.474 1222.23 577.249 1235.07 576.024 1247.09 575.454 1258.31 575.538 1273 575.286 1287.66 576.494 1302.3 579.162 1316.93 581.829 1330.48 587.466 1342.94 596.073 1355.47 605.543 1363.72 617.107 1367.7 630.764 1371.68 644.421 1373.49 658.914 1373.14 674.245 1373.11 704.76 1368.29 727.858 1358.67 743.536 1349.05 759.215 1334.79 769.745 1315.91 775.126 1297.02 780.506 1273.65 783.008 1245.82 782.629 1229.83 782.906 1212.73 782.353 1194.52 780.969 1176.31 779.584 1159.82 775.709 1145.05 769.342 1129.86 761.861 1118.72 750.869 1111.63 736.368 1104.54 721.866 1100.02 706.064 1098.07 688.96 1096.12 671.857 1095.27 655.661 1095.52 640.374 1095.3 615.413 1095.94 592.533 1097.43 571.734 1098.93 550.936 1102.58 532.172 1108.41 515.442 1111.64 506.432 1116.34 498.178 1122.5 490.678 1128.66 483.179 1136.18 477.341 1145.05 473.163 1159.28 466.746 1174.84 462.669 1191.75 460.933 1208.65 459.196 1224.93 458.441 1240.58 458.668 1243.74 458.622 1246.96 458.622 1250.24 458.667ZM1574.83 458.575C1597.18 458.599 1617.75 460.295 1636.52 463.665 1657.98 467.517 1675.14 476.673 1688 491.132 1700.86 505.592 1707.45 528.475 1707.78 559.78 1708 572.393 1706.65 585.158 1703.7 598.074 1700.76 610.991 1694.87 622.143 1686.03 631.532 1678.42 638.889 1668.88 645.036 1657.39 649.974 1645.9 654.912 1634.64 658.036 1623.6 659.346L1524.43 671.439C1520.04 672.019 1514.9 673.077 1509.01 674.614 1503.11 676.151 1498.57 678.317 1495.4 681.114 1492.39 684.414 1490.15 688.798 1488.7 694.265 1487.25 699.732 1486.52 704.62 1486.53 708.928L1486.53 719.006 1705.77 719.006 1705.77 779.405 1420.49 779.405 1420.49 723.033C1420.17 708.103 1421.31 693.828 1423.91 680.206 1426.51 666.585 1432.49 653.72 1441.83 641.61 1448.9 633.027 1457.61 626.51 1467.96 622.059 1478.3 617.608 1488.93 614.719 1499.83 613.392L1603.04 601.702C1616.83 600.485 1626.83 597.176 1633.02 591.776 1639.21 586.376 1642.25 576.517 1642.14 562.198 1642.32 554.438 1641.15 547.384 1638.61 541.035 1636.08 534.686 1631.07 529.647 1623.6 525.919 1619.05 523.931 1612.91 522.443 1605.19 521.455 1597.46 520.468 1589.62 519.816 1581.67 519.5 1573.72 519.184 1567.13 519.04 1561.92 519.067 1541.39 518.923 1526.1 520.287 1516.03 523.158 1505.97 526.029 1499.34 531.274 1496.13 538.893 1492.92 546.512 1491.34 557.371 1491.37 571.47L1426.13 571.47C1425.79 555.522 1426.97 539.955 1429.65 524.77 1432.34 509.585 1439.75 496.141 1451.9 484.439 1461.15 476.515 1472.36 470.708 1485.55 467.02 1498.73 463.331 1512.33 460.984 1526.37 459.98 1540.4 458.976 1553.33 458.539 1565.14 458.668 1568.41 458.603 1571.64 458.572 1574.83 458.575Z" stroke="#0D0D0D" stroke-width="3" stroke-linejoin="round" stroke-miterlimit="10" fill-rule="evenodd"/><text fill="#000000" fill-opacity="0" font-family="Arial,Arial_MSFontService,sans-serif" font-size="324.123" x="821.731" y="742.183">162</text><path d="M3142.41 515.785C3134.77 515.902 3126.55 516.543 3117.76 517.708 3106.02 519.262 3096.83 523.614 3090.19 530.763 3086.89 535.24 3084.82 540.7 3083.99 547.143 3083.16 553.587 3082.81 559.551 3082.93 565.036 3082.76 575.05 3084.62 583.148 3088.53 589.33 3092.43 595.513 3099.44 600.184 3109.54 603.342 3116.08 605.291 3123.66 606.535 3132.27 607.072 3140.88 607.61 3148.75 607.845 3155.9 607.778 3165.34 607.954 3175.08 607.601 3185.13 606.719 3195.17 605.837 3204.51 603.368 3213.15 599.31 3221.13 595.135 3226.22 589.473 3228.42 582.324 3230.61 575.176 3231.57 567.397 3231.29 558.988 3231.45 551.587 3230.32 544.716 3227.91 538.373 3225.5 532.031 3220.85 527.075 3213.95 523.505 3205.66 520.01 3195.23 517.826 3182.66 516.952 3170.09 516.079 3159.15 515.709 3149.85 515.843 3147.44 515.766 3144.96 515.746 3142.41 515.785ZM3404.73 461.892 3535.66 461.892 3535.66 779.405 3469.21 779.405 3469.21 522.291 3404.73 522.291ZM3139.96 458.649C3143.33 458.612 3146.76 458.618 3150.26 458.668 3165.7 458.441 3182.38 459.096 3200.29 460.631 3218.21 462.166 3234.18 465.941 3248.2 471.955 3263.52 479.571 3274.72 490.652 3281.8 505.198 3288.89 519.745 3293.38 535.547 3295.27 552.606 3297.17 569.664 3297.99 585.77 3297.73 600.923 3297.97 626.086 3297.4 649.067 3296.02 669.865 3294.65 690.664 3291.06 709.327 3285.25 725.855 3282.01 734.864 3277.31 743.119 3271.16 750.618 3265 758.118 3257.48 763.956 3248.61 768.134 3234.2 774.551 3218.59 778.628 3201.76 780.365 3184.93 782.101 3168.7 782.856 3153.08 782.629 3140.31 782.811 3126.65 782.269 3112.1 781.004 3097.55 779.739 3083.71 776.662 3070.6 771.773 3057.48 766.884 3046.7 759.094 3038.24 748.404 3031.6 739.134 3027.27 729.381 3025.25 719.144 3023.24 708.907 3022.33 698.238 3022.53 687.137L3088.17 687.137C3087.85 691.675 3088.1 696.212 3088.93 700.75 3089.76 705.288 3091.93 709.22 3095.43 712.548 3098.29 715.128 3101.54 717.127 3105.16 718.548 3108.78 719.968 3112.52 721.06 3116.39 721.825 3122.46 722.984 3129.78 723.69 3138.36 723.942 3146.95 724.194 3154.27 724.295 3160.34 724.245 3171.73 724.665 3183.41 723.623 3195.36 721.119 3207.31 718.615 3216.46 712.128 3222.82 701.658 3227.27 692.843 3229.97 682.746 3230.94 671.366 3231.9 659.987 3232.29 649.394 3232.09 639.587 3228.16 643.605 3224.14 647.045 3220.05 649.905 3215.96 652.766 3211.24 655.098 3205.89 656.901 3195.47 660.441 3183.86 662.823 3171.07 664.048 3158.28 665.273 3146.37 665.843 3135.34 665.759 3120.48 666.011 3105.76 664.803 3091.21 662.136 3076.65 659.468 3063.15 653.831 3050.72 645.224 3038.01 635.754 3029.71 624.19 3025.8 610.533 3021.9 596.876 3020.14 582.383 3020.52 567.052 3020.57 536.157 3025.57 512.881 3035.53 497.224 3045.48 481.568 3060.09 471.128 3079.36 465.903 3096.22 461.332 3116.42 458.914 3139.96 458.649ZM2841.83 458.575C2864.18 458.599 2884.75 460.295 2903.52 463.665 2924.98 467.517 2942.14 476.673 2955 491.132 2967.86 505.592 2974.45 528.475 2974.78 559.78 2975 572.393 2973.65 585.158 2970.7 598.074 2967.76 610.991 2961.87 622.143 2953.03 631.532 2945.42 638.889 2935.88 645.036 2924.39 649.974 2912.9 654.912 2901.64 658.036 2890.6 659.346L2791.43 671.439C2787.04 672.019 2781.9 673.077 2776.01 674.614 2770.11 676.151 2765.57 678.317 2762.4 681.114 2759.39 684.414 2757.15 688.798 2755.7 694.265 2754.25 699.732 2753.52 704.62 2753.53 708.928L2753.53 719.006 2972.77 719.006 2972.77 779.405 2687.49 779.405 2687.49 723.033C2687.17 708.103 2688.31 693.828 2690.91 680.206 2693.51 666.585 2699.49 653.72 2708.83 641.61 2715.9 633.027 2724.61 626.51 2734.96 622.059 2745.3 617.608 2755.93 614.719 2766.83 613.392L2870.04 601.702C2883.83 600.485 2893.83 597.176 2900.02 591.776 2906.21 586.376 2909.25 576.517 2909.14 562.198 2909.32 554.438 2908.15 547.384 2905.61 541.035 2903.08 534.686 2898.07 529.647 2890.6 525.919 2886.05 523.931 2879.91 522.443 2872.19 521.455 2864.46 520.468 2856.62 519.816 2848.67 519.5 2840.72 519.184 2834.14 519.04 2828.92 519.067 2808.39 518.923 2793.1 520.287 2783.03 523.158 2772.97 526.029 2766.34 531.274 2763.13 538.893 2759.92 546.512 2758.34 557.371 2758.37 571.47L2693.13 571.47C2692.79 555.522 2693.97 539.955 2696.65 524.77 2699.34 509.585 2706.75 496.141 2718.9 484.439 2728.15 476.515 2739.37 470.708 2752.55 467.02 2765.73 463.331 2779.33 460.984 2793.37 459.98 2807.41 458.976 2820.33 458.539 2832.14 458.668 2835.41 458.603 2838.64 458.572 2841.83 458.575Z" stroke="#0D0D0D" stroke-width="3" stroke-linejoin="round" stroke-miterlimit="10" fill-rule="evenodd"/><text fill="#000000" fill-opacity="0" font-family="Arial,Arial_MSFontService,sans-serif" font-size="324.093" x="2687.44" y="742.157">291</text><path d="M1230.02 1117.49C1222.8 1117.55 1215.37 1117.92 1207.75 1118.58 1197.59 1119.46 1188.18 1121.93 1179.53 1125.99 1171.56 1130.16 1166.54 1135.82 1164.47 1142.97 1162.39 1150.12 1161.5 1157.9 1161.79 1166.31 1161.81 1179.79 1164.87 1189.61 1170.95 1195.77 1177.03 1201.94 1186.02 1205.81 1197.93 1207.41 1209.83 1209 1224.53 1209.68 1242.02 1209.45 1251.71 1209.76 1262.56 1209.14 1274.57 1207.59 1286.58 1206.03 1296.02 1201.68 1302.89 1194.53 1306.19 1190.06 1308.26 1184.6 1309.09 1178.15 1309.92 1171.71 1310.27 1165.75 1310.15 1160.26 1310.3 1150.07 1308.39 1141.92 1304.4 1135.82 1300.42 1129.71 1293.47 1125.09 1283.54 1121.95 1276.97 1120.01 1269.35 1118.76 1260.66 1118.22 1251.98 1117.69 1244.15 1117.45 1237.18 1117.52 1234.82 1117.48 1232.43 1117.46 1230.02 1117.49ZM887.838 999.785C880.201 999.902 871.982 1000.54 863.182 1001.71 851.449 1003.26 842.261 1007.61 835.618 1014.76 832.317 1019.24 830.251 1024.7 829.42 1031.14 828.588 1037.59 828.236 1043.55 828.362 1049.04 828.185 1059.05 830.05 1067.15 833.955 1073.33 837.86 1079.51 844.865 1084.18 854.969 1087.34 861.511 1089.29 869.087 1090.53 877.695 1091.07 886.304 1091.61 894.182 1091.84 901.329 1091.78 910.769 1091.95 920.512 1091.6 930.556 1090.72 940.601 1089.84 949.94 1087.37 958.574 1083.31 966.561 1079.14 971.651 1073.47 973.843 1066.32 976.036 1059.18 976.993 1051.4 976.716 1042.99 976.875 1035.59 975.75 1028.72 973.339 1022.37 970.929 1016.03 966.276 1011.07 959.381 1007.5 951.091 1004.01 940.66 1001.83 928.087 1000.95 915.514 1000.08 904.579 999.709 895.282 999.843 892.865 999.766 890.384 999.746 887.838 999.785ZM1432.65 945.892 1693.11 945.892 1693.11 1006.29 1493.98 1006.29 1491.56 1071.21C1498.69 1065.65 1505.9 1061.46 1513.19 1058.62 1520.48 1055.79 1528.6 1053.81 1537.56 1052.68 1546.03 1051.69 1554.49 1050.96 1562.96 1050.52 1571.42 1050.08 1579.89 1049.86 1588.35 1049.87 1608.08 1049.23 1627.48 1051.31 1646.54 1056.11 1665.6 1060.9 1680.85 1072.25 1692.3 1090.13 1697.79 1099.99 1701.42 1111.39 1703.18 1124.33 1704.94 1137.27 1705.74 1149.39 1705.59 1160.67 1705.88 1174.67 1704.4 1188.59 1701.16 1202.44 1697.93 1216.28 1691.21 1228.28 1681.03 1238.44 1671.15 1247.54 1659.45 1254.09 1645.95 1258.1 1632.45 1262.11 1618.46 1264.57 1603.97 1265.5 1589.48 1266.42 1575.81 1266.8 1562.96 1266.63 1549.83 1266.83 1535.24 1266.43 1519.17 1265.42 1503.11 1264.41 1487.74 1261.6 1473.07 1256.97 1458.4 1252.33 1446.59 1244.68 1437.63 1234.01 1429.84 1223.39 1424.79 1211.71 1422.48 1198.96 1420.18 1186.22 1419.05 1173.32 1419.11 1160.26L1485.15 1160.26C1484.95 1166.42 1485.35 1172.45 1486.36 1178.36 1487.37 1184.26 1490.19 1189.39 1494.83 1193.73 1502.3 1199.72 1512.25 1203.37 1524.66 1204.67 1537.07 1205.97 1550.63 1206.49 1565.35 1206.23 1571.97 1206.34 1579.89 1206.12 1589.13 1205.57 1598.37 1205.03 1607.16 1203.49 1615.51 1200.97 1623.85 1198.45 1629.98 1194.29 1633.91 1188.49 1636.08 1184.24 1637.58 1178.53 1638.39 1171.35 1639.21 1164.18 1639.59 1158.06 1639.55 1153.01 1639.48 1138.62 1636.22 1128.24 1629.78 1121.87 1623.35 1115.5 1614.18 1111.57 1602.27 1110.09 1590.37 1108.6 1576.18 1107.99 1559.71 1108.25 1550.9 1108.14 1540.7 1108.66 1529.11 1109.81 1517.53 1110.96 1507.83 1113.4 1500.03 1117.12 1496.88 1118.69 1494.51 1120.59 1492.92 1122.82 1491.33 1125.04 1490.07 1127.85 1489.14 1131.23L1428.22 1131.23ZM1249.66 942.667C1259.5 942.802 1269.88 943.344 1280.8 944.293 1295.36 945.558 1309.23 948.635 1322.4 953.524 1335.56 958.413 1346.38 966.203 1354.84 976.893 1361.49 986.163 1365.82 995.916 1367.83 1006.15 1369.84 1016.39 1370.75 1027.06 1370.55 1038.16L1304.91 1038.16C1305.06 1033.62 1304.76 1029.09 1304 1024.55 1303.25 1020.01 1301.13 1016.08 1297.65 1012.75 1294.45 1009.99 1291.09 1007.94 1287.58 1006.6 1284.06 1005.25 1280.3 1004.21 1276.29 1003.47 1270.05 1002.31 1262.67 1001.61 1254.16 1001.35 1245.66 1001.1 1238.38 1001 1232.34 1001.05 1221.12 1000.63 1209.5 1001.67 1197.47 1004.18 1185.45 1006.68 1176.24 1013.17 1169.86 1023.64 1165.59 1032.45 1162.94 1042.55 1161.9 1053.93 1160.85 1065.31 1160.42 1075.9 1160.59 1085.71 1164.7 1081.69 1168.77 1078.25 1172.78 1075.39 1176.79 1072.53 1181.46 1070.2 1186.79 1068.4 1197.2 1064.86 1208.83 1062.47 1221.66 1061.25 1234.49 1060.02 1246.52 1059.45 1257.74 1059.54 1272.43 1059.29 1287.09 1060.49 1301.73 1063.16 1316.36 1065.83 1329.9 1071.47 1342.36 1080.07 1354.9 1089.54 1363.15 1101.11 1367.13 1114.76 1371.1 1128.42 1372.92 1142.91 1372.56 1158.24 1372.54 1188.76 1367.71 1211.86 1358.09 1227.54 1348.48 1243.21 1334.22 1253.74 1315.33 1259.13 1296.44 1264.51 1273.08 1267.01 1245.25 1266.63 1229.25 1266.91 1212.15 1266.35 1193.95 1264.97 1175.74 1263.58 1159.25 1259.71 1144.48 1253.34 1129.29 1245.86 1118.15 1234.87 1111.05 1220.37 1103.96 1205.87 1099.44 1190.06 1097.5 1172.96 1095.55 1155.86 1094.7 1139.66 1094.95 1124.37 1094.73 1099.41 1095.37 1076.53 1096.86 1055.73 1098.35 1034.94 1102.01 1016.17 1107.83 999.442 1111.07 990.432 1115.77 982.178 1121.93 974.678 1128.09 967.179 1135.6 961.34 1144.48 957.163 1158.71 950.746 1174.27 946.669 1191.18 944.932 1208.08 943.196 1224.36 942.441 1240 942.668 1243.16 942.622 1246.38 942.622 1249.66 942.667ZM885.391 942.649C888.754 942.612 892.185 942.618 895.684 942.668 911.13 942.441 927.809 943.096 945.722 944.631 963.635 946.166 979.604 949.941 993.63 955.955 1008.95 963.571 1020.15 974.652 1027.23 989.198 1034.32 1003.74 1038.81 1019.55 1040.7 1036.61 1042.59 1053.66 1043.41 1069.77 1043.16 1084.92 1043.4 1110.09 1042.83 1133.07 1041.45 1153.87 1040.07 1174.66 1036.48 1193.33 1030.68 1209.85 1027.44 1218.86 1022.74 1227.12 1016.58 1234.62 1010.43 1242.12 1002.91 1247.96 994.032 1252.13 979.629 1258.55 964.013 1262.63 947.183 1264.36 930.354 1266.1 914.128 1266.86 898.506 1266.63 885.74 1266.81 872.081 1266.27 857.529 1265 842.976 1263.74 829.142 1260.66 816.026 1255.77 802.91 1250.88 792.124 1243.09 783.667 1232.4 777.023 1223.13 772.694 1213.38 770.68 1203.14 768.667 1192.91 767.761 1182.24 767.962 1171.14L833.601 1171.14C833.273 1175.67 833.525 1180.21 834.357 1184.75 835.188 1189.29 837.355 1193.22 840.857 1196.55 843.721 1199.13 846.963 1201.13 850.583 1202.55 854.203 1203.97 857.949 1205.06 861.82 1205.82 867.884 1206.98 875.208 1207.69 883.792 1207.94 892.375 1208.19 899.699 1208.3 905.764 1208.24 917.161 1208.66 928.835 1207.62 940.786 1205.12 952.737 1202.61 961.892 1196.13 968.25 1185.66 972.693 1176.84 975.397 1166.75 976.363 1155.37 977.329 1143.99 977.715 1133.39 977.522 1123.59 973.583 1127.61 969.568 1131.04 965.478 1133.91 961.388 1136.77 956.668 1139.1 951.318 1140.9 940.895 1144.44 929.288 1146.82 916.497 1148.05 903.706 1149.27 891.797 1149.84 880.769 1149.76 865.903 1150.01 851.192 1148.8 836.634 1146.14 822.076 1143.47 808.58 1137.83 796.148 1129.22 783.438 1119.75 775.133 1108.19 771.232 1094.53 767.331 1080.88 765.569 1066.38 765.947 1051.05 765.996 1020.16 770.998 996.88 780.953 981.224 790.908 965.568 805.52 955.127 824.79 949.903 841.651 945.332 861.851 942.914 885.391 942.649Z" stroke="#0D0D0D" stroke-width="3" stroke-linejoin="round" stroke-miterlimit="10" fill-rule="evenodd"/><text fill="#000000" fill-opacity="0" font-family="Arial,Arial_MSFontService,sans-serif" font-size="324.075" x="765.897" y="1226.19">965</text><path d="M2700.8 945.892 2961.26 945.892 2961.26 1006.29 2762.13 1006.29 2759.71 1071.21C2766.84 1065.65 2774.05 1061.46 2781.33 1058.62 2788.62 1055.79 2796.74 1053.81 2805.71 1052.68 2814.17 1051.69 2822.64 1050.96 2831.1 1050.52 2839.57 1050.08 2848.03 1049.86 2856.5 1049.87 2876.23 1049.23 2895.62 1051.31 2914.68 1056.11 2933.74 1060.9 2949 1072.25 2960.45 1090.13 2965.94 1099.99 2969.56 1111.39 2971.32 1124.33 2973.08 1137.27 2973.89 1149.39 2973.74 1160.67 2974.02 1174.67 2972.55 1188.59 2969.31 1202.44 2966.07 1216.28 2959.36 1228.28 2949.18 1238.44 2939.29 1247.54 2927.6 1254.09 2914.1 1258.1 2900.6 1262.11 2886.6 1264.57 2872.11 1265.5 2857.62 1266.42 2843.95 1266.8 2831.1 1266.63 2817.98 1266.83 2803.38 1266.43 2787.32 1265.42 2771.25 1264.41 2755.89 1261.6 2741.22 1256.97 2726.54 1252.33 2714.73 1244.68 2705.78 1234.01 2697.99 1223.39 2692.94 1211.71 2690.63 1198.96 2688.32 1186.22 2687.2 1173.32 2687.26 1160.26L2753.3 1160.26C2753.1 1166.42 2753.5 1172.45 2754.51 1178.36 2755.52 1184.26 2758.34 1189.39 2762.97 1193.73 2770.45 1199.72 2780.39 1203.37 2792.8 1204.67 2805.21 1205.97 2818.78 1206.49 2833.5 1206.23 2840.11 1206.34 2848.04 1206.12 2857.28 1205.57 2866.52 1205.03 2875.31 1203.49 2883.65 1200.97 2892 1198.45 2898.13 1194.29 2902.05 1188.49 2904.23 1184.24 2905.72 1178.53 2906.54 1171.35 2907.35 1164.18 2907.74 1158.06 2907.7 1153.01 2907.62 1138.62 2904.37 1128.24 2897.93 1121.87 2891.49 1115.5 2882.32 1111.57 2870.42 1110.09 2858.52 1108.6 2844.33 1107.99 2827.86 1108.25 2819.04 1108.14 2808.84 1108.66 2797.26 1109.81 2785.67 1110.96 2775.98 1113.4 2768.18 1117.12 2765.03 1118.69 2762.66 1120.59 2761.07 1122.82 2759.48 1125.04 2758.22 1127.85 2757.29 1131.23L2696.36 1131.23Z" stroke="#0D0D0D" stroke-width="3" stroke-linejoin="round" stroke-miterlimit="10" fill-rule="evenodd"/><text fill="#000000" fill-opacity="0" font-family="Arial,Arial_MSFontService,sans-serif" font-size="320.788" x="2687.25" y="1226.58">5</text><path d="M3485.02 1117.49C3477.8 1117.55 3470.37 1117.92 3462.75 1118.58 3452.59 1119.46 3443.18 1121.93 3434.53 1125.99 3426.56 1130.16 3421.54 1135.82 3419.47 1142.97 3417.39 1150.12 3416.5 1157.9 3416.79 1166.31 3416.81 1179.79 3419.87 1189.61 3425.95 1195.77 3432.03 1201.94 3441.02 1205.81 3452.93 1207.41 3464.83 1209 3479.53 1209.68 3497.02 1209.45 3506.71 1209.76 3517.56 1209.14 3529.57 1207.59 3541.58 1206.03 3551.02 1201.68 3557.89 1194.53 3561.19 1190.06 3563.26 1184.6 3564.09 1178.15 3564.92 1171.71 3565.27 1165.75 3565.15 1160.26 3565.3 1150.07 3563.39 1141.92 3559.4 1135.82 3555.42 1129.71 3548.47 1125.09 3538.54 1121.95 3531.97 1120.01 3524.35 1118.76 3515.66 1118.22 3506.98 1117.69 3499.15 1117.45 3492.18 1117.52 3489.82 1117.48 3487.43 1117.46 3485.02 1117.49ZM3142.84 999.785C3135.2 999.902 3126.98 1000.54 3118.18 1001.71 3106.45 1003.26 3097.26 1007.61 3090.62 1014.76 3087.32 1019.24 3085.25 1024.7 3084.42 1031.14 3083.59 1037.59 3083.24 1043.55 3083.36 1049.04 3083.19 1059.05 3085.05 1067.15 3088.96 1073.33 3092.86 1079.51 3099.86 1084.18 3109.97 1087.34 3116.51 1089.29 3124.09 1090.53 3132.7 1091.07 3141.3 1091.61 3149.18 1091.84 3156.33 1091.78 3165.77 1091.95 3175.51 1091.6 3185.56 1090.72 3195.6 1089.84 3204.94 1087.37 3213.57 1083.31 3221.56 1079.14 3226.65 1073.47 3228.84 1066.32 3231.04 1059.18 3231.99 1051.4 3231.72 1042.99 3231.88 1035.59 3230.75 1028.72 3228.34 1022.37 3225.93 1016.03 3221.28 1011.07 3214.38 1007.5 3206.09 1004.01 3195.66 1001.83 3183.09 1000.95 3170.51 1000.08 3159.58 999.709 3150.28 999.843 3147.87 999.766 3145.38 999.746 3142.84 999.785ZM3504.66 942.667C3514.5 942.802 3524.88 943.344 3535.8 944.293 3550.36 945.558 3564.23 948.635 3577.4 953.524 3590.56 958.413 3601.38 966.203 3609.84 976.893 3616.49 986.163 3620.82 995.916 3622.83 1006.15 3624.84 1016.39 3625.75 1027.06 3625.55 1038.16L3559.91 1038.16C3560.06 1033.62 3559.76 1029.09 3559 1024.55 3558.25 1020.01 3556.13 1016.08 3552.65 1012.75 3549.45 1009.99 3546.09 1007.94 3542.57 1006.6 3539.06 1005.25 3535.3 1004.21 3531.29 1003.47 3525.05 1002.31 3517.67 1001.61 3509.16 1001.35 3500.66 1001.1 3493.38 1001 3487.34 1001.05 3476.12 1000.63 3464.5 1001.67 3452.47 1004.18 3440.45 1006.68 3431.24 1013.17 3424.86 1023.64 3420.59 1032.45 3417.94 1042.55 3416.9 1053.93 3415.85 1065.31 3415.42 1075.9 3415.59 1085.71 3419.7 1081.69 3423.77 1078.25 3427.78 1075.39 3431.79 1072.53 3436.46 1070.2 3441.79 1068.4 3452.2 1064.86 3463.83 1062.47 3476.66 1061.25 3489.49 1060.02 3501.52 1059.45 3512.74 1059.54 3527.43 1059.29 3542.09 1060.49 3556.73 1063.16 3571.36 1065.83 3584.9 1071.47 3597.36 1080.07 3609.9 1089.54 3618.15 1101.11 3622.13 1114.76 3626.1 1128.42 3627.92 1142.91 3627.56 1158.24 3627.54 1188.76 3622.71 1211.86 3613.09 1227.54 3603.48 1243.21 3589.22 1253.74 3570.33 1259.13 3551.44 1264.51 3528.08 1267.01 3500.25 1266.63 3484.25 1266.91 3467.15 1266.35 3448.95 1264.97 3430.74 1263.58 3414.25 1259.71 3399.48 1253.34 3384.29 1245.86 3373.15 1234.87 3366.05 1220.37 3358.96 1205.87 3354.44 1190.06 3352.5 1172.96 3350.55 1155.86 3349.7 1139.66 3349.95 1124.37 3349.73 1099.41 3350.37 1076.53 3351.86 1055.73 3353.35 1034.94 3357.01 1016.17 3362.83 999.442 3366.07 990.432 3370.77 982.178 3376.93 974.678 3383.09 967.179 3390.6 961.34 3399.48 957.163 3413.71 950.746 3429.27 946.669 3446.18 944.932 3463.08 943.196 3479.36 942.441 3495 942.668 3498.16 942.622 3501.38 942.622 3504.66 942.667ZM3140.39 942.649C3143.75 942.612 3147.19 942.618 3150.68 942.668 3166.13 942.441 3182.81 943.096 3200.72 944.631 3218.63 946.166 3234.6 949.941 3248.63 955.955 3263.95 963.571 3275.15 974.652 3282.23 989.198 3289.32 1003.74 3293.81 1019.55 3295.7 1036.61 3297.59 1053.66 3298.41 1069.77 3298.16 1084.92 3298.4 1110.09 3297.82 1133.07 3296.45 1153.87 3295.07 1174.66 3291.48 1193.33 3285.68 1209.85 3282.44 1218.86 3277.74 1227.12 3271.58 1234.62 3265.43 1242.12 3257.91 1247.96 3249.03 1252.13 3234.63 1258.55 3219.01 1262.63 3202.18 1264.36 3185.35 1266.1 3169.13 1266.86 3153.51 1266.63 3140.74 1266.81 3127.08 1266.27 3112.53 1265 3097.98 1263.74 3084.14 1260.66 3071.03 1255.77 3057.91 1250.88 3047.12 1243.09 3038.67 1232.4 3032.02 1223.13 3027.69 1213.38 3025.68 1203.14 3023.67 1192.91 3022.76 1182.24 3022.96 1171.14L3088.6 1171.14C3088.27 1175.67 3088.53 1180.21 3089.36 1184.75 3090.19 1189.29 3092.35 1193.22 3095.86 1196.55 3098.72 1199.13 3101.96 1201.13 3105.58 1202.55 3109.2 1203.97 3112.95 1205.06 3116.82 1205.82 3122.88 1206.98 3130.21 1207.69 3138.79 1207.94 3147.38 1208.19 3154.7 1208.3 3160.76 1208.24 3172.16 1208.66 3183.83 1207.62 3195.79 1205.12 3207.74 1202.61 3216.89 1196.13 3223.25 1185.66 3227.69 1176.84 3230.4 1166.75 3231.36 1155.37 3232.33 1143.99 3232.72 1133.39 3232.52 1123.59 3228.58 1127.61 3224.57 1131.04 3220.48 1133.91 3216.39 1136.77 3211.67 1139.1 3206.32 1140.9 3195.9 1144.44 3184.29 1146.82 3171.5 1148.05 3158.71 1149.27 3146.8 1149.84 3135.77 1149.76 3120.9 1150.01 3106.19 1148.8 3091.63 1146.14 3077.08 1143.47 3063.58 1137.83 3051.15 1129.22 3038.44 1119.75 3030.13 1108.19 3026.23 1094.53 3022.33 1080.88 3020.57 1066.38 3020.95 1051.05 3021 1020.16 3026 996.88 3035.95 981.224 3045.91 965.568 3060.52 955.127 3079.79 949.903 3096.65 945.332 3116.85 942.914 3140.39 942.649Z" stroke="#0D0D0D" stroke-width="3" stroke-linejoin="round" stroke-miterlimit="10" fill-rule="evenodd"/><text fill="#000000" fill-opacity="0" font-family="Arial,Arial_MSFontService,sans-serif" font-size="324.075" x="3020.9" y="1226.19">96</text><path d="M959.481 1645.52C955.776 1645.49 951.946 1645.5 947.99 1645.56 928.323 1645.32 912.472 1646.02 900.435 1647.65 888.399 1649.28 879.654 1653.26 874.202 1659.6 868.75 1665.93 866.067 1676.04 866.154 1689.92 866.054 1696.06 867.062 1701.72 869.178 1706.9 871.294 1712.09 875.124 1716.24 880.667 1719.35 885.726 1722 892.271 1723.92 900.301 1725.13 908.331 1726.34 916.518 1727.1 924.862 1727.42 933.206 1727.73 940.378 1727.87 946.377 1727.82 976.897 1728.36 998.095 1725.97 1009.97 1720.66 1021.85 1715.35 1027.52 1703.9 1027 1686.29 1026.9 1673.09 1023.57 1663.6 1017 1657.81 1010.43 1652.02 1001.24 1648.47 989.437 1647.16 980.581 1646.17 970.596 1645.63 959.481 1645.52ZM955.601 1520.51C952.752 1520.52 949.811 1520.56 946.779 1520.63 919.862 1520.07 900.629 1522 889.081 1526.43 877.533 1530.85 871.906 1541.15 872.199 1557.33 872.199 1569.07 875.111 1577.49 880.934 1582.58 886.757 1587.68 895.492 1590.78 907.138 1591.89 918.784 1593 933.342 1593.44 950.811 1593.22 977.72 1593.77 996.264 1591.66 1006.44 1586.92 1016.62 1582.17 1021.46 1571.5 1020.96 1554.91 1020.89 1539.36 1014.57 1529.62 1002.01 1525.67 991.015 1522.21 975.546 1520.5 955.601 1520.51ZM1587.66 1519.76C1580.02 1519.88 1571.8 1520.52 1563.01 1521.69 1551.27 1523.24 1542.08 1527.59 1535.44 1534.74 1532.14 1539.22 1530.07 1544.68 1529.24 1551.12 1528.41 1557.57 1528.06 1563.53 1528.18 1569.02 1528.01 1579.03 1529.87 1587.13 1533.78 1593.31 1537.68 1599.49 1544.69 1604.16 1554.79 1607.32 1561.33 1609.27 1568.91 1610.51 1577.52 1611.05 1586.13 1611.59 1594 1611.82 1601.15 1611.76 1610.59 1611.93 1620.33 1611.58 1630.38 1610.7 1640.42 1609.82 1649.76 1607.35 1658.4 1603.29 1666.38 1599.11 1671.47 1593.45 1673.67 1586.3 1675.86 1579.15 1676.82 1571.38 1676.54 1562.97 1676.7 1555.57 1675.57 1548.69 1673.16 1542.35 1670.75 1536.01 1666.1 1531.05 1659.2 1527.48 1650.91 1523.99 1640.48 1521.81 1627.91 1520.93 1615.34 1520.06 1604.4 1519.69 1595.1 1519.82 1592.69 1519.74 1590.21 1519.73 1587.66 1519.76ZM1191.98 1465.87 1322.91 1465.87 1322.91 1783.38 1256.46 1783.38 1256.46 1526.27 1191.98 1526.27ZM952.02 1462.65C964.184 1462.48 977.748 1462.99 992.714 1464.18 1007.68 1465.37 1022.02 1468.24 1035.73 1472.79 1049.43 1477.33 1060.48 1484.56 1068.88 1494.46 1075.06 1502.66 1079.51 1511.83 1082.22 1521.95 1084.93 1532.08 1086.25 1542.25 1086.19 1552.49 1086.36 1567.41 1083.41 1580.71 1077.33 1592.4 1071.26 1604.08 1061.06 1612.95 1046.73 1618.99 1063.59 1624.34 1075.38 1634.07 1082.12 1648.2 1088.86 1662.32 1092.09 1677.7 1091.83 1694.35 1092.02 1709.51 1089.33 1723.65 1083.78 1736.77 1078.23 1749.9 1068.7 1760.6 1055.19 1768.89 1044.15 1775.32 1032.8 1779.58 1021.15 1781.68 1009.5 1783.77 997.34 1785.01 984.674 1785.4 977.401 1785.8 970.078 1786.11 962.704 1786.31 955.33 1786.51 948.006 1786.61 940.733 1786.61 917.818 1787.05 895.796 1785.41 874.668 1781.67 853.541 1777.94 836.153 1769.46 822.505 1756.23 808.857 1743.01 801.796 1722.38 801.322 1694.35 801.188 1683.7 802.463 1673.15 805.147 1662.7 807.832 1652.25 812.731 1642.91 819.845 1634.69 823.453 1630.69 827.413 1627.42 831.725 1624.87 836.038 1622.33 840.804 1620.37 846.024 1618.99 831.712 1612.78 821.578 1603.85 815.622 1592.2 809.665 1580.54 806.779 1567.17 806.964 1552.08 806.83 1538.77 809.011 1526.09 813.508 1514.04 818.004 1502 825.622 1491.85 836.36 1483.58 846.561 1476.36 857.672 1471.48 869.691 1468.94 881.711 1466.4 893.835 1464.84 906.063 1464.26 921.382 1463.12 936.701 1462.58 952.02 1462.65ZM1585.21 1462.63C1588.58 1462.59 1592.01 1462.6 1595.51 1462.65 1610.95 1462.42 1627.63 1463.07 1645.54 1464.61 1663.46 1466.15 1679.43 1469.92 1693.45 1475.93 1708.77 1483.55 1719.97 1494.63 1727.05 1509.18 1734.14 1523.72 1738.63 1539.53 1740.52 1556.58 1742.42 1573.64 1743.24 1589.75 1742.98 1604.9 1743.22 1630.06 1742.65 1653.05 1741.27 1673.84 1739.9 1694.64 1736.31 1713.31 1730.5 1729.83 1727.26 1738.84 1722.56 1747.1 1716.41 1754.6 1710.25 1762.1 1702.73 1767.94 1693.86 1772.11 1679.45 1778.53 1663.84 1782.61 1647.01 1784.34 1630.18 1786.08 1613.95 1786.84 1598.33 1786.61 1585.56 1786.79 1571.9 1786.25 1557.35 1784.98 1542.8 1783.72 1528.96 1780.64 1515.85 1775.75 1502.73 1770.86 1491.95 1763.07 1483.49 1752.38 1476.85 1743.11 1472.52 1733.36 1470.5 1723.12 1468.49 1712.89 1467.58 1702.22 1467.78 1691.12L1533.42 1691.12C1533.1 1695.65 1533.35 1700.19 1534.18 1704.73 1535.01 1709.27 1537.18 1713.2 1540.68 1716.53 1543.54 1719.11 1546.79 1721.11 1550.41 1722.53 1554.03 1723.95 1557.77 1725.04 1561.64 1725.8 1567.71 1726.96 1575.03 1727.67 1583.61 1727.92 1592.2 1728.17 1599.52 1728.27 1605.59 1728.22 1616.98 1728.64 1628.66 1727.6 1640.61 1725.1 1652.56 1722.59 1661.71 1716.11 1668.07 1705.64 1672.52 1696.82 1675.22 1686.72 1676.19 1675.35 1677.15 1663.97 1677.54 1653.37 1677.34 1643.57 1673.41 1647.58 1669.39 1651.02 1665.3 1653.88 1661.21 1656.74 1656.49 1659.08 1651.14 1660.88 1640.72 1664.42 1629.11 1666.8 1616.32 1668.03 1603.53 1669.25 1591.62 1669.82 1580.59 1669.74 1565.73 1669.99 1551.01 1668.78 1536.46 1666.11 1521.9 1663.45 1508.4 1657.81 1495.97 1649.2 1483.26 1639.73 1474.96 1628.17 1471.05 1614.51 1467.15 1600.86 1465.39 1586.36 1465.77 1571.03 1465.82 1540.14 1470.82 1516.86 1480.78 1501.2 1490.73 1485.55 1505.34 1475.11 1524.61 1469.88 1541.47 1465.31 1561.67 1462.89 1585.21 1462.63Z" stroke="#0D0D0D" stroke-width="3" stroke-linejoin="round" stroke-miterlimit="10" fill-rule="evenodd"/><text fill="#000000" fill-opacity="0" font-family="Arial,Arial_MSFontService,sans-serif" font-size="324.076" x="801.312" y="1746.17">819</text><path d="M3408.5 1713.92 3477.53 1713.92 3477.53 1783.38 3408.5 1783.38ZM3106.5 1713.92 3175.53 1713.92 3175.53 1783.38 3106.5 1783.38ZM2805.5 1713.92 2874.53 1713.92 2874.53 1783.38 2805.5 1783.38ZM3474.03 1432.73C3487.39 1432.95 3501.18 1433.93 3515.4 1435.67 3534.36 1437.99 3551.23 1443.9 3565.99 1453.42 3578.72 1462.84 3586.78 1474.23 3590.17 1487.61 3593.56 1500.98 3595.03 1515.24 3594.57 1530.39 3594.96 1549.09 3591.98 1565.82 3585.61 1580.56 3579.24 1595.31 3567.14 1606.75 3549.29 1614.89L3496.03 1637.78C3486.53 1641.53 3480.75 1646.46 3478.69 1652.58 3476.62 1658.69 3475.8 1668.58 3476.21 1682.23L3409.82 1682.23C3409.82 1678.19 3409.82 1673.18 3409.82 1667.21 3409.82 1661.24 3409.82 1656.12 3409.82 1651.86 3409.64 1641.28 3411.66 1631.3 3415.87 1621.93 3420.08 1612.56 3427.59 1605.23 3438.4 1599.93L3509.24 1566.92C3516.95 1563.24 3522.02 1558.6 3524.44 1553 3526.86 1547.4 3527.96 1540.45 3527.74 1532.15 3527.67 1525.59 3526.72 1520.33 3524.88 1516.36 3523.04 1512.39 3520.77 1509.44 3518.05 1507.5 3512.85 1503.48 3505.75 1500.97 3496.75 1499.97 3487.75 1498.97 3475.04 1498.55 3458.62 1498.7 3440.94 1498.45 3427.48 1499.25 3418.23 1501.08 3408.98 1502.92 3402.72 1507.3 3399.43 1514.22 3396.14 1521.14 3394.6 1532.11 3394.81 1547.11L3394.81 1553.72 3327.54 1553.72 3327.54 1543.59C3326.89 1525.25 3328.52 1507.26 3332.43 1489.64 3336.34 1472.03 3346.44 1457.9 3362.71 1447.27 3371.29 1442.52 3381.36 1439.12 3392.94 1437.06 3404.51 1435 3416.29 1433.74 3428.25 1433.29 3440.22 1432.85 3451.08 1432.67 3460.82 1432.76 3465.18 1432.66 3469.58 1432.65 3474.03 1432.73ZM3172.03 1432.73C3185.39 1432.95 3199.18 1433.93 3213.4 1435.67 3232.36 1437.99 3249.23 1443.9 3263.99 1453.42 3276.72 1462.84 3284.78 1474.23 3288.17 1487.61 3291.56 1500.98 3293.03 1515.24 3292.57 1530.39 3292.96 1549.09 3289.98 1565.82 3283.61 1580.56 3277.24 1595.31 3265.14 1606.75 3247.29 1614.89L3194.03 1637.78C3184.53 1641.53 3178.75 1646.46 3176.69 1652.58 3174.62 1658.69 3173.8 1668.58 3174.21 1682.23L3107.82 1682.23C3107.82 1678.19 3107.82 1673.18 3107.82 1667.21 3107.82 1661.24 3107.82 1656.12 3107.82 1651.86 3107.64 1641.28 3109.66 1631.3 3113.87 1621.93 3118.08 1612.56 3125.59 1605.23 3136.4 1599.93L3207.24 1566.92C3214.95 1563.24 3220.02 1558.6 3222.44 1553 3224.86 1547.4 3225.96 1540.45 3225.74 1532.15 3225.67 1525.59 3224.72 1520.33 3222.88 1516.36 3221.04 1512.39 3218.77 1509.44 3216.05 1507.5 3210.85 1503.48 3203.75 1500.97 3194.75 1499.97 3185.75 1498.97 3173.04 1498.55 3156.62 1498.7 3138.94 1498.45 3125.48 1499.25 3116.23 1501.08 3106.98 1502.92 3100.72 1507.3 3097.43 1514.22 3094.14 1521.14 3092.6 1532.11 3092.81 1547.11L3092.81 1553.72 3025.54 1553.72 3025.54 1543.59C3024.89 1525.25 3026.52 1507.26 3030.43 1489.64 3034.34 1472.03 3044.44 1457.9 3060.71 1447.27 3069.29 1442.52 3079.36 1439.12 3090.94 1437.06 3102.51 1435 3114.29 1433.74 3126.25 1433.29 3138.22 1432.85 3149.08 1432.67 3158.82 1432.76 3163.18 1432.66 3167.58 1432.65 3172.03 1432.73ZM2871.03 1432.73C2884.39 1432.95 2898.18 1433.93 2912.4 1435.67 2931.36 1437.99 2948.23 1443.9 2962.99 1453.42 2975.72 1462.84 2983.78 1474.23 2987.17 1487.61 2990.56 1500.98 2992.03 1515.24 2991.57 1530.39 2991.96 1549.09 2988.98 1565.82 2982.61 1580.56 2976.24 1595.31 2964.14 1606.75 2946.29 1614.89L2893.03 1637.78C2883.53 1641.53 2877.75 1646.46 2875.69 1652.58 2873.62 1658.69 2872.8 1668.58 2873.21 1682.23L2806.82 1682.23C2806.82 1678.19 2806.82 1673.18 2806.82 1667.21 2806.82 1661.24 2806.82 1656.12 2806.82 1651.86 2806.64 1641.28 2808.66 1631.3 2812.87 1621.93 2817.08 1612.56 2824.59 1605.23 2835.4 1599.93L2906.24 1566.92C2913.95 1563.24 2919.02 1558.6 2921.44 1553 2923.86 1547.4 2924.96 1540.45 2924.74 1532.15 2924.67 1525.59 2923.72 1520.33 2921.88 1516.36 2920.04 1512.39 2917.77 1509.44 2915.05 1507.5 2909.85 1503.48 2902.75 1500.97 2893.75 1499.97 2884.75 1498.97 2872.04 1498.55 2855.62 1498.7 2837.94 1498.45 2824.48 1499.25 2815.23 1501.08 2805.98 1502.92 2799.72 1507.3 2796.43 1514.22 2793.14 1521.14 2791.6 1532.11 2791.81 1547.11L2791.81 1553.72 2724.54 1553.72 2724.54 1543.59C2723.89 1525.25 2725.52 1507.26 2729.43 1489.64 2733.35 1472.03 2743.44 1457.9 2759.71 1447.27 2768.29 1442.52 2778.36 1439.12 2789.94 1437.06 2801.51 1435 2813.29 1433.74 2825.25 1433.29 2837.22 1432.85 2848.08 1432.67 2857.82 1432.76 2862.18 1432.66 2866.58 1432.65 2871.03 1432.73Z" stroke="#000000" stroke-width="3" stroke-linejoin="round" stroke-miterlimit="10" fill="#0070C0" fill-rule="evenodd"/><text fill="#000000" fill-opacity="0" font-family="Arial,Arial_MSFontService,sans-serif" font-size="350.703" x="2724.4" y="1739.54">???</text><path d="M1960.5 613.25 2351 613.25 2351 568.5 2440.5 658 2351 747.5 2351 702.75 1960.5 702.75Z" stroke="#042433" stroke-width="6.875" stroke-miterlimit="8" fill="#0070C0" fill-rule="evenodd"/><path d="M1957.5 1084 2348.5 1084 2348.5 1039.5 2437.5 1128.5 2348.5 1217.5 2348.5 1173 1957.5 1173Z" stroke="#042433" stroke-width="6.875" stroke-miterlimit="8" fill="#0070C0" fill-rule="evenodd"/><path d="M1960.5 1554.25 2351 1554.25 2351 1509.5 2440.5 1599 2351 1688.5 2351 1643.75 1960.5 1643.75Z" stroke="#042433" stroke-width="6.875" stroke-miterlimit="8" fill="#0070C0" fill-rule="evenodd"/></g></svg>