<svg width="1638" height="1703" xmlns="http://www.w3.org/2000/svg" xmlns:xlink="http://www.w3.org/1999/xlink" xml:space="preserve" overflow="hidden"><g transform="translate(-1381 -421)"><path d="M1690.59 722.146C1682.7 722.218 1674.6 722.615 1666.27 723.338 1655.18 724.301 1644.91 726.997 1635.46 731.427 1626.76 735.985 1621.28 742.167 1619.01 749.972 1616.75 757.777 1615.78 766.27 1616.1 775.451 1616.12 790.169 1619.45 800.893 1626.09 807.621 1632.73 814.35 1642.55 818.584 1655.55 820.323 1668.55 822.062 1684.59 822.807 1703.69 822.557 1714.27 822.896 1726.12 822.218 1739.23 820.521 1752.34 818.824 1762.65 814.073 1770.15 806.268 1773.75 801.379 1776.01 795.418 1776.92 788.383 1777.82 781.348 1778.21 774.837 1778.07 768.847 1778.24 757.722 1776.15 748.826 1771.8 742.158 1767.45 735.49 1759.86 730.445 1749.02 727.024 1741.85 724.897 1733.52 723.539 1724.04 722.952 1714.56 722.365 1706.02 722.109 1698.4 722.182 1695.82 722.134 1693.22 722.122 1690.59 722.146ZM2044.15 534.797 2355.62 534.797 2355.62 601.622 2185.81 881.462 2099.14 881.462 2276.87 600.742 2044.15 600.742ZM1712.03 531.276C1722.78 531.424 1734.11 532.016 1746.03 533.052 1761.93 534.433 1777.07 537.792 1791.44 543.13 1805.82 548.468 1817.63 556.973 1826.87 568.644 1834.12 578.765 1838.85 589.414 1841.05 600.591 1843.25 611.769 1844.24 623.417 1844.02 635.537L1772.35 635.537C1772.52 630.583 1772.19 625.629 1771.36 620.674 1770.54 615.72 1768.23 611.426 1764.43 607.793 1760.93 604.784 1757.26 602.545 1753.43 601.078 1749.59 599.61 1745.48 598.472 1741.1 597.665 1734.29 596.398 1726.24 595.628 1716.95 595.352 1707.66 595.077 1699.72 594.967 1693.12 595.022 1680.87 594.563 1668.18 595.701 1655.05 598.435 1641.92 601.169 1631.87 608.252 1624.9 619.683 1620.24 629.308 1617.34 640.332 1616.21 652.755 1615.07 665.179 1614.59 676.745 1614.78 687.452 1619.27 683.065 1623.71 679.31 1628.09 676.187 1632.47 673.064 1637.57 670.518 1643.39 668.549 1654.76 664.684 1667.45 662.083 1681.46 660.745 1695.47 659.408 1708.6 658.785 1720.85 658.877 1736.89 658.602 1752.9 659.921 1768.88 662.833 1784.85 665.746 1799.64 671.901 1813.24 681.297 1826.93 691.637 1835.94 704.263 1840.28 719.173 1844.62 734.084 1846.6 749.908 1846.22 766.646 1846.19 799.964 1840.92 825.181 1830.42 842.3 1819.92 859.418 1804.35 870.914 1783.73 876.789 1763.11 882.664 1737.6 885.395 1707.21 884.982 1689.75 885.284 1671.08 884.68 1651.2 883.168 1631.32 881.657 1613.32 877.426 1597.19 870.475 1580.61 862.306 1568.44 850.306 1560.7 834.473 1552.96 818.64 1548.02 801.387 1545.9 782.713 1543.77 764.039 1542.84 746.357 1543.11 729.666 1542.87 702.413 1543.57 677.432 1545.2 654.724 1546.83 632.016 1550.82 611.529 1557.18 593.263 1560.72 583.427 1565.85 574.415 1572.57 566.227 1579.29 558.039 1587.5 551.664 1597.19 547.103 1612.72 540.096 1629.72 535.645 1648.18 533.75 1666.63 531.854 1684.4 531.03 1701.49 531.277 1704.94 531.227 1708.45 531.227 1712.03 531.276ZM2718.22 531.176C2742.63 531.201 2765.08 533.054 2785.58 536.733 2809.01 540.939 2827.74 550.935 2841.78 566.722 2855.82 582.51 2863.02 607.493 2863.38 641.672 2863.62 655.444 2862.14 669.381 2858.93 683.483 2855.71 697.585 2849.28 709.761 2839.64 720.012 2831.33 728.044 2820.9 734.756 2808.36 740.147 2795.82 745.539 2783.52 748.95 2771.46 750.38L2663.19 763.583C2658.4 764.216 2652.79 765.371 2646.35 767.049 2639.92 768.727 2634.97 771.093 2631.5 774.146 2628.21 777.75 2625.77 782.536 2624.18 788.505 2622.6 794.474 2621.81 799.81 2621.82 804.514L2621.82 815.517 2861.18 815.517 2861.18 881.462 2549.71 881.462 2549.71 819.914C2549.36 803.613 2550.61 788.027 2553.45 773.155 2556.29 758.284 2562.81 744.237 2573.01 731.015 2580.74 721.644 2590.24 714.529 2601.54 709.669 2612.83 704.81 2624.44 701.656 2636.34 700.207L2749.02 687.444C2764.08 686.114 2775 682.502 2781.75 676.606 2788.51 670.71 2791.83 659.946 2791.71 644.312 2791.91 635.84 2790.63 628.138 2787.86 621.207 2785.09 614.275 2779.63 608.773 2771.46 604.702 2766.5 602.532 2759.8 600.907 2751.36 599.829 2742.93 598.75 2734.37 598.039 2725.69 597.694 2717.01 597.349 2709.82 597.192 2704.12 597.222 2681.71 597.064 2665.01 598.553 2654.03 601.688 2643.04 604.823 2635.8 610.549 2632.3 618.868 2628.8 627.186 2627.06 639.042 2627.1 654.435L2555.87 654.435C2555.5 637.023 2556.78 620.028 2559.71 603.448 2562.65 586.869 2570.74 572.191 2584.01 559.414 2594.1 550.762 2606.35 544.423 2620.74 540.396 2635.13 536.368 2649.99 533.806 2665.31 532.71 2680.64 531.613 2694.75 531.136 2707.64 531.277 2711.21 531.206 2714.74 531.172 2718.22 531.176Z" stroke="#0D0D0D" stroke-width="3" stroke-linejoin="round" stroke-miterlimit="10" fill-rule="evenodd"/><text fill="#000000" fill-opacity="0" font-family="Arial,Arial_MSFontService,sans-serif" font-size="353.882" x="1543.07" y="840.822">6 7 2</text><path d="M2687.19 1121.64C2678.86 1121.77 2669.88 1122.47 2660.27 1123.74 2647.46 1125.43 2637.43 1130.19 2630.18 1137.99 2626.58 1142.88 2624.32 1148.84 2623.41 1155.88 2622.5 1162.91 2622.12 1169.42 2622.26 1175.41 2622.06 1186.34 2624.1 1195.19 2628.36 1201.94 2632.63 1208.69 2640.28 1213.79 2651.31 1217.23 2658.45 1219.36 2666.72 1220.72 2676.12 1221.31 2685.52 1221.89 2694.12 1222.15 2701.92 1222.08 2712.23 1222.27 2722.87 1221.88 2733.83 1220.92 2744.8 1219.96 2755 1217.26 2764.42 1212.83 2773.15 1208.27 2778.7 1202.09 2781.1 1194.29 2783.49 1186.48 2784.53 1177.99 2784.23 1168.81 2784.41 1160.73 2783.18 1153.22 2780.55 1146.3 2777.91 1139.38 2772.83 1133.96 2765.3 1130.07 2756.25 1126.25 2744.87 1123.87 2731.14 1122.91 2717.41 1121.96 2705.47 1121.56 2695.32 1121.7 2692.68 1121.62 2689.97 1121.6 2687.19 1121.64ZM2057.62 1062.8 2341.99 1062.8 2341.99 1128.74 2124.58 1128.74 2121.93 1199.62C2129.72 1193.55 2137.59 1188.97 2145.55 1185.88 2153.5 1182.78 2162.37 1180.62 2172.16 1179.39 2181.4 1178.3 2190.64 1177.52 2199.88 1177.03 2209.13 1176.55 2218.37 1176.31 2227.61 1176.32 2249.15 1175.62 2270.33 1177.89 2291.14 1183.13 2311.95 1188.37 2328.61 1200.75 2341.11 1220.28 2347.1 1231.04 2351.06 1243.49 2352.98 1257.62 2354.9 1271.75 2355.78 1284.97 2355.62 1297.29 2355.93 1312.58 2354.32 1327.78 2350.78 1342.9 2347.24 1358.01 2339.92 1371.12 2328.8 1382.21 2318.01 1392.14 2305.24 1399.29 2290.5 1403.67 2275.76 1408.05 2260.48 1410.74 2244.66 1411.74 2228.84 1412.75 2213.91 1413.16 2199.88 1412.98 2185.55 1413.2 2169.62 1412.76 2152.08 1411.66 2134.54 1410.56 2117.76 1407.49 2101.74 1402.43 2085.73 1397.38 2072.83 1389.02 2063.06 1377.37 2054.55 1365.78 2049.03 1353.02 2046.51 1339.1 2044 1325.19 2042.77 1311.1 2042.83 1296.85L2114.94 1296.85C2114.72 1303.57 2115.16 1310.16 2116.26 1316.61 2117.36 1323.05 2120.44 1328.65 2125.5 1333.39 2133.66 1339.93 2144.52 1343.91 2158.07 1345.33 2171.62 1346.75 2186.43 1347.32 2202.5 1347.04 2209.72 1347.16 2218.37 1346.92 2228.46 1346.32 2238.55 1345.72 2248.15 1344.05 2257.26 1341.3 2266.37 1338.55 2273.06 1334 2277.35 1327.67 2279.72 1323.03 2281.36 1316.79 2282.25 1308.96 2283.14 1301.12 2283.56 1294.45 2283.51 1288.93 2283.43 1273.22 2279.88 1261.89 2272.85 1254.93 2265.82 1247.98 2255.81 1243.69 2242.81 1242.07 2229.82 1240.45 2214.32 1239.78 2196.34 1240.06 2186.72 1239.94 2175.58 1240.51 2162.93 1241.77 2150.29 1243.02 2139.7 1245.68 2131.18 1249.75 2127.74 1251.46 2125.15 1253.53 2123.42 1255.96 2121.69 1258.4 2120.31 1261.46 2119.29 1265.15L2052.77 1265.15ZM1603.39 1062.8 1746.34 1062.8 1746.34 1409.46 1673.79 1409.46 1673.79 1128.74 1603.39 1128.74ZM2684.52 1059.26C2688.19 1059.22 2691.94 1059.22 2695.76 1059.28 2712.62 1059.03 2730.83 1059.74 2750.39 1061.42 2769.95 1063.1 2787.38 1067.22 2802.7 1073.78 2819.42 1082.1 2831.65 1094.2 2839.39 1110.08 2847.12 1125.96 2852.02 1143.21 2854.09 1161.84 2856.16 1180.46 2857.05 1198.05 2856.78 1214.59 2857.03 1242.07 2856.41 1267.16 2854.91 1289.86 2853.41 1312.57 2849.49 1332.95 2843.15 1350.99 2839.61 1360.83 2834.48 1369.84 2827.76 1378.03 2821.04 1386.22 2812.83 1392.59 2803.14 1397.16 2787.41 1404.16 2770.36 1408.61 2751.99 1410.51 2733.61 1412.4 2715.9 1413.23 2698.84 1412.98 2684.9 1413.18 2669.99 1412.59 2654.1 1411.21 2638.21 1409.83 2623.11 1406.47 2608.79 1401.13 2594.47 1395.79 2582.69 1387.29 2573.46 1375.61 2566.2 1365.49 2561.48 1354.84 2559.28 1343.67 2557.08 1332.49 2556.09 1320.84 2556.31 1308.72L2627.98 1308.72C2627.62 1313.68 2627.89 1318.63 2628.8 1323.58 2629.71 1328.54 2632.08 1332.83 2635.9 1336.47 2639.03 1339.28 2642.57 1341.47 2646.52 1343.02 2650.47 1344.57 2654.56 1345.76 2658.79 1346.59 2665.41 1347.86 2673.4 1348.63 2682.78 1348.91 2692.15 1349.18 2700.14 1349.29 2706.77 1349.24 2719.21 1349.7 2731.95 1348.56 2745 1345.82 2758.05 1343.09 2768.05 1336.01 2774.99 1324.58 2779.84 1314.95 2782.79 1303.93 2783.85 1291.5 2784.9 1279.08 2785.32 1267.51 2785.11 1256.81 2780.81 1261.19 2776.43 1264.95 2771.96 1268.07 2767.5 1271.2 2762.34 1273.74 2756.5 1275.71 2745.12 1279.58 2732.45 1282.18 2718.48 1283.51 2704.52 1284.85 2691.52 1285.47 2679.48 1285.38 2663.25 1285.66 2647.18 1284.34 2631.29 1281.43 2615.39 1278.51 2600.66 1272.36 2587.08 1262.96 2573.21 1252.62 2564.14 1240 2559.88 1225.09 2555.62 1210.17 2553.7 1194.35 2554.11 1177.61 2554.17 1143.88 2559.63 1118.47 2570.5 1101.37 2581.36 1084.28 2597.32 1072.88 2618.36 1067.18 2636.77 1062.19 2658.82 1059.55 2684.52 1059.26Z" stroke="#0D0D0D" stroke-width="3" stroke-linejoin="round" stroke-miterlimit="10" fill-rule="evenodd"/><text fill="#000000" fill-opacity="0" font-family="Arial,Arial_MSFontService,sans-serif" font-size="353.808" x="1603.39" y="1368.81">1 5 9</text><path d="M2595.45 1868 2664.47 1868 2664.47 1937.46 2595.45 1937.46ZM2147.45 1868 2216.47 1868 2216.47 1937.46 2147.45 1937.46ZM1699.45 1868 1768.47 1868 1768.47 1937.46 1699.45 1937.46ZM2660.98 1586.81C2674.33 1587.03 2688.12 1588.01 2702.34 1589.75 2721.31 1592.07 2738.17 1597.98 2752.94 1607.5 2765.67 1616.91 2773.73 1628.31 2777.12 1641.69 2780.51 1655.06 2781.97 1669.32 2781.51 1684.47 2781.91 1703.17 2778.92 1719.9 2772.56 1734.64 2766.19 1749.39 2754.08 1760.83 2736.23 1768.97L2682.98 1791.86C2673.48 1795.61 2667.7 1800.54 2665.63 1806.66 2663.57 1812.77 2662.74 1822.66 2663.15 1836.31L2596.77 1836.31C2596.77 1832.27 2596.77 1827.26 2596.77 1821.29 2596.77 1815.32 2596.77 1810.2 2596.77 1805.94 2596.59 1795.36 2598.6 1785.38 2602.81 1776.01 2607.03 1766.64 2614.54 1759.31 2625.35 1754.01L2696.19 1721C2703.9 1717.32 2708.96 1712.68 2711.39 1707.08 2713.81 1701.48 2714.91 1694.53 2714.69 1686.23 2714.62 1679.67 2713.66 1674.41 2711.83 1670.44 2709.99 1666.47 2707.72 1663.52 2705 1661.58 2699.79 1657.56 2692.69 1655.05 2683.7 1654.05 2674.7 1653.05 2661.99 1652.63 2645.57 1652.78 2627.89 1652.53 2614.42 1653.33 2605.18 1655.16 2595.93 1657 2589.66 1661.38 2586.38 1668.3 2583.09 1675.22 2581.55 1686.19 2581.75 1701.19L2581.75 1707.8 2514.49 1707.8 2514.49 1697.67C2513.84 1679.33 2515.47 1661.34 2519.38 1643.72 2523.29 1626.1 2533.38 1611.98 2549.66 1601.34 2558.23 1596.6 2568.31 1593.2 2579.88 1591.14 2591.46 1589.08 2603.23 1587.82 2615.2 1587.37 2627.17 1586.93 2638.02 1586.75 2647.77 1586.84 2652.12 1586.74 2656.53 1586.73 2660.98 1586.81ZM2212.98 1586.81C2226.33 1587.03 2240.12 1588.01 2254.34 1589.75 2273.31 1592.07 2290.17 1597.98 2304.94 1607.5 2317.67 1616.91 2325.73 1628.31 2329.12 1641.69 2332.51 1655.06 2333.97 1669.32 2333.51 1684.47 2333.91 1703.17 2330.92 1719.9 2324.56 1734.64 2318.19 1749.39 2306.08 1760.83 2288.23 1768.97L2234.98 1791.86C2225.48 1795.61 2219.7 1800.54 2217.63 1806.66 2215.57 1812.77 2214.74 1822.66 2215.15 1836.31L2148.77 1836.31C2148.77 1832.27 2148.77 1827.26 2148.77 1821.29 2148.77 1815.32 2148.77 1810.2 2148.77 1805.94 2148.59 1795.36 2150.6 1785.38 2154.81 1776.01 2159.03 1766.64 2166.54 1759.31 2177.35 1754.01L2248.19 1721C2255.9 1717.32 2260.96 1712.68 2263.39 1707.08 2265.81 1701.48 2266.91 1694.53 2266.69 1686.23 2266.62 1679.67 2265.66 1674.41 2263.83 1670.44 2261.99 1666.47 2259.72 1663.52 2257 1661.58 2251.8 1657.56 2244.69 1655.05 2235.7 1654.05 2226.7 1653.05 2213.99 1652.63 2197.57 1652.78 2179.89 1652.53 2166.42 1653.33 2157.18 1655.16 2147.93 1657 2141.66 1661.38 2138.38 1668.3 2135.09 1675.22 2133.55 1686.19 2133.75 1701.19L2133.75 1707.8 2066.49 1707.8 2066.49 1697.67C2065.84 1679.33 2067.47 1661.34 2071.38 1643.72 2075.29 1626.1 2085.38 1611.98 2101.66 1601.34 2110.23 1596.6 2120.31 1593.2 2131.88 1591.14 2143.46 1589.08 2155.23 1587.82 2167.2 1587.37 2179.17 1586.93 2190.02 1586.75 2199.77 1586.84 2204.12 1586.74 2208.53 1586.73 2212.98 1586.81ZM1764.98 1586.81C1778.33 1587.03 1792.12 1588.01 1806.34 1589.75 1825.31 1592.07 1842.17 1597.98 1856.94 1607.5 1869.67 1616.91 1877.73 1628.31 1881.12 1641.69 1884.51 1655.06 1885.97 1669.32 1885.51 1684.47 1885.91 1703.17 1882.92 1719.9 1876.56 1734.64 1870.19 1749.39 1858.08 1760.83 1840.23 1768.97L1786.98 1791.86C1777.48 1795.61 1771.7 1800.54 1769.63 1806.66 1767.57 1812.77 1766.74 1822.66 1767.15 1836.31L1700.77 1836.31C1700.77 1832.27 1700.77 1827.26 1700.77 1821.29 1700.77 1815.32 1700.77 1810.2 1700.77 1805.94 1700.59 1795.36 1702.6 1785.38 1706.81 1776.01 1711.03 1766.64 1718.54 1759.31 1729.35 1754.01L1800.19 1721C1807.9 1717.32 1812.96 1712.68 1815.39 1707.08 1817.81 1701.48 1818.91 1694.53 1818.69 1686.23 1818.62 1679.67 1817.66 1674.41 1815.83 1670.44 1813.99 1666.47 1811.72 1663.52 1809 1661.58 1803.8 1657.56 1796.69 1655.05 1787.7 1654.05 1778.7 1653.05 1765.99 1652.63 1749.57 1652.78 1731.89 1652.53 1718.42 1653.33 1709.18 1655.16 1699.93 1657 1693.66 1661.38 1690.37 1668.3 1687.09 1675.22 1685.55 1686.19 1685.75 1701.19L1685.75 1707.8 1618.49 1707.8 1618.49 1697.67C1617.84 1679.33 1619.47 1661.34 1623.38 1643.72 1627.29 1626.1 1637.38 1611.98 1653.66 1601.34 1662.23 1596.6 1672.31 1593.2 1683.88 1591.14 1695.46 1589.08 1707.23 1587.82 1719.2 1587.37 1731.17 1586.93 1742.02 1586.75 1751.77 1586.84 1756.12 1586.74 1760.53 1586.73 1764.98 1586.81Z" stroke="#0D0D0D" stroke-width="3" stroke-linejoin="round" stroke-miterlimit="10" fill="#00B050" fill-rule="evenodd"/><text fill="#000000" fill-opacity="0" font-family="Arial,Arial_MSFontService,sans-serif" font-size="350.704" x="1618.35" y="1893.62">? ? ?</text><path d="M1488.5 2024 2934.5 2024 2934.5 1993.5 2995.5 2054.5 2934.5 2115.5 2934.5 2085 1488.5 2085Z" stroke="#0D0D0D" stroke-width="6.875" stroke-miterlimit="8" fill="#00B050" fill-rule="evenodd"/></g></svg>