<svg width="2576" height="833" xmlns="http://www.w3.org/2000/svg" xmlns:xlink="http://www.w3.org/1999/xlink" xml:space="preserve" overflow="hidden"><g transform="translate(-912 -954)"><path d="M1129.49 1006.97 1270.29 1006.97C1304.72 1007.08 1330.9 1016.1 1348.83 1034.03 1366.76 1051.96 1375.78 1078.14 1375.89 1112.57L1375.89 1140.73 1301.09 1140.73 1301.09 1113.45C1301.03 1099.75 1297.4 1089.3 1290.2 1082.1 1282.99 1074.89 1272.54 1071.26 1258.85 1071.21L1140.93 1071.21C1127.23 1071.26 1116.78 1074.89 1109.58 1082.1 1102.37 1089.3 1098.74 1099.75 1098.69 1113.45L1098.69 1287.69C1098.74 1301.38 1102.37 1311.83 1109.58 1319.04 1116.78 1326.24 1127.23 1329.87 1140.93 1329.93L1258.85 1329.93C1272.54 1329.87 1282.99 1326.24 1290.2 1319.04 1297.4 1311.83 1301.03 1301.38 1301.09 1287.69L1301.09 1260.41 1375.89 1260.41 1375.89 1288.57C1375.78 1323 1366.76 1349.18 1348.83 1367.11 1330.9 1385.04 1304.72 1394.06 1270.29 1394.17L1129.49 1394.17C1095.06 1394.06 1068.88 1385.04 1050.95 1367.11 1033.02 1349.18 1024 1323 1023.89 1288.57L1023.89 1112.57C1024 1078.14 1033.02 1051.96 1050.95 1034.03 1068.88 1016.1 1095.06 1007.08 1129.49 1006.97Z" stroke="#000000" stroke-width="3" stroke-linejoin="round" stroke-miterlimit="10" fill="#0070C0" fill-rule="evenodd"/><text fill="#000000" fill-opacity="0" font-family="Arial,Arial_MSFontService,sans-serif" font-size="387.2" x="1023.89" y="1345.77">C</text><path d="M1545.98 1071.21C1532.29 1071.26 1521.84 1074.89 1514.63 1082.1 1507.43 1089.3 1503.8 1099.75 1503.74 1113.45L1503.74 1287.69C1503.8 1301.38 1507.43 1311.83 1514.63 1319.04 1521.84 1326.24 1532.29 1329.87 1545.98 1329.93L1674.9 1329.93C1688.6 1329.87 1699.05 1326.24 1706.25 1319.04 1713.46 1311.83 1717.09 1301.38 1717.14 1287.69L1717.14 1113.45C1717.09 1099.75 1713.46 1089.3 1706.25 1082.1 1699.05 1074.89 1688.6 1071.26 1674.9 1071.21ZM1534.54 1006.97 1686.34 1006.97C1720.77 1007.08 1746.95 1016.1 1764.88 1034.03 1782.81 1051.96 1791.83 1078.14 1791.94 1112.57L1791.94 1288.57C1791.83 1323 1782.81 1349.18 1764.88 1367.11 1746.95 1385.04 1720.77 1394.06 1686.34 1394.17L1534.54 1394.17C1500.11 1394.06 1473.93 1385.04 1456 1367.11 1438.07 1349.18 1429.05 1323 1428.94 1288.57L1428.94 1112.57C1429.05 1078.14 1438.07 1051.96 1456 1034.03 1473.93 1016.1 1500.11 1007.08 1534.54 1006.97Z" stroke="#000000" stroke-width="3" stroke-linejoin="round" stroke-miterlimit="10" fill="#00B050" fill-rule="evenodd"/><text fill="#000000" fill-opacity="0" font-family="Arial,Arial_MSFontService,sans-serif" font-size="387.2" x="1428.94" y="1345.77">O</text><path d="M1857.69 1009.17 1932.49 1009.17 1932.49 1327.73 2174.93 1327.73 2174.93 1391.97 1857.69 1391.97Z" stroke="#000000" stroke-width="3" stroke-linejoin="round" stroke-miterlimit="10" fill="#FFFF00" fill-rule="evenodd"/><text fill="#000000" fill-opacity="0" font-family="Arial,Arial_MSFontService,sans-serif" font-size="382.8" x="1857.69" y="1344.12">L</text><path d="M2325.15 1071.21C2311.45 1071.26 2301 1074.89 2293.8 1082.1 2286.59 1089.3 2282.96 1099.75 2282.91 1113.45L2282.91 1287.69C2282.96 1301.38 2286.59 1311.83 2293.8 1319.04 2301 1326.24 2311.45 1329.87 2325.15 1329.93L2454.07 1329.93C2467.76 1329.87 2478.21 1326.24 2485.42 1319.04 2492.62 1311.83 2496.25 1301.38 2496.31 1287.69L2496.31 1113.45C2496.25 1099.75 2492.62 1089.3 2485.42 1082.1 2478.21 1074.89 2467.76 1071.26 2454.07 1071.21ZM2313.71 1006.97 2465.51 1006.97C2499.94 1007.08 2526.12 1016.1 2544.05 1034.03 2561.98 1051.96 2571 1078.14 2571.11 1112.57L2571.11 1288.57C2571 1323 2561.98 1349.18 2544.05 1367.11 2526.12 1385.04 2499.94 1394.06 2465.51 1394.17L2313.71 1394.17C2279.28 1394.06 2253.1 1385.04 2235.17 1367.11 2217.24 1349.18 2208.22 1323 2208.11 1288.57L2208.11 1112.57C2208.22 1078.14 2217.24 1051.96 2235.17 1034.03 2253.1 1016.1 2279.28 1007.08 2313.71 1006.97Z" stroke="#000000" stroke-width="3" stroke-linejoin="round" stroke-miterlimit="10" fill="#7030A0" fill-rule="evenodd"/><text fill="#000000" fill-opacity="0" font-family="Arial,Arial_MSFontService,sans-serif" font-size="387.2" x="2208.11" y="1345.77">O</text><path d="M2711.65 1073.41 2711.65 1188.25 2859.93 1188.25C2872.52 1188.2 2882.11 1184.88 2888.7 1178.29 2895.29 1171.7 2898.61 1162.11 2898.65 1149.53L2898.65 1112.13C2898.61 1099.54 2895.29 1089.95 2888.7 1083.36 2882.11 1076.77 2872.52 1073.45 2859.93 1073.41ZM2636.85 1009.17 2876.65 1009.17C2908.22 1009.27 2932.21 1017.54 2948.65 1033.97 2965.09 1050.41 2973.35 1074.41 2973.45 1105.97L2973.45 1155.69C2973.45 1172.65 2971.04 1187.46 2966.25 1200.13 2961.46 1212.8 2954.32 1223.21 2944.85 1231.37 2954.32 1239.53 2961.46 1249.94 2966.25 1262.61 2971.04 1275.28 2973.45 1290.09 2973.45 1307.05L2973.45 1391.97 2898.65 1391.97 2898.65 1291.21C2898.61 1278.62 2895.29 1269.03 2888.7 1262.44 2882.11 1255.85 2872.52 1252.53 2859.93 1252.49L2711.65 1252.49 2711.65 1391.97 2636.85 1391.97Z" stroke="#000000" stroke-width="3" stroke-linejoin="round" stroke-miterlimit="10" fill="#FF0000" fill-rule="evenodd"/><text fill="#000000" fill-opacity="0" font-family="Arial,Arial_MSFontService,sans-serif" font-size="382.8" x="2636.85" y="1344.12">R</text><path d="M3120.63 1006.97 3285.63 1006.97C3314.32 1007.06 3336.13 1014.58 3351.08 1029.52 3366.02 1044.46 3373.53 1066.28 3373.63 1094.97L3373.63 1129.29 3298.83 1129.29 3298.83 1106.41C3298.79 1094.93 3295.78 1086.21 3289.81 1080.23 3283.83 1074.25 3275.1 1071.25 3263.63 1071.21L3142.63 1071.21C3131.15 1071.25 3122.42 1074.25 3116.45 1080.23 3110.47 1086.21 3107.46 1094.93 3107.43 1106.41L3107.43 1134.57C3107.46 1146.05 3110.47 1154.77 3116.45 1160.75 3122.42 1166.73 3131.15 1169.73 3142.63 1169.77L3294.43 1169.77C3323.12 1169.86 3344.93 1177.38 3359.88 1192.32 3374.82 1207.26 3382.33 1229.08 3382.43 1257.77L3382.43 1306.17C3382.33 1334.86 3374.82 1356.68 3359.88 1371.62 3344.93 1386.56 3323.12 1394.08 3294.43 1394.17L3116.23 1394.17C3087.53 1394.08 3065.72 1386.56 3050.78 1371.62 3035.83 1356.68 3028.32 1334.86 3028.23 1306.17L3028.23 1271.85 3103.03 1271.85 3103.03 1294.73C3103.06 1306.21 3106.07 1314.93 3112.05 1320.91 3118.02 1326.89 3126.75 1329.89 3138.23 1329.93L3272.43 1329.93C3283.9 1329.89 3292.63 1326.89 3298.61 1320.91 3304.58 1314.93 3307.59 1306.21 3307.63 1294.73L3307.63 1266.57C3307.59 1255.09 3304.58 1246.37 3298.61 1240.39 3292.63 1234.41 3283.9 1231.41 3272.43 1231.37L3120.63 1231.37C3091.93 1231.28 3070.12 1223.76 3055.18 1208.82 3040.23 1193.88 3032.72 1172.06 3032.63 1143.37L3032.63 1094.97C3032.72 1066.28 3040.23 1044.46 3055.18 1029.52 3070.12 1014.58 3091.93 1007.06 3120.63 1006.97Z" stroke="#FFFFFF" stroke-width="3" stroke-linejoin="round" stroke-miterlimit="10" fill-rule="evenodd"/><text fill="#000000" fill-opacity="0" font-family="Arial,Arial_MSFontService,sans-serif" font-size="387.2" x="3028.23" y="1345.77">S</text><path d="M977.816 1657.82 977.816 1689.5 980.896 1689.5C984.416 1689.54 986.176 1687.7 986.176 1684L986.176 1657.82ZM1241.6 1634.06 1241.6 1654.3 1252.82 1654.3 1252.82 1634.06ZM1202.66 1634.06 1202.66 1654.3 1213.88 1654.3 1213.88 1634.06ZM952.736 1630.1 1011.26 1630.1 1011.26 1696.1C1011.26 1710.18 1004.22 1717.22 990.136 1717.22L952.736 1717.22ZM1134.24 1606.12 1150.08 1606.12 1151.18 1644.84C1151.4 1647.66 1152.72 1649.06 1155.14 1649.02L1157.56 1649.02 1157.56 1674.98 1150.74 1674.98C1142.38 1674.98 1137.76 1671.02 1136.88 1663.1ZM1070.88 1606.12 1086.72 1606.12 1084.74 1659.8C1084.04 1669.92 1079.49 1674.98 1071.1 1674.98L1065.82 1674.98 1060.98 1649.02 1064.72 1649.02C1067.14 1648.98 1068.46 1647.96 1068.68 1645.94ZM953.396 1593.14 1010.6 1593.14 1010.6 1620.86 953.396 1620.86ZM1241.6 1587.42 1241.6 1608.1 1252.82 1608.1 1252.82 1587.42ZM1202.66 1587.42 1202.66 1608.1 1213.88 1608.1 1213.88 1587.42ZM1018.52 1587.42 1057.46 1587.42 1057.46 1672.78C1061.64 1682.5 1067.58 1687.48 1075.28 1687.74L1157.56 1687.74 1157.56 1717.22 1074.4 1717.22C1066.26 1716.74 1059.66 1713.96 1054.6 1708.86 1051.26 1714.4 1045.17 1717.18 1036.34 1717.22L1018.3 1717.22 1013.46 1687.74 1018.96 1687.74C1022.66 1687.74 1024.49 1685.98 1024.46 1682.46L1024.46 1616.9 1018.52 1616.9ZM953.396 1556.18 1010.6 1556.18 1010.6 1583.9 953.396 1583.9ZM1022.92 1548.7 1053.72 1548.7 1053.72 1579.94 1022.92 1579.94ZM1210.14 1546.06 1209.48 1548.7C1209.04 1550.81 1208.43 1552.81 1207.63 1554.7 1206.84 1556.58 1205.84 1558.25 1204.64 1559.7L1231.48 1559.7 1235.66 1546.06ZM1517.48 1516.36 1553.12 1516.36 1553.12 1526.7 1590.3 1526.7 1590.3 1557.5 1553.12 1557.5 1553.12 1571.58 1590.3 1571.58 1590.3 1602.38 1553.12 1602.38 1553.12 1625.7C1553.09 1632.87 1551.21 1638.33 1547.48 1642.06 1543.74 1645.8 1538.29 1647.68 1531.12 1647.7L1452.14 1647.7C1450.03 1647.71 1448.41 1648.29 1447.27 1649.43 1446.13 1650.57 1445.55 1652.2 1445.54 1654.3L1445.54 1668.82C1445.55 1670.92 1446.13 1672.55 1447.27 1673.69 1448.41 1674.83 1450.03 1675.41 1452.14 1675.42L1579.3 1675.42 1579.3 1708.86 1431.9 1708.86C1424.72 1708.84 1419.27 1706.96 1415.53 1703.22 1411.8 1699.49 1409.92 1694.03 1409.9 1686.86L1409.9 1638.9C1409.92 1631.73 1411.8 1626.27 1415.53 1622.54 1419.27 1618.8 1424.72 1616.92 1431.9 1616.9L1510.88 1616.9C1512.98 1616.89 1514.6 1616.31 1515.74 1615.17 1516.89 1614.03 1517.46 1612.4 1517.48 1610.3L1517.48 1602.38 1398.9 1602.38 1398.9 1571.58 1517.48 1571.58 1517.48 1557.5 1398.9 1557.5 1398.9 1526.7 1517.48 1526.7ZM1139.52 1511.08 1155.36 1511.08 1154.26 1547.16C1153.56 1557.28 1149.01 1562.34 1140.62 1562.34L1134.46 1562.34 1129.62 1536.38 1134.24 1536.38C1136.66 1536.34 1137.98 1535.32 1138.2 1533.3ZM1062.96 1511.08 1078.8 1511.08 1080.78 1532.2C1081 1535.02 1082.32 1536.42 1084.74 1536.38L1089.8 1536.38 1089.8 1562.34 1080.34 1562.34C1071.98 1562.34 1067.36 1558.38 1066.48 1550.46ZM1283.4 1510.86 1376.02 1510.86 1376.02 1575.98C1376.02 1590.06 1368.98 1597.1 1354.9 1597.1L1335.54 1597.1 1330.7 1569.38 1335.76 1569.38C1339.46 1569.42 1341.29 1567.58 1341.26 1563.88L1341.26 1540.34 1331.14 1540.34 1324.32 1580.16C1322.12 1592.04 1314.42 1597.98 1301.22 1597.98L1287.58 1597.98 1282.3 1570.26 1288.24 1570.26C1291.28 1570.3 1293.11 1568.46 1293.74 1564.76L1298.14 1540.34 1283.4 1540.34ZM1022.92 1510.86 1053.72 1510.86 1053.72 1542.1 1022.92 1542.1ZM1185.94 1508.44 1220.7 1508.44 1217.84 1518.34 1272.18 1518.34 1272.18 1546.06 1268 1559.7 1280.54 1559.7 1280.54 1632.74 1282.3 1632.74C1284.9 1632.7 1286.29 1631.46 1286.48 1629L1289.34 1607.88 1310.02 1607.88 1308.7 1619.98 1317.5 1619.98 1317.5 1604.36 1350.5 1604.36 1350.5 1619.98 1376.68 1619.98 1376.68 1647.7 1350.5 1647.7 1350.5 1667.06 1378.44 1667.06 1378.44 1696.54 1350.5 1696.54 1350.5 1717 1317.5 1717 1317.5 1696.54 1285.6 1696.54 1285.6 1667.06 1317.5 1667.06 1317.5 1647.7 1305.62 1647.7C1304.11 1656.24 1300.08 1660.5 1293.52 1660.46L1280.54 1660.46 1280.54 1696.1C1280.54 1710.18 1273.5 1717.22 1259.42 1717.22L1235.66 1717.22 1230.82 1689.5 1247.32 1689.5C1251.02 1689.54 1252.85 1687.7 1252.82 1684L1252.82 1680.26 1202.66 1680.26 1202.66 1696.1C1202.66 1710.18 1195.62 1717.22 1181.54 1717.22L1173.18 1717.22 1168.34 1689.5 1169.44 1689.5C1173.14 1689.54 1174.97 1687.7 1174.94 1684L1174.94 1566.74 1173.62 1566.74 1168.34 1539.02 1172.08 1539.02C1173.57 1539.02 1174.71 1538.53 1175.49 1537.56 1176.27 1536.6 1176.96 1535.18 1177.58 1533.3ZM1093.1 1508.44 1127.86 1508.44 1127.86 1570.26 1157.56 1570.26 1157.56 1597.98 1127.86 1597.98 1127.86 1680.04 1093.1 1680.04 1093.1 1597.98 1063.84 1597.98 1063.84 1570.26 1093.1 1570.26ZM964.176 1508.44 1000.7 1508.44 1000.7 1518.34 1014.12 1518.34 1014.12 1546.06 949.876 1546.06 949.876 1518.34 964.176 1518.34Z" stroke="#FFFFFF" stroke-width="3" stroke-linejoin="round" stroke-miterlimit="10" fill-rule="evenodd"/><text fill="#000000" fill-opacity="0" font-family="Arial,Arial_MSFontService,sans-serif" font-size="208.78" x="949.876" y="1691.12">謎解き</text><path d="M1842.2 1594.46 2027 1594.46 2027 1631.86 1842.2 1631.86ZM2113.68 1519.88 2152.84 1519.88 2106.42 1675.42 2201.9 1675.42C2204.12 1675.41 2205.77 1674.77 2206.85 1673.52 2207.92 1672.27 2208.25 1670.48 2207.84 1668.16L2196.4 1605.24 2235.56 1605.24 2251.62 1679.82C2252.24 1682.64 2252.53 1685.36 2252.5 1687.96 2252.46 1694.61 2250.38 1699.74 2246.25 1703.36 2242.12 1706.98 2236.14 1708.81 2228.3 1708.86L2055.6 1708.86ZM1664.22 1517.46 1705.36 1517.46 1693.04 1539.46 1745.4 1539.46 1745.4 1550.46 1809.2 1550.46 1809.2 1572.9 1782.8 1572.9 1782.8 1682.46C1782.77 1691.07 1780.51 1697.61 1776.03 1702.1 1771.55 1706.58 1765 1708.83 1756.4 1708.86L1637.6 1708.86 1637.6 1675.42 1735.5 1675.42C1738.37 1675.41 1740.55 1674.66 1742.04 1673.17 1743.54 1671.67 1744.29 1669.49 1744.3 1666.62L1744.3 1572.9 1674.12 1572.9 1660.92 1596.22C1659.17 1599.4 1657 1601.73 1654.4 1603.23 1651.8 1604.73 1648.69 1605.47 1645.08 1605.46L1621.1 1605.46 1621.1 1574.66 1627.26 1574.66C1628.69 1574.67 1629.95 1574.38 1631.05 1573.78 1632.15 1573.18 1633.09 1572.23 1633.86 1570.92ZM1785 1508.66 1809.2 1508.66 1809.2 1543.86 1785 1543.86ZM1753.1 1508.66 1777.3 1508.66 1777.3 1543.86 1753.1 1543.86Z" stroke="#FFFFFF" stroke-width="3" stroke-linejoin="round" stroke-miterlimit="10" fill-rule="evenodd"/><text fill="#000000" fill-opacity="0" font-family="Arial,Arial_MSFontService,sans-serif" font-size="200.2" x="1621.1" y="1683.84">ゲーム</text></g></svg>