<svg width="2500" height="567" xmlns="http://www.w3.org/2000/svg" xmlns:xlink="http://www.w3.org/1999/xlink" xml:space="preserve" overflow="hidden"><g transform="translate(-950 -954)"><path d="M1129.64 1006.97 1270.44 1006.97C1304.87 1007.08 1331.05 1016.1 1348.98 1034.03 1366.91 1051.96 1375.93 1078.14 1376.04 1112.57L1376.04 1140.73 1301.24 1140.73 1301.24 1113.45C1301.19 1099.75 1297.56 1089.3 1290.35 1082.1 1283.15 1074.89 1272.7 1071.26 1259 1071.21L1141.08 1071.21C1127.39 1071.26 1116.94 1074.89 1109.73 1082.1 1102.53 1089.3 1098.9 1099.75 1098.84 1113.45L1098.84 1287.69C1098.9 1301.38 1102.53 1311.83 1109.73 1319.04 1116.94 1326.24 1127.39 1329.87 1141.08 1329.93L1259 1329.93C1272.7 1329.87 1283.15 1326.24 1290.35 1319.04 1297.56 1311.83 1301.19 1301.38 1301.24 1287.69L1301.24 1260.41 1376.04 1260.41 1376.04 1288.57C1375.93 1323 1366.91 1349.18 1348.98 1367.11 1331.05 1385.04 1304.87 1394.06 1270.44 1394.17L1129.64 1394.17C1095.21 1394.06 1069.03 1385.04 1051.1 1367.11 1033.17 1349.18 1024.15 1323 1024.04 1288.57L1024.04 1112.57C1024.15 1078.14 1033.17 1051.96 1051.1 1034.03 1069.03 1016.1 1095.21 1007.08 1129.64 1006.97Z" stroke="#000000" stroke-width="3" stroke-linejoin="round" stroke-miterlimit="10" fill="#0070C0" fill-rule="evenodd"/><text fill="#000000" fill-opacity="0" font-family="Arial,Arial_MSFontService,sans-serif" font-size="387.2" x="1024.04" y="1345.77">C</text><path d="M1546.13 1071.21C1532.44 1071.26 1521.99 1074.89 1514.78 1082.1 1507.58 1089.3 1503.95 1099.75 1503.89 1113.45L1503.89 1287.69C1503.95 1301.38 1507.58 1311.83 1514.78 1319.04 1521.99 1326.24 1532.44 1329.87 1546.13 1329.93L1675.05 1329.93C1688.75 1329.87 1699.2 1326.24 1706.4 1319.04 1713.61 1311.83 1717.24 1301.38 1717.29 1287.69L1717.29 1113.45C1717.24 1099.75 1713.61 1089.3 1706.4 1082.1 1699.2 1074.89 1688.75 1071.26 1675.05 1071.21ZM1534.69 1006.97 1686.49 1006.97C1720.92 1007.08 1747.1 1016.1 1765.03 1034.03 1782.96 1051.96 1791.98 1078.14 1792.09 1112.57L1792.09 1288.57C1791.98 1323 1782.96 1349.18 1765.03 1367.11 1747.1 1385.04 1720.92 1394.06 1686.49 1394.17L1534.69 1394.17C1500.26 1394.06 1474.08 1385.04 1456.15 1367.11 1438.22 1349.18 1429.2 1323 1429.09 1288.57L1429.09 1112.57C1429.2 1078.14 1438.22 1051.96 1456.15 1034.03 1474.08 1016.1 1500.26 1007.08 1534.69 1006.97Z" stroke="#000000" stroke-width="3" stroke-linejoin="round" stroke-miterlimit="10" fill="#00B050" fill-rule="evenodd"/><text fill="#000000" fill-opacity="0" font-family="Arial,Arial_MSFontService,sans-serif" font-size="387.2" x="1429.09" y="1345.77">O</text><path d="M1857.84 1009.17 1932.64 1009.17 1932.64 1327.73 2175.08 1327.73 2175.08 1391.97 1857.84 1391.97Z" stroke="#000000" stroke-width="3" stroke-linejoin="round" stroke-miterlimit="10" fill="#FFFF00" fill-rule="evenodd"/><text fill="#000000" fill-opacity="0" font-family="Arial,Arial_MSFontService,sans-serif" font-size="382.8" x="1857.84" y="1344.12">L</text><path d="M2325.3 1071.21C2311.61 1071.26 2301.16 1074.89 2293.95 1082.1 2286.75 1089.3 2283.12 1099.75 2283.06 1113.45L2283.06 1287.69C2283.12 1301.38 2286.75 1311.83 2293.95 1319.04 2301.16 1326.24 2311.61 1329.87 2325.3 1329.93L2454.22 1329.93C2467.92 1329.87 2478.37 1326.24 2485.57 1319.04 2492.78 1311.83 2496.41 1301.38 2496.46 1287.69L2496.46 1113.45C2496.41 1099.75 2492.78 1089.3 2485.57 1082.1 2478.37 1074.89 2467.92 1071.26 2454.22 1071.21ZM2313.86 1006.97 2465.66 1006.97C2500.09 1007.08 2526.27 1016.1 2544.2 1034.03 2562.13 1051.96 2571.15 1078.14 2571.26 1112.57L2571.26 1288.57C2571.15 1323 2562.13 1349.18 2544.2 1367.11 2526.27 1385.04 2500.09 1394.06 2465.66 1394.17L2313.86 1394.17C2279.43 1394.06 2253.25 1385.04 2235.32 1367.11 2217.39 1349.18 2208.37 1323 2208.26 1288.57L2208.26 1112.57C2208.37 1078.14 2217.39 1051.96 2235.32 1034.03 2253.25 1016.1 2279.43 1007.08 2313.86 1006.97Z" stroke="#000000" stroke-width="3" stroke-linejoin="round" stroke-miterlimit="10" fill="#7030A0" fill-rule="evenodd"/><text fill="#000000" fill-opacity="0" font-family="Arial,Arial_MSFontService,sans-serif" font-size="387.2" x="2208.26" y="1345.77">O</text><path d="M2711.81 1073.41 2711.81 1188.25 2860.09 1188.25C2872.68 1188.2 2882.26 1184.88 2888.85 1178.29 2895.44 1171.7 2898.76 1162.11 2898.81 1149.53L2898.81 1112.13C2898.76 1099.54 2895.44 1089.95 2888.85 1083.36 2882.26 1076.77 2872.68 1073.45 2860.09 1073.41ZM2637.01 1009.17 2876.81 1009.17C2908.37 1009.27 2932.37 1017.54 2948.8 1033.97 2965.24 1050.41 2973.51 1074.41 2973.61 1105.97L2973.61 1155.69C2973.6 1172.65 2971.2 1187.46 2966.4 1200.13 2961.61 1212.8 2954.48 1223.21 2945.01 1231.37 2954.48 1239.53 2961.61 1249.94 2966.4 1262.61 2971.2 1275.28 2973.6 1290.09 2973.61 1307.05L2973.61 1391.97 2898.81 1391.97 2898.81 1291.21C2898.76 1278.62 2895.44 1269.03 2888.85 1262.44 2882.26 1255.85 2872.68 1252.53 2860.09 1252.49L2711.81 1252.49 2711.81 1391.97 2637.01 1391.97Z" stroke="#000000" stroke-width="3" stroke-linejoin="round" stroke-miterlimit="10" fill="#FF0000" fill-rule="evenodd"/><text fill="#000000" fill-opacity="0" font-family="Arial,Arial_MSFontService,sans-serif" font-size="382.8" x="2637.01" y="1344.12">R</text><path d="M3120.78 1006.97 3285.78 1006.97C3314.47 1007.06 3336.29 1014.58 3351.23 1029.52 3366.17 1044.46 3373.69 1066.28 3373.78 1094.97L3373.78 1129.29 3298.98 1129.29 3298.98 1106.41C3298.94 1094.93 3295.94 1086.21 3289.96 1080.23 3283.98 1074.25 3275.26 1071.25 3263.78 1071.21L3142.78 1071.21C3131.3 1071.25 3122.58 1074.25 3116.6 1080.23 3110.62 1086.21 3107.62 1094.93 3107.58 1106.41L3107.58 1134.57C3107.62 1146.05 3110.62 1154.77 3116.6 1160.75 3122.58 1166.73 3131.3 1169.73 3142.78 1169.77L3294.58 1169.77C3323.27 1169.86 3345.09 1177.38 3360.03 1192.32 3374.97 1207.26 3382.49 1229.08 3382.58 1257.77L3382.58 1306.17C3382.49 1334.86 3374.97 1356.68 3360.03 1371.62 3345.09 1386.56 3323.27 1394.08 3294.58 1394.17L3116.38 1394.17C3087.69 1394.08 3065.87 1386.56 3050.93 1371.62 3035.99 1356.68 3028.47 1334.86 3028.38 1306.17L3028.38 1271.85 3103.18 1271.85 3103.18 1294.73C3103.22 1306.21 3106.22 1314.93 3112.2 1320.91 3118.18 1326.89 3126.9 1329.89 3138.38 1329.93L3272.58 1329.93C3284.06 1329.89 3292.78 1326.89 3298.76 1320.91 3304.74 1314.93 3307.74 1306.21 3307.78 1294.73L3307.78 1266.57C3307.74 1255.09 3304.74 1246.37 3298.76 1240.39 3292.78 1234.41 3284.06 1231.41 3272.58 1231.37L3120.78 1231.37C3092.09 1231.28 3070.27 1223.76 3055.33 1208.82 3040.39 1193.88 3032.87 1172.06 3032.78 1143.37L3032.78 1094.97C3032.87 1066.28 3040.39 1044.46 3055.33 1029.52 3070.27 1014.58 3092.09 1007.06 3120.78 1006.97Z" stroke="#000000" stroke-width="3" stroke-linejoin="round" stroke-miterlimit="10" fill-rule="evenodd"/><text fill="#000000" fill-opacity="0" font-family="Arial,Arial_MSFontService,sans-serif" font-size="387.2" x="3028.38" y="1345.77">S</text></g></svg>