<svg width="3524" height="2101" xmlns="http://www.w3.org/2000/svg" xmlns:xlink="http://www.w3.org/1999/xlink" xml:space="preserve" overflow="hidden"><g transform="translate(-456 -252)"><path d="M456.5 627.5 3881.03 627.5" stroke="#A02B93" stroke-width="9.16667" stroke-miterlimit="8" fill="none" fill-rule="evenodd"/><path d="M456.5 1006.5 3881.03 1006.5" stroke="#A02B93" stroke-width="9.16667" stroke-miterlimit="8" fill="none" fill-rule="evenodd"/><path d="M1242.5 817.5C1242.5 714.223 1371.44 630.5 1530.5 630.5 1689.56 630.5 1818.5 714.223 1818.5 817.5 1818.5 920.777 1689.56 1004.5 1530.5 1004.5 1371.44 1004.5 1242.5 920.777 1242.5 817.5Z" stroke="#042433" stroke-width="6.875" stroke-miterlimit="8" fill-rule="evenodd"/><path d="M456.5 256.5 3881.03 256.5" stroke="#A02B93" stroke-width="9.16667" stroke-miterlimit="8" fill="none" fill-rule="evenodd"/><path d="M456.5 1385.5 3881.03 1385.5" stroke="#A02B93" stroke-width="9.16667" stroke-miterlimit="8" fill="none" fill-rule="evenodd"/><path d="M456.5 1761.5 3881.03 1761.5" stroke="#A02B93" stroke-width="9.16667" stroke-miterlimit="8" fill="none" fill-rule="evenodd"/><path d="M1837.5 2127.5 2600.75 2127.5" stroke="#A02B93" stroke-width="9.16667" stroke-miterlimit="8" fill="none" fill-rule="evenodd"/><path d="M2658.5 1572C2658.5 1469 2787.44 1385.5 2946.5 1385.5 3105.56 1385.5 3234.5 1469 3234.5 1572 3234.5 1675 3105.56 1758.5 2946.5 1758.5 2787.44 1758.5 2658.5 1675 2658.5 1572Z" stroke="#042433" stroke-width="6.875" stroke-miterlimit="8" fill-rule="evenodd"/><path d="M3234.5 999C3234.5 895.999 3363.44 812.5 3522.5 812.5 3681.56 812.5 3810.5 895.999 3810.5 999 3810.5 1102 3681.56 1185.5 3522.5 1185.5 3363.44 1185.5 3234.5 1102 3234.5 999Z" stroke="#042433" stroke-width="6.875" stroke-miterlimit="8" fill-rule="evenodd"/><path d="M1230.5 2122.5C1230.5 2019.22 1359.44 1935.5 1518.5 1935.5 1677.56 1935.5 1806.5 2019.22 1806.5 2122.5 1806.5 2225.78 1677.56 2309.5 1518.5 2309.5 1359.44 2309.5 1230.5 2225.78 1230.5 2122.5Z" stroke="#042433" stroke-width="6.875" stroke-miterlimit="8" fill-rule="evenodd"/><path d="M539.5 2122.5C539.5 2019.22 668.442 1935.5 827.5 1935.5 986.558 1935.5 1115.5 2019.22 1115.5 2122.5 1115.5 2225.78 986.558 2309.5 827.5 2309.5 668.442 2309.5 539.5 2225.78 539.5 2122.5Z" stroke="#042433" stroke-width="6.875" stroke-miterlimit="8" fill-rule="evenodd"/><path d="M550.5 1380C550.5 1277 679.442 1193.5 838.5 1193.5 997.558 1193.5 1126.5 1277 1126.5 1380 1126.5 1483 997.558 1566.5 838.5 1566.5 679.442 1566.5 550.5 1483 550.5 1380Z" stroke="#042433" stroke-width="6.875" stroke-miterlimit="8" fill-rule="evenodd"/><path d="M1931.5 2127.5C1931.5 2024.22 2060.44 1940.5 2219.5 1940.5 2378.56 1940.5 2507.5 2024.22 2507.5 2127.5 2507.5 2230.78 2378.56 2314.5 2219.5 2314.5 2060.44 2314.5 1931.5 2230.78 1931.5 2127.5Z" stroke="#042433" stroke-width="6.875" stroke-miterlimit="8" fill-rule="evenodd"/><path d="M3445.5 999C3445.5 956.198 3479.97 921.5 3522.5 921.5 3565.03 921.5 3599.5 956.198 3599.5 999 3599.5 1041.8 3565.03 1076.5 3522.5 1076.5 3479.97 1076.5 3445.5 1041.8 3445.5 999Z" stroke="#E8E8E8" stroke-width="6.875" stroke-miterlimit="8" fill="#7030A0" fill-rule="evenodd"/><path d="M2733.5 1567C2733.5 1524.2 2768.2 1489.5 2811 1489.5 2853.8 1489.5 2888.5 1524.2 2888.5 1567 2888.5 1609.8 2853.8 1644.5 2811 1644.5 2768.2 1644.5 2733.5 1609.8 2733.5 1567Z" stroke="#E8E8E8" stroke-width="6.875" stroke-miterlimit="8" fill="#7030A0" fill-rule="evenodd"/><path d="M3006.5 1567C3006.5 1524.2 3040.97 1489.5 3083.5 1489.5 3126.03 1489.5 3160.5 1524.2 3160.5 1567 3160.5 1609.8 3126.03 1644.5 3083.5 1644.5 3040.97 1644.5 3006.5 1609.8 3006.5 1567Z" stroke="#E8E8E8" stroke-width="6.875" stroke-miterlimit="8" fill="#7030A0" fill-rule="evenodd"/><path d="M749.5 2123C749.5 2080.2 784.198 2045.5 827 2045.5 869.802 2045.5 904.5 2080.2 904.5 2123 904.5 2165.8 869.802 2200.5 827 2200.5 784.198 2200.5 749.5 2165.8 749.5 2123Z" stroke="#E8E8E8" stroke-width="6.875" stroke-miterlimit="8" fill="#7030A0" fill-rule="evenodd"/><path d="M1304.5 2117.5C1304.5 2074.42 1338.97 2039.5 1381.5 2039.5 1424.03 2039.5 1458.5 2074.42 1458.5 2117.5 1458.5 2160.58 1424.03 2195.5 1381.5 2195.5 1338.97 2195.5 1304.5 2160.58 1304.5 2117.5Z" stroke="#E8E8E8" stroke-width="6.875" stroke-miterlimit="8" fill="#7030A0" fill-rule="evenodd"/><path d="M1576.5 2117.5C1576.5 2074.42 1610.97 2039.5 1653.5 2039.5 1696.03 2039.5 1730.5 2074.42 1730.5 2117.5 1730.5 2160.58 1696.03 2195.5 1653.5 2195.5 1610.97 2195.5 1576.5 2160.58 1576.5 2117.5Z" stroke="#E8E8E8" stroke-width="6.875" stroke-miterlimit="8" fill="#7030A0" fill-rule="evenodd"/><path d="M2628.5 2105.75 2884 2105.75 2884 2074.5 2946.5 2137 2884 2199.5 2884 2168.25 2628.5 2168.25Z" stroke="#042433" stroke-width="6.875" stroke-miterlimit="8" fill="#7030A0" fill-rule="evenodd"/><path d="M3789.93 2211.24 3841.7 2211.24 3841.7 2263.34 3789.93 2263.34ZM3452.93 2211.24 3504.7 2211.24 3504.7 2263.34 3452.93 2263.34ZM3116.93 2211.24 3168.7 2211.24 3168.7 2263.34 3116.93 2263.34ZM3839.07 2000.35C3849.09 2000.52 3859.43 2001.25 3870.1 2002.56 3884.32 2004.29 3896.97 2008.73 3908.04 2015.87 3917.59 2022.93 3923.64 2031.48 3926.18 2041.51 3928.72 2051.54 3929.82 2062.24 3929.48 2073.59 3929.77 2087.62 3927.53 2100.17 3922.76 2111.22 3917.98 2122.28 3908.9 2130.86 3895.51 2136.97L3855.57 2154.14C3848.45 2156.95 3844.11 2160.65 3842.56 2165.24 3841.02 2169.82 3840.4 2177.24 3840.71 2187.47L3790.92 2187.47C3790.92 2184.44 3790.92 2180.69 3790.92 2176.21 3790.92 2171.73 3790.92 2167.9 3790.92 2164.7 3790.78 2156.76 3792.29 2149.28 3795.45 2142.25 3798.61 2135.22 3804.24 2129.72 3812.35 2125.75L3865.48 2100.99C3871.26 2098.23 3875.06 2094.75 3876.88 2090.55 3878.7 2086.35 3879.52 2081.14 3879.36 2074.92 3879.3 2070 3878.59 2066.05 3877.21 2063.07 3875.83 2060.1 3874.13 2057.88 3872.09 2056.43 3868.19 2053.41 3862.86 2051.53 3856.11 2050.78 3849.36 2050.03 3839.83 2049.71 3827.52 2049.83 3814.26 2049.64 3804.16 2050.24 3797.22 2051.61 3790.29 2052.99 3785.59 2056.28 3783.12 2061.47 3780.66 2066.66 3779.5 2074.88 3779.66 2086.14L3779.66 2091.09 3729.21 2091.09 3729.21 2083.5C3728.72 2069.74 3729.94 2056.25 3732.88 2043.04 3735.81 2029.82 3743.38 2019.23 3755.59 2011.25 3762.01 2007.69 3769.57 2005.14 3778.25 2003.59 3786.94 2002.05 3795.76 2001.11 3804.74 2000.77 3813.72 2000.44 3821.86 2000.3 3829.17 2000.37 3832.43 2000.3 3835.74 2000.29 3839.07 2000.35ZM3502.07 2000.35C3512.09 2000.52 3522.43 2001.25 3533.1 2002.56 3547.32 2004.29 3559.97 2008.73 3571.04 2015.87 3580.59 2022.93 3586.64 2031.48 3589.18 2041.51 3591.72 2051.54 3592.82 2062.24 3592.48 2073.59 3592.77 2087.62 3590.53 2100.17 3585.76 2111.22 3580.98 2122.28 3571.9 2130.86 3558.51 2136.97L3518.57 2154.14C3511.45 2156.95 3507.11 2160.65 3505.56 2165.24 3504.02 2169.82 3503.4 2177.24 3503.71 2187.47L3453.92 2187.47C3453.92 2184.44 3453.92 2180.69 3453.92 2176.21 3453.92 2171.73 3453.92 2167.9 3453.92 2164.7 3453.78 2156.76 3455.29 2149.28 3458.45 2142.25 3461.61 2135.22 3467.24 2129.72 3475.35 2125.75L3528.48 2100.99C3534.26 2098.23 3538.06 2094.75 3539.88 2090.55 3541.7 2086.35 3542.52 2081.14 3542.36 2074.92 3542.3 2070 3541.59 2066.05 3540.21 2063.07 3538.83 2060.1 3537.13 2057.88 3535.09 2056.43 3531.19 2053.41 3525.86 2051.53 3519.11 2050.78 3512.36 2050.03 3502.83 2049.71 3490.52 2049.83 3477.26 2049.64 3467.16 2050.24 3460.22 2051.61 3453.29 2052.99 3448.59 2056.28 3446.12 2061.47 3443.66 2066.66 3442.5 2074.88 3442.66 2086.14L3442.66 2091.09 3392.21 2091.09 3392.21 2083.5C3391.72 2069.74 3392.94 2056.25 3395.88 2043.04 3398.81 2029.82 3406.38 2019.23 3418.59 2011.25 3425.01 2007.69 3432.57 2005.14 3441.25 2003.59 3449.94 2002.05 3458.76 2001.11 3467.74 2000.77 3476.72 2000.44 3484.86 2000.3 3492.17 2000.37 3495.43 2000.3 3498.74 2000.29 3502.07 2000.35ZM3166.07 2000.35C3176.09 2000.52 3186.43 2001.25 3197.1 2002.56 3211.32 2004.29 3223.97 2008.73 3235.04 2015.87 3244.59 2022.93 3250.64 2031.48 3253.18 2041.51 3255.72 2051.54 3256.82 2062.24 3256.48 2073.59 3256.77 2087.62 3254.53 2100.17 3249.76 2111.22 3244.98 2122.28 3235.9 2130.86 3222.51 2136.97L3182.57 2154.14C3175.45 2156.95 3171.11 2160.65 3169.56 2165.24 3168.02 2169.82 3167.4 2177.24 3167.71 2187.47L3117.92 2187.47C3117.92 2184.44 3117.92 2180.69 3117.92 2176.21 3117.92 2171.73 3117.92 2167.9 3117.92 2164.7 3117.78 2156.76 3119.29 2149.28 3122.45 2142.25 3125.61 2135.22 3131.24 2129.72 3139.35 2125.75L3192.48 2100.99C3198.26 2098.23 3202.06 2094.75 3203.88 2090.55 3205.7 2086.35 3206.52 2081.14 3206.36 2074.92 3206.3 2070 3205.59 2066.05 3204.21 2063.07 3202.83 2060.1 3201.13 2057.88 3199.09 2056.43 3195.19 2053.41 3189.86 2051.53 3183.11 2050.78 3176.36 2050.03 3166.83 2049.71 3154.52 2049.83 3141.26 2049.64 3131.16 2050.24 3124.22 2051.61 3117.29 2052.99 3112.59 2056.28 3110.12 2061.47 3107.66 2066.66 3106.5 2074.88 3106.66 2086.14L3106.66 2091.09 3056.21 2091.09 3056.21 2083.5C3055.72 2069.74 3056.94 2056.25 3059.88 2043.04 3062.81 2029.82 3070.38 2019.23 3082.59 2011.25 3089.01 2007.69 3096.57 2005.14 3105.25 2003.59 3113.94 2002.05 3122.76 2001.11 3131.74 2000.77 3140.72 2000.44 3148.86 2000.3 3156.17 2000.37 3159.43 2000.3 3162.74 2000.29 3166.07 2000.35Z" stroke="#000000" stroke-width="3" stroke-linejoin="round" stroke-miterlimit="10" fill="#7030A0" fill-rule="evenodd"/><text fill="#000000" fill-opacity="0" font-family="Arial,Arial_MSFontService,sans-serif" font-size="263.028" x="3056.1" y="2230.46">? ? ?</text><path d="M1200.5 1354 1455.5 1354 1455.5 1322.5 1518.5 1385.5 1455.5 1448.5 1455.5 1417 1200.5 1417Z" stroke="#042433" stroke-width="6.875" stroke-miterlimit="8" fill="#7030A0" fill-rule="evenodd"/><path d="M1901.5 785.75 2157 785.75 2157 754.5 2219.5 817 2157 879.5 2157 848.25 1901.5 848.25Z" stroke="#042433" stroke-width="6.875" stroke-miterlimit="8" fill="#7030A0" fill-rule="evenodd"/><path d="M2294.03 688.745 2401.24 688.745 2401.24 948.743 2346.83 948.743 2346.83 738.203 2294.03 738.203Z" stroke="#000000" stroke-width="3" stroke-linejoin="round" stroke-miterlimit="10" fill-rule="evenodd"/><text fill="#000000" fill-opacity="0" font-family="Arial,Arial_MSFontService,sans-serif" font-size="259.999" x="2294.03" y="916.243">1</text><path d="M1626.86 1237.38 1840.14 1237.38 1840.14 1286.84 1677.08 1286.84 1675.1 1340C1680.94 1335.45 1686.84 1332.01 1692.81 1329.69 1698.78 1327.37 1705.43 1325.75 1712.77 1324.83 1719.7 1324.01 1726.63 1323.42 1733.56 1323.06 1740.5 1322.69 1747.43 1322.51 1754.36 1322.52 1770.51 1322 1786.39 1323.7 1802 1327.63 1817.61 1331.56 1830.1 1340.85 1839.48 1355.49 1843.97 1363.57 1846.94 1372.9 1848.38 1383.5 1849.83 1394.1 1850.49 1404.01 1850.36 1413.25 1850.6 1424.72 1849.39 1436.12 1846.74 1447.46 1844.08 1458.79 1838.59 1468.62 1830.25 1476.94 1822.15 1484.39 1812.58 1489.75 1801.53 1493.04 1790.47 1496.32 1779.01 1498.34 1767.14 1499.09 1755.28 1499.85 1744.09 1500.16 1733.56 1500.02 1722.81 1500.19 1710.86 1499.86 1697.71 1499.03 1684.56 1498.21 1671.97 1495.9 1659.96 1492.11 1647.94 1488.32 1638.27 1482.05 1630.94 1473.31 1624.56 1464.62 1620.42 1455.05 1618.54 1444.61 1616.65 1434.18 1615.73 1423.61 1615.77 1412.92L1669.85 1412.92C1669.69 1417.96 1670.02 1422.9 1670.84 1427.74 1671.67 1432.57 1673.98 1436.77 1677.78 1440.33 1683.9 1445.23 1692.04 1448.22 1702.2 1449.28 1712.36 1450.35 1723.47 1450.78 1735.53 1450.56 1740.94 1450.65 1747.43 1450.47 1755 1450.02 1762.56 1449.58 1769.76 1448.32 1776.59 1446.26 1783.43 1444.19 1788.45 1440.79 1791.66 1436.03 1793.44 1432.55 1794.67 1427.88 1795.33 1422 1796 1416.13 1796.32 1411.12 1796.28 1406.98 1796.22 1395.2 1793.56 1386.7 1788.29 1381.48 1783.01 1376.27 1775.51 1373.05 1765.76 1371.83 1756.01 1370.62 1744.39 1370.12 1730.9 1370.33 1723.69 1370.24 1715.34 1370.67 1705.85 1371.61 1696.36 1372.55 1688.43 1374.55 1682.04 1377.59 1679.46 1378.88 1677.52 1380.43 1676.22 1382.26 1674.91 1384.08 1673.88 1386.38 1673.12 1389.15L1623.23 1389.15Z" stroke="#000000" stroke-width="3" stroke-linejoin="round" stroke-miterlimit="10" fill-rule="evenodd"/><text fill="#000000" fill-opacity="0" font-family="Arial,Arial_MSFontService,sans-serif" font-size="262.68" x="1615.77" y="1467.23">5</text></g></svg>