<svg width="2201" height="1633" xmlns="http://www.w3.org/2000/svg" xmlns:xlink="http://www.w3.org/1999/xlink" xml:space="preserve" overflow="hidden"><g transform="translate(-1100 -422)"><path d="M1733.77 587.555 1602.65 740.73 1733.77 740.73ZM1704.73 527.77 1805.44 527.77 1805.44 740.73 1861.76 740.73 1861.76 806.675 1805.44 806.675 1805.44 874.435 1733.77 874.435 1733.77 806.675 1528.73 806.675 1528.73 735.01Z" stroke="#0D0D0D" stroke-width="3" stroke-linejoin="round" stroke-miterlimit="10" fill-rule="evenodd"/><text fill="#000000" fill-opacity="0" font-family="Arial,Arial_MSFontService,sans-serif" font-size="346.665" x="1528.73" y="831.102">4</text><path d="M2058.51 527.77 2342.88 527.77 2342.88 593.715 2125.47 593.715 2122.83 664.59C2130.61 658.527 2138.48 653.947 2146.44 650.851 2154.39 647.756 2163.26 645.594 2173.05 644.367 2182.29 643.277 2191.53 642.49 2200.78 642.004 2210.02 641.519 2219.26 641.281 2228.5 641.29 2250.04 640.594 2271.22 642.865 2292.03 648.104 2312.84 653.343 2329.5 665.725 2342 685.252 2347.99 696.015 2351.95 708.462 2353.87 722.592 2355.79 736.722 2356.67 749.947 2356.51 762.264 2356.82 777.553 2355.21 792.755 2351.67 807.87 2348.14 822.986 2340.81 836.089 2329.69 847.181 2318.9 857.111 2306.13 864.264 2291.39 868.641 2276.65 873.019 2261.37 875.711 2245.55 876.718 2229.73 877.724 2214.81 878.137 2200.78 877.955 2186.44 878.175 2170.51 877.735 2152.97 876.636 2135.43 875.537 2118.65 872.46 2102.64 867.404 2086.62 862.348 2073.72 853.995 2063.95 842.345 2055.44 830.749 2049.92 817.993 2047.41 804.077 2044.89 790.161 2043.66 776.077 2043.72 761.824L2115.83 761.824C2115.61 768.547 2116.05 775.132 2117.15 781.579 2118.25 788.027 2121.33 793.621 2126.39 798.363 2134.55 804.902 2145.41 808.883 2158.96 810.304 2172.51 811.726 2187.32 812.294 2203.39 812.01 2210.61 812.13 2219.27 811.891 2229.35 811.293 2239.44 810.695 2249.04 809.021 2258.15 806.271 2267.26 803.521 2273.96 798.977 2278.24 792.64 2280.61 787.999 2282.25 781.763 2283.14 773.93 2284.03 766.098 2284.45 759.421 2284.4 753.9 2284.32 738.19 2280.77 726.859 2273.74 719.905 2266.71 712.951 2256.7 708.663 2243.7 707.04 2230.71 705.418 2215.22 704.75 2197.23 705.035 2187.61 704.916 2176.47 705.484 2163.83 706.741 2151.18 707.997 2140.59 710.657 2132.07 714.72 2128.63 716.435 2126.05 718.507 2124.31 720.938 2122.58 723.368 2121.2 726.432 2120.18 730.128L2053.66 730.128Z" stroke="#0D0D0D" stroke-width="3" stroke-linejoin="round" stroke-miterlimit="10" fill-rule="evenodd"/><text fill="#000000" fill-opacity="0" font-family="Arial,Arial_MSFontService,sans-serif" font-size="350.24" x="2043.72" y="834.23">5</text><path d="M2614.6 527.77 2757.54 527.77 2757.54 874.435 2685 874.435 2685 593.715 2614.6 593.715Z" stroke="#0D0D0D" stroke-width="3" stroke-linejoin="round" stroke-miterlimit="10" fill-rule="evenodd"/><text fill="#000000" fill-opacity="0" font-family="Arial,Arial_MSFontService,sans-serif" font-size="346.665" x="2614.6" y="831.102">1</text><path d="M1733.77 1115.56 1602.65 1268.73 1733.77 1268.73ZM1704.73 1055.77 1805.44 1055.77 1805.44 1268.73 1861.76 1268.73 1861.76 1334.68 1805.44 1334.68 1805.44 1402.44 1733.77 1402.44 1733.77 1334.68 1528.73 1334.68 1528.73 1263.01Z" stroke="#0D0D0D" stroke-width="3" stroke-linejoin="round" stroke-miterlimit="10" fill-rule="evenodd"/><text fill="#000000" fill-opacity="0" font-family="Arial,Arial_MSFontService,sans-serif" font-size="346.665" x="1528.73" y="1359.1">4</text><path d="M2058.51 1055.77 2342.88 1055.77 2342.88 1121.72 2125.47 1121.72 2122.83 1192.59C2130.61 1186.53 2138.48 1181.95 2146.44 1178.85 2154.39 1175.76 2163.26 1173.59 2173.05 1172.37 2182.29 1171.28 2191.53 1170.49 2200.78 1170 2210.02 1169.52 2219.26 1169.28 2228.5 1169.29 2250.04 1168.59 2271.22 1170.87 2292.03 1176.1 2312.84 1181.34 2329.5 1193.73 2342 1213.25 2347.99 1224.02 2351.95 1236.46 2353.87 1250.59 2355.79 1264.72 2356.67 1277.95 2356.51 1290.26 2356.82 1305.55 2355.21 1320.75 2351.67 1335.87 2348.14 1350.99 2340.81 1364.09 2329.69 1375.18 2318.9 1385.11 2306.13 1392.26 2291.39 1396.64 2276.65 1401.02 2261.37 1403.71 2245.55 1404.72 2229.73 1405.72 2214.81 1406.14 2200.78 1405.96 2186.44 1406.17 2170.51 1405.74 2152.97 1404.64 2135.43 1403.54 2118.65 1400.46 2102.64 1395.4 2086.62 1390.35 2073.72 1382 2063.95 1370.34 2055.44 1358.75 2049.92 1345.99 2047.41 1332.08 2044.89 1318.16 2043.66 1304.08 2043.72 1289.82L2115.83 1289.82C2115.61 1296.55 2116.05 1303.13 2117.15 1309.58 2118.25 1316.03 2121.33 1321.62 2126.39 1326.36 2134.55 1332.9 2145.41 1336.88 2158.96 1338.3 2172.51 1339.73 2187.32 1340.29 2203.39 1340.01 2210.61 1340.13 2219.27 1339.89 2229.35 1339.29 2239.44 1338.69 2249.04 1337.02 2258.15 1334.27 2267.26 1331.52 2273.96 1326.98 2278.24 1320.64 2280.61 1316 2282.25 1309.76 2283.14 1301.93 2284.03 1294.1 2284.45 1287.42 2284.4 1281.9 2284.32 1266.19 2280.77 1254.86 2273.74 1247.9 2266.71 1240.95 2256.7 1236.66 2243.7 1235.04 2230.71 1233.42 2215.22 1232.75 2197.23 1233.04 2187.61 1232.92 2176.47 1233.48 2163.83 1234.74 2151.18 1236 2140.59 1238.66 2132.07 1242.72 2128.63 1244.43 2126.05 1246.51 2124.31 1248.94 2122.58 1251.37 2121.2 1254.43 2120.18 1258.13L2053.66 1258.13Z" stroke="#0D0D0D" stroke-width="3" stroke-linejoin="round" stroke-miterlimit="10" fill-rule="evenodd"/><text fill="#000000" fill-opacity="0" font-family="Arial,Arial_MSFontService,sans-serif" font-size="350.24" x="2043.72" y="1362.23">5 </text><path d="M2614.6 1055.77 2757.54 1055.77 2757.54 1402.44 2685 1402.44 2685 1121.72 2614.6 1121.72Z" stroke="#0D0D0D" stroke-width="3" stroke-linejoin="round" stroke-miterlimit="10" fill-rule="evenodd"/><text fill="#000000" fill-opacity="0" font-family="Arial,Arial_MSFontService,sans-serif" font-size="346.665" x="2614.6" y="1359.1">1</text><path d="M2596.03 1860.97 2665.05 1860.97 2665.05 1930.44 2596.03 1930.44ZM2148.03 1860.97 2217.05 1860.97 2217.05 1930.44 2148.03 1930.44ZM1700.03 1860.97 1769.05 1860.97 1769.05 1930.44 1700.03 1930.44ZM2661.56 1579.78C2674.91 1580 2688.7 1580.98 2702.92 1582.72 2721.89 1585.04 2738.75 1590.96 2753.52 1600.47 2766.25 1609.89 2774.31 1621.28 2777.7 1634.66 2781.09 1648.03 2782.55 1662.3 2782.09 1677.44 2782.49 1696.15 2779.5 1712.87 2773.14 1727.62 2766.77 1742.36 2754.66 1753.8 2736.81 1761.94L2683.55 1784.83C2674.06 1788.58 2668.28 1793.51 2666.21 1799.63 2664.15 1805.74 2663.32 1815.63 2663.73 1829.28L2597.35 1829.28C2597.35 1825.24 2597.35 1820.23 2597.35 1814.26 2597.35 1808.29 2597.35 1803.18 2597.35 1798.91 2597.17 1788.33 2599.18 1778.36 2603.39 1768.99 2607.61 1759.62 2615.12 1752.28 2625.92 1746.98L2696.77 1713.97C2704.48 1710.3 2709.54 1705.66 2711.96 1700.05 2714.39 1694.45 2715.49 1687.5 2715.27 1679.2 2715.19 1672.65 2714.24 1667.38 2712.41 1663.41 2710.57 1659.44 2708.29 1656.49 2705.58 1654.56 2700.37 1650.53 2693.27 1648.02 2684.27 1647.02 2675.28 1646.02 2662.57 1645.6 2646.15 1645.76 2628.47 1645.51 2615 1646.3 2605.76 1648.13 2596.51 1649.97 2590.24 1654.35 2586.95 1661.27 2583.67 1668.19 2582.13 1679.16 2582.33 1694.17L2582.33 1700.77 2515.07 1700.77 2515.07 1690.65C2514.42 1672.3 2516.05 1654.32 2519.96 1636.7 2523.87 1619.08 2533.96 1604.95 2550.24 1594.32 2558.81 1589.57 2568.88 1586.17 2580.46 1584.11 2592.04 1582.05 2603.81 1580.8 2615.78 1580.35 2627.75 1579.9 2638.6 1579.72 2648.35 1579.81 2652.7 1579.72 2657.1 1579.71 2661.56 1579.78ZM2213.56 1579.78C2226.91 1580 2240.7 1580.98 2254.92 1582.72 2273.89 1585.04 2290.75 1590.96 2305.52 1600.47 2318.25 1609.89 2326.31 1621.28 2329.7 1634.66 2333.09 1648.03 2334.55 1662.3 2334.09 1677.44 2334.49 1696.15 2331.5 1712.87 2325.14 1727.62 2318.77 1742.36 2306.66 1753.8 2288.81 1761.94L2235.55 1784.83C2226.06 1788.58 2220.28 1793.51 2218.21 1799.63 2216.15 1805.74 2215.32 1815.63 2215.73 1829.28L2149.35 1829.28C2149.35 1825.24 2149.35 1820.23 2149.35 1814.26 2149.35 1808.29 2149.35 1803.18 2149.35 1798.91 2149.17 1788.33 2151.18 1778.36 2155.39 1768.99 2159.61 1759.62 2167.12 1752.28 2177.92 1746.98L2248.77 1713.97C2256.48 1710.3 2261.54 1705.66 2263.96 1700.05 2266.39 1694.45 2267.49 1687.5 2267.27 1679.2 2267.19 1672.65 2266.24 1667.38 2264.41 1663.41 2262.57 1659.44 2260.29 1656.49 2257.58 1654.56 2252.37 1650.53 2245.27 1648.02 2236.27 1647.02 2227.28 1646.02 2214.57 1645.6 2198.15 1645.76 2180.47 1645.51 2167 1646.3 2157.76 1648.13 2148.51 1649.97 2142.24 1654.35 2138.95 1661.27 2135.67 1668.19 2134.13 1679.16 2134.33 1694.17L2134.33 1700.77 2067.07 1700.77 2067.07 1690.65C2066.42 1672.3 2068.05 1654.32 2071.96 1636.7 2075.87 1619.08 2085.96 1604.95 2102.24 1594.32 2110.81 1589.57 2120.88 1586.17 2132.46 1584.11 2144.04 1582.05 2155.81 1580.8 2167.78 1580.35 2179.75 1579.9 2190.6 1579.72 2200.35 1579.81 2204.7 1579.72 2209.1 1579.71 2213.56 1579.78ZM1765.56 1579.78C1778.91 1580 1792.7 1580.98 1806.92 1582.72 1825.89 1585.04 1842.75 1590.96 1857.52 1600.47 1870.25 1609.89 1878.31 1621.28 1881.7 1634.66 1885.09 1648.03 1886.55 1662.3 1886.09 1677.44 1886.49 1696.15 1883.5 1712.87 1877.14 1727.62 1870.77 1742.36 1858.66 1753.8 1840.81 1761.94L1787.55 1784.83C1778.06 1788.58 1772.28 1793.51 1770.21 1799.63 1768.15 1805.74 1767.32 1815.63 1767.73 1829.28L1701.35 1829.28C1701.35 1825.24 1701.35 1820.23 1701.35 1814.26 1701.35 1808.29 1701.35 1803.18 1701.35 1798.91 1701.17 1788.33 1703.18 1778.36 1707.39 1768.99 1711.61 1759.62 1719.12 1752.28 1729.92 1746.98L1800.77 1713.97C1808.48 1710.3 1813.54 1705.66 1815.96 1700.05 1818.39 1694.45 1819.49 1687.5 1819.27 1679.2 1819.19 1672.65 1818.24 1667.38 1816.41 1663.41 1814.57 1659.44 1812.29 1656.49 1809.58 1654.56 1804.37 1650.53 1797.27 1648.02 1788.27 1647.02 1779.28 1646.02 1766.57 1645.6 1750.15 1645.76 1732.47 1645.51 1719 1646.3 1709.76 1648.13 1700.51 1649.97 1694.24 1654.35 1690.95 1661.27 1687.67 1668.19 1686.13 1679.16 1686.33 1694.17L1686.33 1700.77 1619.07 1700.77 1619.07 1690.65C1618.42 1672.3 1620.05 1654.32 1623.96 1636.7 1627.87 1619.08 1637.96 1604.95 1654.24 1594.32 1662.81 1589.57 1672.88 1586.17 1684.46 1584.11 1696.04 1582.05 1707.81 1580.8 1719.78 1580.35 1731.75 1579.9 1742.6 1579.72 1752.35 1579.81 1756.7 1579.72 1761.11 1579.71 1765.56 1579.78Z" stroke="#0D0D0D" stroke-width="3" stroke-linejoin="round" stroke-miterlimit="10" fill="#FF0000" fill-rule="evenodd"/><text fill="#000000" fill-opacity="0" font-family="Arial,Arial_MSFontService,sans-serif" font-size="350.703" x="1618.93" y="1886.6">? ? ?</text></g></svg>