<svg width="3212" height="1657" xmlns="http://www.w3.org/2000/svg" xmlns:xlink="http://www.w3.org/1999/xlink" xml:space="preserve" overflow="hidden"><g transform="translate(-613 -493)"><path d="M1733.47 1452.77 1781.01 1452.77 1781.01 1500.6 1733.47 1500.6ZM1778.6 1259.13C1787.8 1259.28 1797.29 1259.96 1807.09 1261.16 1820.14 1262.75 1831.76 1266.83 1841.93 1273.38 1850.69 1279.86 1856.24 1287.71 1858.58 1296.92 1860.91 1306.13 1861.92 1315.95 1861.6 1326.38 1861.88 1339.26 1859.82 1350.78 1855.44 1360.93 1851.05 1371.09 1842.71 1378.97 1830.42 1384.57L1793.75 1400.33C1787.21 1402.92 1783.23 1406.31 1781.8 1410.53 1780.38 1414.74 1779.81 1421.54 1780.1 1430.94L1734.38 1430.94C1734.38 1428.16 1734.38 1424.71 1734.38 1420.6 1734.38 1416.49 1734.38 1412.97 1734.38 1410.03 1734.26 1402.75 1735.64 1395.88 1738.55 1389.42 1741.45 1382.97 1746.62 1377.92 1754.06 1374.27L1802.85 1351.54C1808.16 1349.01 1811.64 1345.81 1813.31 1341.95 1814.98 1338.1 1815.74 1333.31 1815.59 1327.6 1815.54 1323.08 1814.88 1319.46 1813.61 1316.72 1812.35 1313.99 1810.78 1311.96 1808.91 1310.62 1805.33 1307.85 1800.44 1306.12 1794.24 1305.43 1788.05 1304.74 1779.29 1304.45 1767.99 1304.56 1755.81 1304.39 1746.54 1304.94 1740.17 1306.2 1733.8 1307.47 1729.49 1310.48 1727.22 1315.25 1724.96 1320.01 1723.9 1327.57 1724.04 1337.9L1724.04 1342.45 1677.72 1342.45 1677.72 1335.48C1677.27 1322.84 1678.4 1310.46 1681.09 1298.32 1683.78 1286.19 1690.73 1276.46 1701.94 1269.14 1707.84 1265.87 1714.78 1263.53 1722.75 1262.11 1730.73 1260.69 1738.83 1259.83 1747.07 1259.52 1755.32 1259.21 1762.79 1259.09 1769.5 1259.15 1772.5 1259.08 1775.53 1259.08 1778.6 1259.13Z" stroke="#7030A0" stroke-width="14" stroke-linejoin="round" stroke-miterlimit="10" fill="#FF0000" fill-rule="evenodd"/><text fill="#000000" fill-opacity="0" font-family="Arial,Arial_MSFontService,sans-serif" font-size="241.507" x="1677.63" y="1470.41">?</text><path d="M744.253 876.063 813.278 876.063 813.278 945.528 744.253 945.528ZM809.781 594.874C823.136 595.098 836.925 596.078 851.147 597.816 870.11 600.134 886.975 606.05 901.741 615.566 914.472 624.981 922.532 636.377 925.921 649.752 929.31 663.128 930.776 677.389 930.318 692.536 930.712 711.241 927.726 727.965 921.36 742.709 914.994 757.453 902.886 768.896 885.035 777.038L831.779 799.924C822.281 803.674 816.5 808.607 814.435 814.723 812.371 820.838 811.545 830.722 811.958 844.375L745.573 844.375C745.573 840.332 745.573 835.325 745.573 829.356 745.573 823.387 745.573 818.271 745.573 814.007 745.39 803.426 747.405 793.45 751.618 784.08 755.831 774.709 763.341 767.374 774.149 762.074L844.993 729.065C852.701 725.389 857.767 720.749 860.189 715.147 862.612 709.544 863.713 702.594 863.493 694.296 863.419 687.74 862.465 682.477 860.63 678.507 858.794 674.537 856.519 671.585 853.802 669.65 848.599 665.625 841.497 663.113 832.499 662.113 823.5 661.114 810.791 660.693 794.372 660.848 776.692 660.599 763.228 661.392 753.98 663.228 744.732 665.065 738.465 669.444 735.178 676.366 731.892 683.288 730.352 694.253 730.558 709.26L730.558 715.862 663.293 715.862 663.293 705.739C662.642 687.393 664.273 669.41 668.184 651.791 672.095 634.171 682.188 620.045 698.464 609.412 707.035 604.665 717.109 601.262 728.686 599.202 740.263 597.142 752.036 595.889 764.004 595.441 775.972 594.993 786.827 594.814 796.571 594.903 800.926 594.81 805.33 594.8 809.781 594.874Z" stroke="#0070C0" stroke-width="14" stroke-linejoin="round" stroke-miterlimit="10" fill="#FF0000" fill-rule="evenodd"/><text fill="#000000" fill-opacity="0" font-family="Arial,Arial_MSFontService,sans-serif" font-size="350.703" x="663.154" y="901.69">?</text><path d="M2586.25 1966.98 2655.28 1966.98 2655.28 2036.45 2586.25 2036.45ZM2651.78 1685.79C2665.14 1686.02 2678.93 1687 2693.15 1688.74 2712.11 1691.05 2728.98 1696.97 2743.74 1706.49 2756.47 1715.9 2764.53 1727.3 2767.92 1740.67 2771.31 1754.05 2772.78 1768.31 2772.32 1783.46 2772.71 1802.16 2769.73 1818.89 2763.36 1833.63 2757 1848.37 2744.89 1859.82 2727.04 1867.96L2673.78 1890.84C2664.28 1894.59 2658.5 1899.53 2656.44 1905.64 2654.37 1911.76 2653.55 1921.64 2653.96 1935.3L2587.57 1935.3C2587.57 1931.25 2587.57 1926.25 2587.57 1920.28 2587.57 1914.31 2587.57 1909.19 2587.57 1904.93 2587.39 1894.35 2589.41 1884.37 2593.62 1875 2597.83 1865.63 2605.34 1858.29 2616.15 1852.99L2686.99 1819.99C2694.7 1816.31 2699.77 1811.67 2702.19 1806.07 2704.61 1800.46 2705.71 1793.51 2705.49 1785.22 2705.42 1778.66 2704.47 1773.4 2702.63 1769.43 2700.8 1765.46 2698.52 1762.51 2695.8 1760.57 2690.6 1756.55 2683.5 1754.03 2674.5 1753.03 2665.5 1752.03 2652.79 1751.61 2636.37 1751.77 2618.69 1751.52 2605.23 1752.31 2595.98 1754.15 2586.73 1755.99 2580.47 1760.36 2577.18 1767.29 2573.89 1774.21 2572.35 1785.17 2572.56 1800.18L2572.56 1806.78 2505.29 1806.78 2505.29 1796.66C2504.64 1778.31 2506.27 1760.33 2510.19 1742.71 2514.1 1725.09 2524.19 1710.97 2540.47 1700.33 2549.04 1695.59 2559.11 1692.18 2570.69 1690.12 2582.27 1688.06 2594.04 1686.81 2606.01 1686.36 2617.97 1685.91 2628.83 1685.73 2638.57 1685.82 2642.93 1685.73 2647.33 1685.72 2651.78 1685.79Z" stroke="#00B050" stroke-width="14" stroke-linejoin="round" stroke-miterlimit="10" fill="#FF0000" fill-rule="evenodd"/><text fill="#000000" fill-opacity="0" font-family="Arial,Arial_MSFontService,sans-serif" font-size="350.703" x="2505.16" y="1992.61">?</text><path d="M2366.5 1671.71 1982.18 1481.76 1970.07 1506.26 1945.29 1433.05 2018.5 1408.27 2006.39 1432.77 2390.71 1622.72Z" stroke="#000000" stroke-width="6.875" stroke-miterlimit="8" fill="#FF0000" fill-rule="evenodd"/><path d="M1577.49 1257.65 1003.27 940.257 989.24 965.637 966.537 886.821 1045.35 864.118 1031.32 889.497 1605.55 1206.89Z" stroke="#000000" stroke-width="6.875" stroke-miterlimit="8" fill="#FF0000" fill-rule="evenodd"/><path d="M2219.8 568.399C2239.45 568.009 2257.34 569.261 2273.47 572.157 2289.6 575.053 2302.51 581.936 2312.17 592.808 2321.84 603.68 2326.8 620.884 2327.05 644.421 2327.22 653.905 2326.19 663.503 2323.98 673.214 2321.77 682.925 2317.34 691.31 2310.7 698.369 2304.98 703.9 2297.8 708.522 2289.16 712.235 2280.52 715.948 2272.05 718.297 2263.75 719.282L2189.19 728.374C2185.89 728.81 2182.03 729.605 2177.6 730.761 2173.16 731.916 2169.75 733.545 2167.37 735.648 2165.1 738.129 2163.42 741.425 2162.33 745.536 2161.24 749.646 2160.69 753.321 2160.7 756.56L2160.7 764.137 2325.53 764.137 2325.53 809.549 2111.04 809.549 2111.04 767.165C2110.8 755.94 2111.66 745.207 2113.62 734.966 2115.57 724.724 2120.06 715.051 2127.09 705.946 2132.41 699.493 2138.96 694.593 2146.73 691.247 2154.51 687.9 2162.5 685.728 2170.7 684.731L2248.29 675.941C2258.67 675.026 2266.18 672.538 2270.84 668.478 2275.49 664.418 2277.78 657.005 2277.69 646.24 2277.83 640.405 2276.95 635.102 2275.04 630.328 2273.14 625.555 2269.37 621.766 2263.75 618.963 2260.33 617.468 2255.72 616.349 2249.91 615.607 2244.1 614.864 2238.21 614.374 2232.23 614.137 2226.25 613.899 2221.3 613.791 2217.38 613.811 2201.94 613.703 2190.45 614.728 2182.88 616.887 2175.32 619.046 2170.33 622.989 2167.92 628.718 2165.51 634.446 2164.31 642.61 2164.34 653.211L2115.28 653.211C2115.03 641.22 2115.91 629.516 2117.93 618.099 2119.95 606.682 2125.53 596.574 2134.66 587.775 2141.62 581.818 2150.05 577.452 2159.96 574.679 2169.87 571.905 2180.1 570.141 2190.65 569.386 2201.2 568.631 2210.92 568.302 2219.8 568.399Z" stroke="#FFFF00" stroke-width="14" stroke-linejoin="round" stroke-miterlimit="10" fill-rule="evenodd"/><text fill="#000000" fill-opacity="0" font-family="Arial,Arial_MSFontService,sans-serif" font-size="241.22" x="2111.01" y="779.397">2</text><path d="M833.322 1885.91C831.231 1885.92 829.106 1885.94 826.946 1885.97 805.474 1885.71 788.168 1886.47 775.026 1888.25 761.884 1890.03 752.337 1894.38 746.384 1901.3 740.431 1908.21 737.503 1919.25 737.598 1934.4 737.488 1941.1 738.588 1947.29 740.899 1952.95 743.21 1958.6 747.391 1963.14 753.443 1966.54 758.966 1969.42 766.112 1971.53 774.879 1972.85 783.647 1974.17 792.585 1975 801.695 1975.34 810.805 1975.69 818.635 1975.83 825.186 1975.78 858.508 1976.37 881.652 1973.77 894.617 1967.97 907.583 1962.17 913.781 1949.66 913.213 1930.44 913.101 1916.03 909.461 1905.66 902.291 1899.34 895.121 1893.02 885.091 1889.14 872.199 1887.71 860.919 1886.46 847.96 1885.86 833.322 1885.91ZM835.257 1749.44C832.146 1749.45 828.935 1749.49 825.625 1749.57 796.236 1748.95 775.237 1751.06 762.629 1755.9 750.021 1760.73 743.877 1771.98 744.198 1789.64 744.198 1802.46 747.377 1811.65 753.734 1817.21 760.092 1822.78 769.628 1826.16 782.344 1827.37 795.059 1828.58 810.953 1829.07 830.026 1828.82 859.406 1829.42 879.653 1827.13 890.767 1821.94 901.881 1816.76 907.163 1805.11 906.613 1786.99 906.539 1770.02 899.644 1759.38 885.926 1755.07 873.922 1751.3 857.033 1749.42 835.257 1749.44ZM831.347 1686.26C844.627 1686.08 859.437 1686.64 875.777 1687.94 892.117 1689.24 907.77 1692.37 922.737 1697.34 937.705 1702.3 949.769 1710.19 958.932 1720.99 965.682 1729.95 970.537 1739.96 973.496 1751.01 976.454 1762.07 977.902 1773.18 977.838 1784.35 978.021 1800.64 974.797 1815.17 968.166 1827.93 961.535 1840.69 950.398 1850.36 934.756 1856.96 953.157 1862.8 966.036 1873.43 973.391 1888.85 980.746 1904.27 984.282 1921.06 983.998 1939.24 984.199 1955.79 981.268 1971.23 975.204 1985.56 969.141 1999.89 958.736 2011.58 943.989 2020.63 931.935 2027.64 919.547 2032.29 906.824 2034.58 894.102 2036.87 880.827 2038.23 866.999 2038.65 859.058 2039.09 851.062 2039.42 843.011 2039.64 834.961 2039.86 826.965 2039.97 819.024 2039.97 794.005 2040.45 769.961 2038.66 746.893 2034.58 723.826 2030.5 704.841 2021.24 689.941 2006.8 675.04 1992.36 667.331 1969.84 666.813 1939.24 666.666 1927.61 668.058 1916.09 670.989 1904.68 673.921 1893.27 679.27 1883.08 687.037 1874.1 690.975 1869.73 695.299 1866.16 700.007 1863.39 704.716 1860.61 709.92 1858.47 715.62 1856.96 699.993 1850.18 688.929 1840.43 682.425 1827.71 675.922 1814.99 672.771 1800.39 672.973 1783.91 672.826 1769.37 675.208 1755.53 680.117 1742.38 685.027 1729.23 693.344 1718.14 705.068 1709.12 716.206 1701.24 728.336 1695.91 741.459 1693.13 754.582 1690.36 767.819 1688.65 781.17 1688.02 797.896 1686.78 814.621 1686.19 831.347 1686.26Z" stroke="#0070C0" stroke-width="14" stroke-linejoin="round" stroke-miterlimit="10" fill-rule="evenodd"/><text fill="#000000" fill-opacity="0" font-family="Arial,Arial_MSFontService,sans-serif" font-size="353.815" x="666.802" y="1995.82">8</text></g></svg>