<svg width="2400" height="2165" xmlns="http://www.w3.org/2000/svg" xmlns:xlink="http://www.w3.org/1999/xlink" xml:space="preserve" overflow="hidden"><g transform="translate(-1000 -155)"><path d="M2158.24 537.523 2227.26 537.523 2227.26 606.988 2158.24 606.988ZM2223.77 256.334C2237.12 256.557 2250.91 257.538 2265.13 259.276 2284.1 261.593 2300.96 267.51 2315.73 277.026 2328.46 286.441 2336.52 297.836 2339.91 311.212 2343.3 324.588 2344.76 338.849 2344.3 353.996 2344.7 372.701 2341.71 389.425 2335.35 404.169 2328.98 418.913 2316.87 430.355 2299.02 438.498L2245.77 461.384C2236.27 465.134 2230.49 470.067 2228.42 476.182 2226.36 482.298 2225.53 492.182 2225.94 505.835L2159.56 505.835C2159.56 501.792 2159.56 496.785 2159.56 490.816 2159.56 484.847 2159.56 479.731 2159.56 475.467 2159.38 464.886 2161.39 454.91 2165.6 445.539 2169.82 436.169 2177.33 428.833 2188.14 423.534L2258.98 390.525C2266.69 386.848 2271.75 382.209 2274.18 376.607 2276.6 371.004 2277.7 364.054 2277.48 355.756 2277.41 349.2 2276.45 343.937 2274.62 339.967 2272.78 335.997 2270.51 333.044 2267.79 331.11 2262.59 327.085 2255.48 324.572 2246.49 323.573 2237.49 322.574 2224.78 322.152 2208.36 322.308 2190.68 322.058 2177.22 322.852 2167.97 324.688 2158.72 326.524 2152.45 330.904 2149.17 337.826 2145.88 344.748 2144.34 355.713 2144.54 370.72L2144.54 377.322 2077.28 377.322 2077.28 367.199C2076.63 348.853 2078.26 330.87 2082.17 313.25 2086.08 295.631 2096.18 281.505 2112.45 270.871 2121.02 266.125 2131.1 262.722 2142.67 260.662 2154.25 258.602 2166.02 257.348 2177.99 256.901 2189.96 256.453 2200.81 256.274 2210.56 256.363 2214.91 256.269 2219.32 256.26 2223.77 256.334Z" stroke="#0D0D0D" stroke-width="3" stroke-linejoin="round" stroke-miterlimit="10" fill="#FFFF00" fill-rule="evenodd"/><text fill="#000000" fill-opacity="0" font-family="Arial,Arial_MSFontService,sans-serif" font-size="350.703" x="2077.14" y="563.15">?</text><path d="M1718.24 1065.52 1787.26 1065.52 1787.26 1134.99 1718.24 1134.99ZM1783.77 784.334C1797.12 784.557 1810.91 785.538 1825.13 787.276 1844.1 789.593 1860.96 795.51 1875.73 805.026 1888.46 814.441 1896.52 825.836 1899.91 839.212 1903.3 852.588 1904.76 866.849 1904.3 881.996 1904.7 900.701 1901.71 917.425 1895.35 932.169 1888.98 946.912 1876.87 958.355 1859.02 966.498L1805.77 989.384C1796.27 993.134 1790.49 998.067 1788.42 1004.18 1786.36 1010.3 1785.53 1020.18 1785.94 1033.84L1719.56 1033.84C1719.56 1029.79 1719.56 1024.79 1719.56 1018.82 1719.56 1012.85 1719.56 1007.73 1719.56 1003.47 1719.38 992.886 1721.39 982.91 1725.6 973.539 1729.82 964.169 1737.33 956.833 1748.14 951.534L1818.98 918.525C1826.69 914.848 1831.75 910.209 1834.18 904.607 1836.6 899.004 1837.7 892.054 1837.48 883.756 1837.41 877.2 1836.45 871.937 1834.62 867.967 1832.78 863.997 1830.51 861.044 1827.79 859.11 1822.59 855.085 1815.48 852.572 1806.49 851.573 1797.49 850.574 1784.78 850.152 1768.36 850.308 1750.68 850.058 1737.22 850.852 1727.97 852.688 1718.72 854.524 1712.45 858.904 1709.17 865.826 1705.88 872.748 1704.34 883.713 1704.54 898.72L1704.54 905.322 1637.28 905.322 1637.28 895.199C1636.63 876.853 1638.26 858.87 1642.17 841.25 1646.08 823.631 1656.18 809.505 1672.45 798.871 1681.02 794.125 1691.1 790.722 1702.67 788.662 1714.25 786.602 1726.02 785.348 1737.99 784.901 1749.96 784.453 1760.81 784.274 1770.56 784.363 1774.91 784.269 1779.32 784.26 1783.77 784.334Z" stroke="#0D0D0D" stroke-width="3" stroke-linejoin="round" stroke-miterlimit="10" fill="#FFFF00" fill-rule="evenodd"/><text fill="#000000" fill-opacity="0" font-family="Arial,Arial_MSFontService,sans-serif" font-size="350.704" x="1637.14" y="1091.15">?</text><path d="M2598.24 1593.52 2667.26 1593.52 2667.26 1662.99 2598.24 1662.99ZM2663.77 1312.33C2677.12 1312.56 2690.91 1313.54 2705.13 1315.28 2724.1 1317.59 2740.96 1323.51 2755.73 1333.03 2768.46 1342.44 2776.52 1353.84 2779.91 1367.21 2783.3 1380.59 2784.76 1394.85 2784.3 1410 2784.7 1428.7 2781.71 1445.42 2775.35 1460.17 2768.98 1474.91 2756.87 1486.36 2739.02 1494.5L2685.77 1517.38C2676.27 1521.13 2670.49 1526.07 2668.42 1532.18 2666.36 1538.3 2665.53 1548.18 2665.94 1561.83L2599.56 1561.83C2599.56 1557.79 2599.56 1552.79 2599.56 1546.82 2599.56 1540.85 2599.56 1535.73 2599.56 1531.47 2599.38 1520.89 2601.39 1510.91 2605.6 1501.54 2609.82 1492.17 2617.33 1484.83 2628.14 1479.53L2698.98 1446.53C2706.69 1442.85 2711.75 1438.21 2714.18 1432.61 2716.6 1427 2717.7 1420.05 2717.48 1411.76 2717.41 1405.2 2716.45 1399.94 2714.62 1395.97 2712.78 1392 2710.51 1389.04 2707.79 1387.11 2702.59 1383.08 2695.48 1380.57 2686.49 1379.57 2677.49 1378.57 2664.78 1378.15 2648.36 1378.31 2630.68 1378.06 2617.22 1378.85 2607.97 1380.69 2598.72 1382.52 2592.45 1386.9 2589.17 1393.83 2585.88 1400.75 2584.34 1411.71 2584.54 1426.72L2584.54 1433.32 2517.28 1433.32 2517.28 1423.2C2516.63 1404.85 2518.26 1386.87 2522.17 1369.25 2526.08 1351.63 2536.18 1337.5 2552.45 1326.87 2561.02 1322.12 2571.1 1318.72 2582.67 1316.66 2594.25 1314.6 2606.02 1313.35 2617.99 1312.9 2629.96 1312.45 2640.81 1312.27 2650.56 1312.36 2654.91 1312.27 2659.32 1312.26 2663.77 1312.33Z" stroke="#0D0D0D" stroke-width="3" stroke-linejoin="round" stroke-miterlimit="10" fill="#FFFF00" fill-rule="evenodd"/><text fill="#000000" fill-opacity="0" font-family="Arial,Arial_MSFontService,sans-serif" font-size="350.704" x="2517.14" y="1619.15">?</text><path d="M1816.95 1906.73C1814.06 1906.67 1811.22 1906.67 1808.42 1906.75L1791.25 1906.75C1779.82 1906.45 1767.68 1907.26 1754.83 1909.17 1741.97 1911.08 1732.25 1915.84 1725.67 1923.47 1721.78 1929.22 1718.99 1938.11 1717.31 1950.14 1715.62 1962.17 1714.59 1974.51 1714.23 1987.17 1713.86 1999.84 1713.71 2010 1713.78 2017.66 1713.77 2027.06 1713.91 2036.97 1714.23 2047.36 1714.54 2057.76 1715.12 2067.66 1715.99 2077.07 1716.53 2083.23 1717.43 2089.17 1718.68 2094.9 1719.94 2100.62 1722.27 2106.12 1725.67 2111.4 1728.93 2115.98 1733.3 2119.47 1738.76 2121.85 1744.23 2124.24 1749.69 2125.74 1755.16 2126.36 1763.32 2127.22 1771.54 2127.81 1779.81 2128.12 1788.08 2128.43 1796.29 2128.58 1804.45 2128.56 1817.34 2128.89 1830.3 2128.12 1843.35 2126.25 1856.4 2124.38 1866.17 2119.43 1872.68 2111.4 1876.29 2105.71 1878.94 2097.33 1880.65 2086.28 1882.35 2075.23 1883.44 2063.95 1883.92 2052.46 1884.41 2040.96 1884.62 2031.71 1884.56 2024.7 1884.56 2014.47 1884.34 2003.24 1883.9 1991.03 1883.46 1978.82 1882.8 1967.59 1881.92 1957.36 1881.37 1951.57 1880.49 1945.77 1879.28 1939.98 1878.07 1934.18 1875.87 1928.83 1872.68 1923.91 1866.31 1916.07 1856.81 1911.18 1844.18 1909.22 1834.7 1907.76 1825.63 1906.93 1816.95 1906.73ZM1783.52 1840.73C1789.24 1840.66 1795.05 1840.68 1800.93 1840.8 1815.57 1840.58 1830.99 1841.03 1847.21 1842.15 1863.42 1843.28 1878.87 1846.43 1893.57 1851.61 1908.26 1856.8 1920.65 1865.35 1930.72 1877.29 1939.22 1888.39 1945.34 1902.31 1949.09 1919.05 1952.85 1935.79 1955.16 1952.97 1956.03 1970.6 1956.9 1988.22 1957.26 2003.91 1957.1 2017.66 1957.24 2035.16 1956.64 2053.52 1955.29 2072.72 1953.94 2091.93 1951.03 2109.96 1946.55 2126.8 1944.36 2135.01 1941.05 2142.78 1936.61 2150.11 1932.16 2157.43 1926.54 2163.88 1919.73 2169.45 1903.62 2181.26 1884.94 2188.52 1863.7 2191.21 1842.46 2193.9 1820.36 2195 1797.41 2194.51 1782.78 2194.73 1767.35 2194.28 1751.14 2193.16 1734.92 2192.03 1719.47 2188.88 1704.78 2183.7 1690.08 2178.52 1677.7 2169.96 1667.62 2158.02 1659.27 2146.92 1653.21 2133 1649.45 2116.26 1645.69 2099.52 1643.34 2082.34 1642.41 2064.71 1641.48 2047.09 1641.09 2031.4 1641.24 2017.66 1641.1 1999.99 1641.71 1981.63 1643.05 1962.59 1644.4 1943.54 1647.31 1925.52 1651.79 1908.51 1654.19 1900.3 1657.64 1892.53 1662.12 1885.21 1666.61 1877.88 1672.25 1871.43 1679.05 1865.86 1694.87 1854.05 1713.25 1846.79 1734.2 1844.1 1749.91 1842.08 1766.35 1840.96 1783.52 1840.73Z" stroke="#0D0D0D" stroke-width="3" stroke-linejoin="round" stroke-miterlimit="10" fill-rule="evenodd"/><text fill="#000000" fill-opacity="0" font-family="Arial,Arial_MSFontService,sans-serif" font-size="353.935" x="1641.21" y="2150.38">0</text><path d="M2115.42 620.293 1965.91 760.875 1983.79 779.894 1909.99 777.622 1912.26 703.819 1930.14 722.838 2079.65 582.256Z" stroke="#042433" stroke-width="6.875" stroke-miterlimit="8" fill="#FFFF00" fill-rule="evenodd"/><path d="M1918.27 1077.76 2419.74 1325.09 2431.66 1300.93 2456.14 1373.08 2384 1397.57 2395.91 1373.41 1894.44 1126.08Z" stroke="#042433" stroke-width="6.875" stroke-miterlimit="8" fill="#FFFF00" fill-rule="evenodd"/></g></svg>